<?xml version="1.0" encoding="UTF-8"?>
<svg xmlns="http://www.w3.org/2000/svg" xmlns:xlink="http://www.w3.org/1999/xlink" width="121.3679" height="32" viewBox="0 0 121.3679 32">
  <defs>
    <clipPath id="a">
      <rect width="121.3631" height="32" fill="none"></rect>
    </clipPath>
  </defs>
  <g clip-path="url(#a)">
    <path d="M13.3709.0116H0V31.9885Z" fill="#fff"></path>
    <path d="M22.7784.0116H36.1319V31.9885Z" fill="#fff"></path>
    <path d="M18.0747,11.7971l8.5106,20.1913H21.0015L18.4579,25.56H12.23Z" fill="#fff"></path>
    <path d="M57.9455,20.3468l1.5766,4.5209a.2616.2616,0,0,0,.27.1655h3.0313c.1655,0,.1917-.0784.1655-.2439L56.726,7.394c-.0261-.1393-.0522-.1655-.1916-.1655H52.7713c-.1045,0-.1654.0784-.1654.1916a4.0108,4.0108,0,0,1-.244,1.4634l-5.5835,15.88c-.0261.1917.0349.27.1917.27H49.679a.2759.2759,0,0,0,.3049-.2178l1.49-4.4686Zm-5.61-2.9529C53.1547,14.92,54.2348,11.75,54.67,9.9376h.0261c.54,1.8989,1.8119,5.6619,2.3868,7.4563Z" fill="#fff"></path>
    <path d="M71.0407,25.3031a12.8421,12.8421,0,0,0,5.1213-1.0539.2118.2118,0,0,0,.1662-.2439c-.0525-.4878-.1137-1.1934-.1137-1.7334V5.8958c0-.1045,0-.1566-.1307-.1566H73.1309c-.113,0-.1654.0523-.1654.1916V11.48a9.7108,9.7108,0,0,0-1.167-.0785c-4.7649,0-7.6917,3.1446-7.6917,7.0731C64.1068,23.03,67.112,25.3031,71.0407,25.3031Zm1.9248-3.0312a5.1863,5.1863,0,0,1-1.5769.2178c-2.16,0-3.9285-1.2194-3.9285-4.1811a3.9742,3.9742,0,0,1,4.2335-4.1725,3.5179,3.5179,0,0,1,1.2718.1916Z" fill="#fff"></path>
    <path d="M85.7484,11.4009c-4.0681,0-6.5852,3.1183-6.5852,6.9686,0,3.4407,2.0031,6.9336,6.524,6.9336,3.8243,0,6.5068-2.8135,6.5068-7.0208C92.194,14.5716,89.9207,11.4009,85.7484,11.4009Zm-.1654,2.7352c2.2992,0,3.2749,1.9773,3.2749,4.2334,0,2.7874-1.4373,4.1724-3.1095,4.1724-2.0643,0-3.2837-1.7335-3.2837-4.2334C82.4647,15.7388,83.7624,14.1361,85.583,14.1361Z" fill="#fff"></path>
    <path d="M95.247,5.739a.17.17,0,0,0-.1913.1916V24.4669a.2858.2858,0,0,0,.1913.244,13.7017,13.7017,0,0,0,4.0592.5923c4.0157,0,7.9183-2.4912,7.9183-7.5085a6.1132,6.1132,0,0,0-5.8194-6.3937q-.2871-.0135-.5745,0a7.8277,7.8277,0,0,0-2.4653.3832l-.0347-5.8274c0-.1916-.0525-.2178-.2438-.2178Zm8.6413,12.3865a4.0965,4.0965,0,0,1-4.2771,4.4164,4.3046,4.3046,0,0,1-1.2459-.1394V14.4932a4.8242,4.8242,0,0,1,1.8907-.3049C102.3986,14.1883,103.8883,15.5472,103.8883,18.1255Z" fill="#fff"></path>
    <path d="M118.2448,19.1011a19.34,19.34,0,0,0,2.7874-.1132c.1389-.0261.1913-.0784.2178-.1916a8.24,8.24,0,0,0,.1131-1.6724c0-2.5784-1.55-5.723-5.5578-5.723-4.094,0-6.3673,3.3362-6.3673,7.0993,0,3.3361,1.7593,6.8029,6.69,6.8029a8.9943,8.9943,0,0,0,4.0674-.7839.2891.2891,0,0,0,.1573-.2962V21.967c0-.1307-.0783-.1566-.1573-.1045a8.5061,8.5061,0,0,1-3.362.6532c-2.7616,0-4.0157-1.5243-4.094-3.4146Zm-5.5054-2.3344a2.9594,2.9594,0,0,1,2.927-2.7613,2.5051,2.5051,0,0,1,2.6023,2.4039c.0015.0378.0022.0757.0019.1135v.2179a13.8129,13.8129,0,0,1-1.49.0261Z" fill="#fff"></path>
  </g>
</svg>
