<?xml version="1.0" encoding="UTF-8"?>
<svg xmlns="http://www.w3.org/2000/svg" width="151" height="47" viewBox="0 0 151 47">
  <path d="M79.48,11.8088a3.046,3.046,0,1,1-3.046-3.0581A3.046,3.046,0,0,1,79.48,11.8088ZM66.9216,17.972v.7527a5.846,5.846,0,0,0-4.5455-1.8819,8.9887,8.9887,0,0,0-9.0909,9.3154,8.9887,8.9887,0,0,0,9.0909,9.3153,5.6837,5.6837,0,0,0,4.5455-1.929v.8a.6419.6419,0,0,0,.656.6587h3.7957v-17.69H67.5776A.6716.6716,0,0,0,66.9216,17.972Zm0,11.3383a4.6517,4.6517,0,0,1-3.7957,1.9289c-2.999,0-5.2952-1.8818-5.2952-5.081s2.2962-5.0811,5.2952-5.0811a4.78,4.78,0,0,1,3.7957,1.9289Zm7.2634-11.997h4.4985v17.69H74.185Zm67.198-.4705a5.8472,5.8472,0,0,0-4.546,1.8819V8.7978h-4.498V35.003h3.795a.6714.6714,0,0,0,.656-.6587v-.8a5.7959,5.7959,0,0,0,4.546,1.929,9.0165,9.0165,0,0,0,9.091-9.3153A9.0066,9.0066,0,0,0,141.383,16.8428Zm-.75,14.3494a4.5849,4.5849,0,0,1-3.796-1.9289V22.959a5.08,5.08,0,0,1,3.796-1.929c2.999,0,5.295,1.8819,5.295,5.0811S143.632,31.1922,140.633,31.1922Zm-10.637-6.6807V35.05h-4.499V25.029c0-2.9169-.937-4.0931-3.468-4.0931a5.023,5.023,0,0,0-3.655,1.7408V35.003h-4.498v-17.69h3.561a.6714.6714,0,0,1,.656.6587v.7527a6.4428,6.4428,0,0,1,4.78-1.8819,7.276,7.276,0,0,1,4.92,1.6937C129.386,19.8539,129.996,21.5475,129.996,24.5115Zm-27.039-7.6687a5.8455,5.8455,0,0,0-4.5452,1.8819V8.7978H93.9132V35.003h3.7957a.6716.6716,0,0,0,.656-.6587v-.8a5.7944,5.7944,0,0,0,4.5451,1.929,9.0165,9.0165,0,0,0,9.091-9.3153A8.9507,8.9507,0,0,0,102.957,16.8428Zm-.75,14.3494a4.5846,4.5846,0,0,1-3.7952-1.9289V22.959a5.0781,5.0781,0,0,1,3.7952-1.929c3,0,5.296,1.8819,5.296,5.0811S105.207,31.1922,102.207,31.1922ZM90.0238,16.8428a7.1448,7.1448,0,0,1,2.0618.2353v4.1872s-3.7488-1.27-6.0918,1.4114V35.05H81.4952V17.3133h3.7957a.6716.6716,0,0,1,.656.6587v.7527A6.1442,6.1442,0,0,1,90.0238,16.8428ZM43.304,33.4034c-.2343-.5646-.4686-1.1762-.7029-1.6937-.3749-.8468-.75-1.6466-1.0778-2.3994l-.0469-.047C38.2431,22.2062,34.7754,15.0551,31.12,7.998L30.98,7.7157c-.3749-.7057-.75-1.4584-1.1246-2.2112a13.5307,13.5307,0,0,0-1.687-2.5876A7.5574,7.5574,0,0,0,22.2168,0a7.8526,7.8526,0,0,0-5.9981,2.8228A16.2305,16.2305,0,0,0,14.5317,5.41c-.3749.7528-.75,1.5055-1.1246,2.2112l-.1406.2823C9.6582,14.961,6.1437,22.1121,2.91,29.1692l-.0469.0941c-.328.7527-.7029,1.5525-1.0778,2.3994q-.3515.7762-.7029,1.6937a10.6066,10.6066,0,0,0-.5623,5.081,9.9915,9.9915,0,0,0,6.0918,7.81A9.5889,9.5889,0,0,0,10.408,47a10.6314,10.6314,0,0,0,1.2184-.0941,12.3477,12.3477,0,0,0,4.686-1.6,23.7522,23.7522,0,0,0,5.8107-4.8929,24.6466,24.6466,0,0,0,5.8107,4.8929,12.3477,12.3477,0,0,0,4.686,1.6A10.6314,10.6314,0,0,0,33.8382,47a9.4284,9.4284,0,0,0,3.7957-.7528,9.9719,9.9719,0,0,0,6.0918-7.81A8.9208,8.9208,0,0,0,43.304,33.4034ZM22.17,35.85a23.2372,23.2372,0,0,1-4.7329-8.7507,7.6181,7.6181,0,0,1-.1406-2.87,4.5757,4.5757,0,0,1,.75-1.9759,4.9686,4.9686,0,0,1,4.1238-2.07,4.792,4.792,0,0,1,4.1237,2.07,4.5744,4.5744,0,0,1,.75,1.9759,7.5816,7.5816,0,0,1-.14,2.87C26.3405,29.5926,24.7,32.6036,22.17,35.85Zm18.6972,2.2113a6.9868,6.9868,0,0,1-4.2643,5.5045,7.0693,7.0693,0,0,1-3.5613.47A9.19,9.19,0,0,1,29.48,42.8128a21.9006,21.9006,0,0,1-5.3421-4.5636c3.0928-3.8108,4.9672-7.2922,5.67-10.3973a11.8381,11.8381,0,0,0,.2343-3.999,7.6508,7.6508,0,0,0-1.2652-3.1992,7.8859,7.8859,0,0,0-6.6073-3.34,8.0063,8.0063,0,0,0-6.6073,3.34,7.6509,7.6509,0,0,0-1.2653,3.1992,9.8066,9.8066,0,0,0,.2343,3.999c.7029,3.1051,2.6242,6.6336,5.67,10.4444A21.0733,21.0733,0,0,1,14.86,42.86a9.1911,9.1911,0,0,1-3.5613,1.2232,7.469,7.469,0,0,1-3.5614-.4705,6.9865,6.9865,0,0,1-4.2643-5.5045,7.8174,7.8174,0,0,1,.4217-3.67c.1406-.47.3749-.9409.6092-1.5055.328-.7527.7029-1.5525,1.0778-2.3523l.0469-.0941c3.2333-7.01,6.701-14.1612,10.3092-21.1241l.1406-.2823c.3749-.7057.75-1.4585,1.1247-2.1642a10.3386,10.3386,0,0,1,1.3121-2.07,4.9071,4.9071,0,0,1,7.4976,0,10.343,10.343,0,0,1,1.3121,2.07c.3749.7057.75,1.4585,1.1246,2.1642l.1406.2823c3.5614,7.01,7.0291,14.1611,10.2624,21.1711v.0471c.3749.7527.703,1.6,1.0778,2.3523.2343.5646.4686,1.0351.6092,1.5055A7.9786,7.9786,0,0,1,40.8672,38.0611Z" fill="#fff"></path>
</svg>
