<?xml version="1.0" encoding="UTF-8"?>
<svg xmlns="http://www.w3.org/2000/svg" width="64" height="68" viewBox="0 0 64 68" fill="none">
  <path d="M0 34C0 22.625 6 12.125 16 6.375C25.875 0.625 38 0.625 48 6.375C57.875 12.125 64 22.625 64 34C64 45.5 57.875 56 48 61.75C38 67.5 25.875 67.5 16 61.75C6 56 0 45.5 0 34ZM36 14C36 11.875 34.125 10 32 10C29.75 10 28 11.875 28 14C28 16.25 29.75 18 32 18C34.125 18 36 16.25 36 14ZM32 54C36.375 54 40 50.5 40 46C40 45.625 39.875 45.125 39.875 44.75L54.5 35.625C55.875 34.75 56.375 32.875 55.5 31.5C54.625 30.125 52.75 29.625 51.375 30.5L36.625 39.625C35.375 38.625 33.75 38 32 38C27.5 38 24 41.625 24 46C24 50.5 27.5 54 32 54ZM22 20C22 17.875 20.125 16 18 16C15.75 16 14 17.875 14 20C14 22.25 15.75 24 18 24C20.125 24 22 22.25 22 20ZM12 38C14.125 38 16 36.25 16 34C16 31.875 14.125 30 12 30C9.75 30 8 31.875 8 34C8 36.25 9.75 38 12 38ZM50 20C50 17.875 48.125 16 46 16C43.75 16 42 17.875 42 20C42 22.25 43.75 24 46 24C48.125 24 50 22.25 50 20Z" fill="#B2100B"></path>
</svg>
