<?xml version="1.0" encoding="UTF-8"?>
<svg xmlns="http://www.w3.org/2000/svg" width="64" height="64" viewBox="0 0 64 64" fill="none">
  <path d="M7.05526 7.37464L11.8256 10.5548C12.9188 11.3499 13.2169 12.8406 12.5212 13.9338C11.7262 15.027 10.2355 15.3252 9.14227 14.5301L4.37196 11.3499C3.27876 10.6542 2.98062 9.16351 3.77567 8.07031C4.47134 6.97712 5.96206 6.67897 7.05526 7.37464ZM59.5287 11.3499L54.7583 14.5301C53.6652 15.3252 52.1744 15.027 51.4788 13.9338C50.6837 12.8406 50.9819 11.3499 52.0751 10.5548L56.8454 7.37464C57.9386 6.67897 59.4293 6.97712 60.2243 8.07031C60.92 9.16351 60.6219 10.6542 59.5287 11.3499ZM2.58309 22.8781H8.94351C10.2355 22.8781 11.3287 23.9713 11.3287 25.2633C11.3287 26.6546 10.2355 27.6485 8.94351 27.6485H2.58309C1.19175 27.6485 0.197939 26.6546 0.197939 25.2633C0.197939 23.9713 1.19175 22.8781 2.58309 22.8781ZM55.0565 22.8781H61.4169C62.7089 22.8781 63.8021 23.9713 63.8021 25.2633C63.8021 26.6546 62.7089 27.6485 61.4169 27.6485H55.0565C53.6652 27.6485 52.6713 26.6546 52.6713 25.2633C52.6713 23.9713 53.6652 22.8781 55.0565 22.8781ZM11.8256 39.9718L7.05526 43.152C5.96206 43.947 4.47134 43.6489 3.77567 42.5557C2.98062 41.4625 3.27876 39.9718 4.37196 39.1767L9.14227 35.9965C10.2355 35.3008 11.7262 35.599 12.5212 36.6922C13.2169 37.7854 12.9188 39.2761 11.8256 39.9718ZM54.7583 36.0959L59.5287 39.2761C60.6219 39.9718 60.92 41.4625 60.2243 42.5557C59.4293 43.6489 57.9386 43.947 56.8454 43.2513L52.0751 40.0711C50.9819 39.2761 50.6837 37.7854 51.4788 36.6922C52.1744 35.599 53.6652 35.3008 54.7583 36.0959ZM44.8202 36.5928C42.8326 39.2761 40.8449 42.0588 39.9505 45.1396H24.0495C23.0557 42.0588 21.068 39.2761 19.0804 36.5928C18.5835 35.8971 18.0866 35.2014 17.5897 34.5058C15.6021 31.6237 14.5089 28.2447 14.5089 24.4682C14.5089 14.8282 22.2606 6.97712 32 6.97712C41.64 6.97712 49.4911 14.8282 49.4911 24.4682C49.4911 28.2447 48.2986 31.6237 46.3109 34.5058C45.814 35.2014 45.3171 35.8971 44.8202 36.5928ZM39.9505 49.9099C39.9505 54.3821 36.3728 57.8604 32 57.8604C27.5278 57.8604 24.0495 54.3821 24.0495 49.9099V48.3198H39.9505V49.9099ZM32 16.5177C32.7951 16.5177 33.5901 15.8221 33.5901 14.9276C33.5901 14.1326 32.7951 13.3375 32 13.3375C25.8384 13.3375 20.8693 18.406 20.8693 24.4682C20.8693 25.3627 21.5649 26.0584 22.4594 26.0584C23.2544 26.0584 24.0495 25.3627 24.0495 24.4682C24.0495 20.0955 27.5278 16.5177 32 16.5177Z" fill="#B2100B"></path>
</svg>
