<?xml version="1.0" encoding="UTF-8"?>
<svg xmlns="http://www.w3.org/2000/svg" width="64" height="64" viewBox="0 0 64 64" fill="none">
  <path d="M6.4 6.7H35.2C38.7 6.7 41.6 9.6 41.6 13.1V32.3C41.6 35.9 38.7 38.7 35.2 38.7H20.2L12.1 44.8C11.6 45.2 11 45.2 10.4 45C9.9 44.7 9.6 44.2 9.6 43.5V38.7H6.4C2.8 38.7 0 35.9 0 32.3V13.1C0 9.6 2.8 6.7 6.4 6.7ZM35.2 41.9C40.5 41.9 44.8 37.6 44.8 32.3V19.5H57.6C61.1 19.5 64 22.4 64 25.9V45.1C64 48.7 61.1 51.5 57.6 51.5H54.4V56.3C54.4 57 54 57.5 53.5 57.8C52.9 58 52.3 58 51.8 57.6L43.7 51.5H32C28.4 51.5 25.6 48.7 25.6 45.1V41.9H35.2Z" fill="#B2100B"></path>
</svg>
