<?xml version="1.0" encoding="UTF-8"?>
<svg xmlns="http://www.w3.org/2000/svg" width="119" height="22" viewBox="0 0 119 22" fill="none">
  <path d="M19.9266 6.49615H16.6385C16.7271 5.98023 17.0467 5.69146 17.6935 5.3642L18.298 5.05618C19.3799 4.50175 19.9574 3.87417 19.9574 2.85002C19.9574 2.20704 19.7071 1.69882 19.2105 1.33305C18.7138 0.96728 18.1286 0.786321 17.4432 0.786321C16.913 0.780087 16.3925 0.928607 15.9455 1.21369C15.495 1.49091 15.1601 1.84897 14.9521 2.2956L15.9031 3.25044C16.2728 2.50351 16.8079 2.13774 17.5125 2.13774C18.1093 2.13774 18.4751 2.44575 18.4751 2.87312C18.4751 3.23119 18.298 3.52766 17.6126 3.87417L17.2238 4.06283C16.3806 4.4902 15.7953 4.97918 15.4565 5.5336C15.1177 6.08803 14.9521 6.78492 14.9521 7.62811V7.85912H19.9266V6.49615Z" fill="white"></path>
  <path d="M19.4875 9.42969H14.0434L11.3213 14.1423H16.7655L19.4875 18.8588L22.2096 14.1423L19.4875 9.42969Z" fill="white"></path>
  <path d="M11.791 17.2873C8.32584 17.2873 5.50365 14.4652 5.50365 11C5.50365 7.53482 8.32584 4.71263 11.791 4.71263L13.9433 0.211761C13.2345 0.0708228 12.5136 -0.000105052 11.791 1.16782e-07C5.71541 1.16782e-07 0.791016 4.92439 0.791016 11C0.791016 17.0756 5.71541 22 11.791 22C14.1193 22.0043 16.3882 21.2651 18.267 19.8901L15.8876 15.7627C14.7493 16.746 13.2953 17.2871 11.791 17.2873Z" fill="white"></path>
  <path d="M38.9873 4.05556L40.7928 7.75L44.765 8.33333C45.0984 8.38889 45.3761 8.61111 45.4873 8.94444C45.5984 9.25 45.515 9.61111 45.265 9.83333L42.3761 12.6944L43.0706 16.75C43.1261 17.0833 42.9873 17.4167 42.7095 17.6111C42.4317 17.8333 42.0706 17.8333 41.765 17.6944L38.2095 15.7778L34.6261 17.6944C34.3484 17.8333 33.9873 17.8333 33.7095 17.6111C33.4317 17.4167 33.2928 17.0833 33.3484 16.75L34.015 12.6944L31.1261 9.83333C30.9039 9.61111 30.8206 9.25 30.9039 8.94444C31.015 8.61111 31.2928 8.38889 31.6261 8.33333L35.6261 7.75L37.4039 4.05556C37.5428 3.75 37.8484 3.55556 38.2095 3.55556C38.5428 3.55556 38.8484 3.75 38.9873 4.05556Z" fill="#FFA000"></path>
  <path d="M58.9873 4.05556L60.7928 7.75L64.765 8.33333C65.0984 8.38889 65.3761 8.61111 65.4873 8.94444C65.5984 9.25 65.515 9.61111 65.265 9.83333L62.3761 12.6944L63.0706 16.75C63.1261 17.0833 62.9873 17.4167 62.7095 17.6111C62.4317 17.8333 62.0706 17.8333 61.765 17.6944L58.2095 15.7778L54.6261 17.6944C54.3484 17.8333 53.9873 17.8333 53.7095 17.6111C53.4317 17.4167 53.2928 17.0833 53.3484 16.75L54.015 12.6944L51.1261 9.83333C50.9039 9.61111 50.8206 9.25 50.9039 8.94444C51.015 8.61111 51.2928 8.38889 51.6261 8.33333L55.6261 7.75L57.4039 4.05556C57.5428 3.75 57.8484 3.55556 58.2095 3.55556C58.5428 3.55556 58.8484 3.75 58.9873 4.05556Z" fill="#FFA000"></path>
  <path d="M78.9873 4.05556L80.7928 7.75L84.765 8.33333C85.0984 8.38889 85.3761 8.61111 85.4873 8.94444C85.5984 9.25 85.515 9.61111 85.265 9.83333L82.3761 12.6944L83.0706 16.75C83.1261 17.0833 82.9873 17.4167 82.7095 17.6111C82.4317 17.8333 82.0706 17.8333 81.765 17.6944L78.2095 15.7778L74.6261 17.6944C74.3484 17.8333 73.9873 17.8333 73.7095 17.6111C73.4317 17.4167 73.2928 17.0833 73.3484 16.75L74.015 12.6944L71.1261 9.83333C70.9039 9.61111 70.8206 9.25 70.9039 8.94444C71.015 8.61111 71.2928 8.38889 71.6261 8.33333L75.6261 7.75L77.4039 4.05556C77.5428 3.75 77.8484 3.55556 78.2095 3.55556C78.5428 3.55556 78.8484 3.75 78.9873 4.05556Z" fill="#FFA000"></path>
  <path d="M98.9873 4.05556L100.793 7.75L104.765 8.33333C105.098 8.38889 105.376 8.61111 105.487 8.94444C105.598 9.25 105.515 9.61111 105.265 9.83333L102.376 12.6944L103.071 16.75C103.126 17.0833 102.987 17.4167 102.709 17.6111C102.432 17.8333 102.071 17.8333 101.765 17.6944L98.2095 15.7778L94.6261 17.6944C94.3484 17.8333 93.9873 17.8333 93.7095 17.6111C93.4317 17.4167 93.2928 17.0833 93.3484 16.75L94.015 12.6944L91.1261 9.83333C90.9039 9.61111 90.8206 9.25 90.9039 8.94444C91.015 8.61111 91.2928 8.38889 91.6261 8.33333L95.6261 7.75L97.4039 4.05556C97.5428 3.75 97.8484 3.55556 98.2095 3.55556C98.5428 3.55556 98.8484 3.75 98.9873 4.05556Z" fill="#FFA000"></path>
  <g clip-path="url(#clip0_3895_27878)">
    <path d="M118.987 4.05556L120.793 7.75L124.765 8.33333C125.098 8.38889 125.376 8.61111 125.487 8.94444C125.598 9.25 125.515 9.61111 125.265 9.83333L122.376 12.6944L123.071 16.75C123.126 17.0833 122.987 17.4167 122.709 17.6111C122.432 17.8333 122.071 17.8333 121.765 17.6944L118.209 15.7778L114.626 17.6944C114.348 17.8333 113.987 17.8333 113.709 17.6111C113.432 17.4167 113.293 17.0833 113.348 16.75L114.015 12.6944L111.126 9.83333C110.904 9.61111 110.821 9.25 110.904 8.94444C111.015 8.61111 111.293 8.38889 111.626 8.33333L115.626 7.75L117.404 4.05556C117.543 3.75 117.848 3.55556 118.209 3.55556C118.543 3.55556 118.848 3.75 118.987 4.05556Z" fill="#FFA000"></path>
  </g>
  <defs>
    <clipPath id="clip0_3895_27878">
      <rect width="8" height="14" fill="white" transform="translate(110.209 4)"></rect>
    </clipPath>
  </defs>
</svg>
