<?xml version="1.0" encoding="UTF-8"?>
<svg xmlns="http://www.w3.org/2000/svg" xmlns:xlink="http://www.w3.org/1999/xlink" width="125.3507" height="28.0182" viewBox="0 0 125.3507 28.0182">
  <defs>
    <clipPath id="a">
      <rect y="0.0021" width="123.5294" height="28" fill="none"></rect>
    </clipPath>
  </defs>
  <g clip-path="url(#a)">
    <path d="M122.9507,9.0883l-.358,4.255H120.83a4.189,4.189,0,0,0-4.2462,4.1312q-.0016.1167.0033.2334v9.6079h-4.931V9.0883h4.6832l.11,2.2785A5.3407,5.3407,0,0,1,121.27,9.0883Z" fill="#fff"></path>
    <path d="M88.7353,27.3158H83.8038V17.6805c0-2.0315-.1931-4.5569-3.0306-4.5569-2.7547,0-3.8288,1.9765-3.8288,4.2549v9.91H72.0128v-18.2h4.5735l.11,2.3333a6.21,6.21,0,0,1,5.51-2.7725c4.9864,0,6.5567,3.5412,6.5567,7.22Z" fill="#fff"></path>
    <path d="M69.8365,23.0609l-.358,4.1451a12.6119,12.6119,0,0,1-3.4988.4392c-4.6558,0-6.0057-2.1412-6.0057-6.3961V3.955h4.959V9.0883h4.9035l-.3306,4.2549H64.933V20.865c0,1.73.4682,2.6354,2.231,2.6354A7.385,7.385,0,0,0,69.8365,23.0609Z" fill="#fff"></path>
    <path d="M58.3487,9.0883l-.3857,4.255h-1.35a4.1206,4.1206,0,0,0-4.16,4.3646v9.6079H47.522V9.0883h4.6557l.0826,2.2785a5.4019,5.4019,0,0,1,4.8211-2.2785Z" fill="#fff"></path>
    <path d="M25.2349,25.3118a20.98,20.98,0,0,1-11.13,2.69C5.9231,27.755,0,22.6766,0,14.1118,0,5.5746,5.9781.1391,14.1326.0021A15.4616,15.4616,0,0,1,24.8492,3.5158L21.3505,7.03a10.7448,10.7448,0,0,0-7.576-2.2784C8.65,4.9707,5.5652,8.704,5.4823,13.81c-.0827,5.5176,3.3334,9.3333,8.65,9.4706a13.1772,13.1772,0,0,0,5.8408-.9608V16.665h-5.51l.3857-4.6392h10.386Z" fill="#fff"></path>
    <path d="M109.4792,19.9589H95.9254a4.509,4.509,0,0,0,4.5181,3.8157,6.08,6.08,0,0,0,5.0966-2.251l3.223,2.4432a9.8579,9.8579,0,0,1-8.182,3.8431,9.2053,9.2053,0,0,1-9.6147-9.5529,9.1582,9.1582,0,0,1,9.4217-9.553c5.8681,0,9.0911,3.5412,9.0911,9.8275Zm-4.9584-3.8157a3.8175,3.8175,0,0,0-4.27-3.6509,4.3533,4.3533,0,0,0-4.3251,3.6509Z" fill="#fff"></path>
    <path d="M44.4089,15.3746V27.3158H40.0561l-.11-1.7844a7.1175,7.1175,0,0,1-5.73,2.2511c-3.361,0-6.5293-1.6471-6.6117-5.49-.0827-6.0393,6.8321-6.4785,11.1848-6.4785h.8817v-.247c0-2.004-1.3225-3.0745-3.8293-3.0745a7.03,7.03,0,0,0-4.8762,1.949l-2.865-2.91a12.5978,12.5978,0,0,1,8.1543-2.8823C41.9019,8.6491,44.4089,11.257,44.4089,15.3746Zm-4.7384,4.0079h-.6887c-2.3417,0-6.4465.11-6.4189,2.5529.0275,3.4315,7.1076,2.3333,7.1076-1.8118Z" fill="#fff"></path>
    <path d="M119.0939,25.2021a3.2034,3.2034,0,1,1,.0274.0823A.1009.1009,0,0,1,119.0939,25.2021Zm2.0112,2.4706a2.4792,2.4792,0,1,0-.0554,0Zm-.5236-2.2785h.4962l.7435,1.2078h.4683l-.7989-1.2352a.7242.7242,0,0,0,.718-.73l-.0013-.0382c0-.5491-.3307-.7961-.992-.7961h-1.0747V26.63h.4409Zm0-.3569v-.8784h.5784c.3033,0,.6065.0549.6065.4118,0,.4392-.3306.4666-.6887.4666Z" fill="#fff"></path>
  </g>
</svg>
