<?xml version="1.0" encoding="utf-8"?>
<!-- Generator: Adobe Illustrator 26.0.2, SVG Export Plug-In . SVG Version: 6.00 Build 0)  -->
<svg version="1.1" id="Layer_1" xmlns="http://www.w3.org/2000/svg" xmlns:xlink="http://www.w3.org/1999/xlink" x="0px" y="0px"
	 viewBox="0 0 1914.83 285" style="enable-background:new 0 0 1914.83 285;" xml:space="preserve">
<style type="text/css">
	.st0{fill:#FFFFFF;}
</style>
<g>
	<path class="st0" d="M361,0c-0.09,1.49-0.25,2.98-0.25,4.47c-0.01,92.02-0.01,184.04,0,276.06c0,1.49,0.16,2.98,0.25,4.47
		c-120.33,0-240.67,0-361,0C0,190,0,95,0,0C120.33,0,240.67,0,361,0z M336.63,24.12c-104.32,0-208.34,0-312.35,0
		c0,79.27,0,158.16,0,237.18c104.26,0,208.17,0,312.35,0C336.63,182.08,336.63,103.19,336.63,24.12z"/>
	<path class="st0" d="M967.03,102.76c0,10.37,0,19.98,0,30.09c19.21,0,38.28,0,57.66,0c0,6.25,0,12.01,0,18.37
		c-18.96,0-38.01,0-57.46,0c0,10.64,0,20.67,0,31.27c21.93,0,43.68,0,65.68,0c0,6.33,0,12.11,0,18.28c-28.91,0-57.8,0-87.05,0
		c0-38.69,0-77.4,0-116.36c28.85,0,57.42,0,86.32,0c0,6.12,0,12.03,0,18.34C1010.44,102.76,989.01,102.76,967.03,102.76z"/>
	<path class="st0" d="M723.69,84.5c33.84-0.66,59.66,23.57,60.31,56.6c0.64,32.89-24.39,59.3-56.79,59.9
		c-34.17,0.64-60.42-23.38-61.04-55.84C665.51,111.17,690.18,85.15,723.69,84.5z M724.87,183c21.61,0.04,37.93-17.03,37.96-39.73
		c0.04-22.47-16.53-40.02-37.84-40.1c-21.26-0.08-37.61,16.99-37.82,39.48C686.96,164.9,703.83,182.96,724.87,183z"/>
	<path class="st0" d="M622.18,200.94c-6.85,0-13.29,0-20.3,0c0-16.28,0-32.34,0-48.67c-18.68,0-36.79,0-55.46,0
		c0,16.02,0,32.08,0,48.52c-7.13,0-13.69,0-20.57,0c0-38.76,0-77.48,0-116.39c6.78,0,13.21,0,20.26,0c0,15.95,0,31.68,0,47.74
		c18.7,0,36.78,0,55.48,0c0-15.8,0-31.53,0-47.61c7.16,0,13.72,0,20.6,0C622.18,123.24,622.18,161.83,622.18,200.94z"/>
	<path class="st0" d="M907.18,84.51c0,6.38,0,12.61,0,19.35c-12.22,0-24.14,0-36.6,0c0,32.55,0,64.61,0,96.98
		c-7.29,0-14.02,0-21.26,0c0-32.16,0-64.22,0-96.82c-12.22,0-23.95,0-36.08,0c0-6.74,0-12.96,0-19.52
		C844.45,84.51,875.66,84.51,907.18,84.51z"/>
	<path class="st0" d="M1155.57,181.87c0,6.84,0,12.75,0,18.98c-27.13,0-54.02,0-81.24,0c0-38.73,0-77.43,0-116.41
		c6.61,0,13.04,0,19.97,0c0,32.34,0,64.6,0,97.43C1114.84,181.87,1134.9,181.87,1155.57,181.87z"/>
	<path class="st0" d="M1412.99,185.25c0-34.34,0-67.4,0-100.77c2.99,0,5.56,0,8.49,0c0,38.81,0,77.52,0,116.18
		c-4.29,1.25-7.13,0.25-9.96-3.37c-24.64-31.47-49.52-62.75-74.32-94.08c-1.03-1.3-2.09-2.57-3.99-4.91c0,34.89,0,68.64,0,102.6
		c-3.29,0-5.87,0-8.74,0c0-38.83,0-77.4,0-116.26c4.84-1.07,8.44-0.69,12,3.88c24.46,31.39,49.27,62.51,73.98,93.72
		C1410.94,182.9,1411.5,183.51,1412.99,185.25z"/>
	<path class="st0" d="M1691.07,99.54c0,33.64,0,67.27,0,101.27c-2.65,0-5.06,0-7.86,0c0-38.63,0-77.34,0-116.12
		c5.17-1.57,8.55-0.01,11.91,4.3c23.99,30.73,48.27,61.23,72.47,91.79c0.88,1.11,1.88,2.13,3.79,4.29c0-34.34,0-67.36,0-100.63
		c3.12,0,5.54,0,8.29,0c0,38.83,0,77.56,0,116.23c-4.62,1.64-7.38-0.28-10.17-3.84c-24.27-30.93-48.72-61.72-73.12-92.55
		c-1.4-1.77-2.83-3.52-4.25-5.28C1691.78,99.18,1691.42,99.36,1691.07,99.54z"/>
	<path class="st0" d="M1279.85,192.28c0,3.28,0,5.58,0,8.22c-27.86,0-55.57,0-83.56,0c0-38.71,0-77.24,0-116.05
		c27.61,0,54.99,0,82.62,0c0,2.7,0,5.12,0,7.95c-24.53,0-48.81,0-73.49,0c0,15.27,0,30.13,0,45.44c21.85,0,43.76,0,66.04,0
		c0,2.82,0,5.2,0,8.13c-21.9,0-43.79,0-66.07,0c0,15.57,0,30.62,0,46.31C1230,192.28,1254.7,192.28,1279.85,192.28z"/>
	<path class="st0" d="M1906.7,137.89c0,3.13,0,5.27,0,8.12c-22.14,0-44.16,0-66.43,0c0,15.77,0,30.83,0,46.49
		c24.94,0,49.67,0,74.56,0c0,2.89,0,5.2,0,7.93c-27.75,0-55.43,0-83.47,0c0-38.5,0-77.04,0-115.91c27.39,0,54.77,0,82.48,0
		c0,2.52,0,4.93,0,7.91c-24.47,0-48.86,0-73.55,0c0,15.32,0,30.08,0,45.47C1862.25,137.89,1884.28,137.89,1906.7,137.89z"/>
	<path class="st0" d="M1566.4,99.6c-1.69,1.91-3.41,3.86-5.39,6.1c-1.48-1.06-2.77-2-4.07-2.92c-16.32-11.64-33.95-14.87-52.22-5.92
		c-18.34,8.99-26.42,25.03-26.86,45.07c-0.39,17.66,5.03,32.91,19.94,43.45c17.43,12.34,45.93,10.77,62.14-3.14
		c1.08-0.92,1.95-2.72,1.97-4.13c0.17-9.48,0.09-18.97,0.09-29.07c-12.58,0-24.96,0-37.66,0c0-2.86,0-5.12,0-7.8
		c14.87,0,29.93,0,45.83,0c0,2.39,0,4.97,0,7.55c0,10.83,0.07,21.66-0.08,32.49c-0.02,1.63-0.57,3.83-1.7,4.79
		c-21.43,18.15-55.37,21.6-77.69,4.39c-20.08-15.48-27.21-46.31-16.52-71.74c10.26-24.41,33.48-37.61,59.93-34.06
		C1547.67,86.48,1558.95,91.63,1566.4,99.6z"/>
	<path class="st0" d="M1630.2,200.94c-2.92,0-5.53,0-8.38,0c0-38.93,0-77.63,0-116.52c2.91,0,5.5,0,8.38,0
		C1630.2,123.36,1630.2,162.05,1630.2,200.94z"/>
	<path class="st0" d="M141.9,214.46c0-18.9,0-37.36,0-56.17c-14.95,0-29.52,0-44.64,0c0,18.57,0,37.15,0,56.09
		c-8.26,0-15.98,0-23.94,0c0-47.48,0-94.73,0-142.36c7.75,0,15.33,0,23.55,0c0,20.34,0,40.73,0,61.51c15.18,0,29.74,0,44.94,0
		c0-20.43,0-40.82,0-61.54c8.23,0,15.82,0,23.77,0c0,47.41,0,94.79,0,142.47C157.84,214.46,150.26,214.46,141.9,214.46z"/>
	<path class="st0" d="M215.38,71.9c23.88,0,47.46,0,71.51,0c0,7.8,0,15.49,0,23.52c-23.79,0-47.5,0-71.51,0
		C215.38,87.69,215.38,80.12,215.38,71.9z"/>
	<path class="st0" d="M215.36,131.27c23.9,0,47.49,0,71.54,0c0,7.78,0,15.46,0,23.47c-23.81,0-47.53,0-71.54,0
		C215.36,147.02,215.36,139.43,215.36,131.27z"/>
	<path class="st0" d="M287.04,190.92c0,7.99,0,15.56,0,23.48c-23.91,0-47.61,0-71.64,0c0-7.8,0-15.51,0-23.48
		C239.22,190.92,262.8,190.92,287.04,190.92z"/>
</g>
</svg>
