<?xml version="1.0" encoding="UTF-8"?>
<svg xmlns="http://www.w3.org/2000/svg" fill="none" height="22" viewBox="0 0 22 22" width="22">
  <path clip-rule="evenodd" d="m11.2228.473658c2.694.000626 3.0715.013186 4.1759.064299 1.1342.052495 1.9091.23216 2.5879.496113.7119.26787 1.3569.68768 1.8899 1.2303.5428.53286.9627 1.1778 1.2303 1.88981.264.67652.4444 1.44989.4961 2.58777.0463 1.0181.0613 1.41589.0639 3.56385v1.6694c-.0025 2.1486-.0169 2.5496-.0639 3.5637-.0525 1.1334-.2321 1.909-.4961 2.5878-.5539 1.4332-1.6869 2.5662-3.1202 3.1201-.6773.2639-1.4499.4443-2.5879.4961-1.0481.0476-1.44.0621-3.759.0641h-1.2809c-2.31937-.0019-2.71417-.0158-3.75817-.0641-1.13342-.0525-1.90912-.2322-2.58788-.4961-1.43295-.5545-2.5657-1.6873-3.120172-3.1201-.263299-.6766-.442971-1.4499-.495468-2.5878-.044208-.9582-.059579-1.367-.06333-3.2025l-.000284-2.2159c.003273-1.98761.018667-2.39424.063614-3.37855.051832-1.13344.232169-1.90904.495468-2.58777.267812-.71208.687932-1.35703 1.231012-1.88981.53296-.5424 1.17764-.96221 1.88916-1.2303.67654-.263953 1.44995-.444357 2.58788-.496113 1.13792-.051755 1.5017-.064324 4.39867-.064324zm-.2235 1.922322c-2.84817 0-3.18607.01109-4.31069.0621-1.04032.05028-1.60522.22181-1.98157.36968-.93031.35919-1.66556 1.0947-2.02439 2.02512-.14788.37559-.32245.94047-.3697 1.98075-.05183 1.12531-.0621 1.46246-.0621 4.31127 0 2.8487.01027 3.1859.0621 4.3112.04947 1.0403.22182 1.6051.3697 1.9807.35883.9304 1.09408 1.666 2.02439 2.0251.37635.1479.94125.3217 1.98157.3697 1.06383.0483 1.42237.0608 3.87009.062h.8812c2.4478-.0012 2.807-.0137 3.8709-.062 1.0402-.0503 1.6052-.2218 1.9815-.3697.9303-.3591 1.6656-1.0947 2.0244-2.0251.1479-.3756.3225-.9404.3697-1.9807.0455-1.0037.0593-1.3804.0617-3.4712v-1.6801c-.0024-2.09082-.0162-2.46751-.0617-3.47117-.0495-1.04028-.2218-1.60516-.3697-1.98075-.1703-.46225-.4418-.88066-.7948-1.22439-.3442-.3543-.7634-.62712-1.2267-.79851-.3763-.14787-.9412-.32162-1.9815-.36968-1.0334-.04688-1.4026-.06005-3.6663-.06187l-.6452-.00024zm.0007 3.2669c3.0253 0 5.4778 2.4524 5.4778 5.47752 0 3.0252-2.4525 5.4776-5.4778 5.4776-3.02526 0-5.47775-2.4524-5.47775-5.4776 0-3.02512 2.45249-5.47752 5.47775-5.47752zm0 1.92194c-1.96372 0-3.55574 1.59189-3.55574 3.55558 0 1.9637 1.59202 3.5556 3.55574 3.5556 1.9638 0 3.5558-1.5919 3.5558-3.5556 0-1.96369-1.592-3.55558-3.5558-3.55558zm6.0544-3.65169c.6369 0 1.1532.51626 1.1532 1.15317 0 .6369-.5163 1.15316-1.1532 1.15316s-1.1532-.51626-1.1532-1.15316c0-.63691.5163-1.15317 1.1532-1.15317z" fill="#f8f9ff" fill-rule="evenodd"></path>
</svg>
