<?xml version="1.0" encoding="UTF-8"?>
<svg xmlns="http://www.w3.org/2000/svg" fill="none" height="20" viewBox="0 0 20 20" width="20">
  <path d="m4.51647 6.7655h-4.216665v12.6542h4.216665zm10.31663-.325c-1.975 0-3.2958 1.05-3.8375 2.04583h-.0541v-1.72917h-3.89586v12.66254h4.05416v-6.2625c0-1.6542.325-3.2542 2.4375-3.2542 1.9406 0 2.0953 1.6478 2.1074 3.06l.0009 6.4567h4.0542v-6.9459c0-3.4083-.7583-6.0333-4.8667-6.0333zm-12.42496-5.579172c-1.16667 0-2.108335.941672-2.108335 2.108332 0 1.1625.941665 2.10834 2.108335 2.10834 1.1625 0 2.10833-.94584 2.10833-2.10834s-.94583-2.108332-2.10833-2.108332z" fill="#f8f9ff"></path>
</svg>
