<svg width="142" height="44" viewBox="0 0 142 44" fill="none" xmlns="http://www.w3.org/2000/svg">
<path d="M61.35 31.95C59.95 31.95 58.675 31.7083 57.525 31.225C56.375 30.725 55.3917 30.0583 54.575 29.225C53.7583 28.375 53.125 27.3833 52.675 26.25C52.225 25.1 52 23.875 52 22.575C52 21.2417 52.2333 20.0083 52.7 18.875C53.1667 17.725 53.8167 16.7333 54.65 15.9C55.4833 15.05 56.4667 14.3917 57.6 13.925C58.75 13.4417 60 13.2 61.35 13.2C62.2333 13.2 63.075 13.3083 63.875 13.525C64.675 13.7417 65.425 14.05 66.125 14.45C66.825 14.8333 67.4583 15.3083 68.025 15.875C68.5917 16.425 69.075 17.0333 69.475 17.7L65.65 20.125C65.2333 19.3083 64.6667 18.6667 63.95 18.2C63.2333 17.7167 62.375 17.475 61.375 17.475C60.6417 17.475 59.975 17.6083 59.375 17.875C58.775 18.1417 58.2583 18.5083 57.825 18.975C57.3917 19.425 57.05 19.9667 56.8 20.6C56.5667 21.2167 56.45 21.875 56.45 22.575C56.45 23.275 56.5667 23.9333 56.8 24.55C57.0333 25.15 57.3667 25.6833 57.8 26.15C58.2333 26.6 58.7417 26.9583 59.325 27.225C59.925 27.4917 60.5917 27.625 61.325 27.625C62.425 27.625 63.3417 27.35 64.075 26.8C64.8083 26.2333 65.3667 25.5167 65.75 24.65L69.775 26.8C69.3917 27.55 68.9167 28.2417 68.35 28.875C67.7833 29.5083 67.1417 30.0583 66.425 30.525C65.725 30.975 64.9417 31.325 64.075 31.575C63.225 31.825 62.3167 31.95 61.35 31.95Z" fill="#000514"/>
<path d="M71.4871 12H75.6371V19.725C76.0704 19.1583 76.5871 18.7167 77.1871 18.4C77.8038 18.0833 78.4871 17.925 79.2371 17.925C79.9871 17.925 80.6621 18.05 81.2621 18.3C81.8621 18.5333 82.3788 18.875 82.8121 19.325C83.2454 19.775 83.5788 20.3333 83.8121 21C84.0454 21.65 84.1621 22.3917 84.1621 23.225V31.7H79.8121V24.075C79.8121 23.2917 79.6454 22.6917 79.3121 22.275C78.9788 21.8417 78.4621 21.625 77.7621 21.625C77.1454 21.625 76.6371 21.8417 76.2371 22.275C75.8371 22.7083 75.6371 23.375 75.6371 24.275V31.7H71.4871V12Z" fill="#000514"/>
<path d="M93.2791 31.95C92.2291 31.95 91.2541 31.7667 90.3541 31.4C89.4708 31.0333 88.7124 30.5333 88.0791 29.9C87.4458 29.2667 86.9458 28.525 86.5791 27.675C86.2291 26.825 86.0541 25.9167 86.0541 24.95C86.0541 23.9833 86.2291 23.075 86.5791 22.225C86.9458 21.375 87.4458 20.6333 88.0791 20C88.7124 19.35 89.4708 18.8417 90.3541 18.475C91.2541 18.1083 92.2291 17.925 93.2791 17.925C94.3124 17.925 95.2708 18.1083 96.1541 18.475C97.0374 18.8417 97.8041 19.35 98.4541 20C99.1041 20.6333 99.6124 21.375 99.9791 22.225C100.346 23.075 100.529 23.9833 100.529 24.95C100.529 25.9167 100.346 26.825 99.9791 27.675C99.6291 28.525 99.1291 29.2667 98.4791 29.9C97.8458 30.5333 97.0874 31.0333 96.2041 31.4C95.3208 31.7667 94.3458 31.95 93.2791 31.95ZM93.3041 27.975C93.7208 27.975 94.1124 27.9 94.4791 27.75C94.8624 27.5833 95.1874 27.3667 95.4541 27.1C95.7374 26.8167 95.9541 26.4917 96.1041 26.125C96.2708 25.7583 96.3541 25.3583 96.3541 24.925C96.3541 24.5083 96.2708 24.1167 96.1041 23.75C95.9541 23.3667 95.7374 23.0417 95.4541 22.775C95.1874 22.4917 94.8624 22.275 94.4791 22.125C94.1124 21.9583 93.7208 21.875 93.3041 21.875C92.8874 21.875 92.4874 21.9583 92.1041 22.125C91.7374 22.275 91.4124 22.4917 91.1291 22.775C90.8624 23.0417 90.6458 23.3667 90.4791 23.75C90.3291 24.1167 90.2541 24.5083 90.2541 24.925C90.2541 25.3583 90.3291 25.7583 90.4791 26.125C90.6458 26.4917 90.8624 26.8167 91.1291 27.1C91.4124 27.3667 91.7374 27.5833 92.1041 27.75C92.4874 27.9 92.8874 27.975 93.3041 27.975Z" fill="#000514"/>
<path d="M102.469 18.2H106.619V20.1C106.969 19.3167 107.469 18.7583 108.119 18.425C108.769 18.0917 109.535 17.925 110.419 17.925C110.852 17.925 111.26 17.975 111.644 18.075C112.027 18.175 112.377 18.3 112.694 18.45L111.244 22.65C111.044 22.5 110.769 22.375 110.419 22.275C110.085 22.1583 109.727 22.1 109.344 22.1C108.51 22.1 107.852 22.325 107.369 22.775C106.885 23.225 106.644 23.9917 106.644 25.075V31.7H102.469V18.2Z" fill="#000514"/>
<path d="M118.989 31.975C117.456 31.975 116.247 31.5083 115.364 30.575C114.497 29.6417 114.064 28.325 114.064 26.625V18.2H118.389V25.825C118.389 26.6083 118.556 27.2083 118.889 27.625C119.222 28.0417 119.739 28.25 120.439 28.25C121.056 28.25 121.556 28.0417 121.939 27.625C122.339 27.1917 122.539 26.525 122.539 25.625V18.2L126.814 18.175V31.675L122.589 31.7V30.15C122.156 30.7333 121.631 31.1833 121.014 31.5C120.414 31.8167 119.739 31.975 118.989 31.975Z" fill="#000514"/>
<path d="M134.979 31.975C133.196 31.975 131.763 31.6583 130.679 31.025C129.596 30.375 128.804 29.45 128.304 28.25L132.529 27.05C132.713 27.6 133.038 28.0083 133.504 28.275C133.971 28.5417 134.496 28.675 135.079 28.675C135.613 28.675 136.013 28.575 136.279 28.375C136.563 28.1583 136.704 27.9083 136.704 27.625C136.704 27.4417 136.629 27.2917 136.479 27.175C136.329 27.0417 136.121 26.9333 135.854 26.85C135.604 26.75 135.304 26.6667 134.954 26.6C134.604 26.5167 134.221 26.4333 133.804 26.35C133.221 26.2333 132.638 26.1 132.054 25.95C131.488 25.7833 130.963 25.55 130.479 25.25C130.013 24.95 129.629 24.5667 129.329 24.1C129.046 23.6167 128.904 23.0083 128.904 22.275C128.904 21.675 129.046 21.1083 129.329 20.575C129.613 20.025 130.013 19.55 130.529 19.15C131.046 18.75 131.663 18.4417 132.379 18.225C133.096 17.9917 133.888 17.875 134.754 17.875C135.538 17.875 136.238 17.95 136.854 18.1C137.471 18.25 138.021 18.4667 138.504 18.75C139.004 19.0167 139.446 19.35 139.829 19.75C140.229 20.15 140.596 20.6 140.929 21.1L136.929 22.325C136.513 21.475 135.779 21.05 134.729 21.05C134.213 21.05 133.829 21.1333 133.579 21.3C133.329 21.45 133.204 21.6667 133.204 21.95C133.204 22.2667 133.438 22.5 133.904 22.65C134.388 22.8 135.104 22.9667 136.054 23.15C136.621 23.2667 137.196 23.4083 137.779 23.575C138.379 23.7417 138.921 23.9833 139.404 24.3C139.904 24.6 140.304 25 140.604 25.5C140.921 25.9833 141.079 26.6 141.079 27.35C141.079 27.9167 140.954 28.475 140.704 29.025C140.454 29.575 140.079 30.075 139.579 30.525C139.079 30.9583 138.446 31.3083 137.679 31.575C136.913 31.8417 136.013 31.975 134.979 31.975Z" fill="#000514"/>
<path d="M22 0C17.6488 0 13.3953 1.29027 9.77745 3.70767C6.15957 6.12506 3.3398 9.56099 1.67468 13.581C0.00954838 17.6009 -0.426147 22.0244 0.422728 26.292C1.2716 30.5596 3.36691 34.4796 6.44367 37.5563C9.52042 40.6331 13.4404 42.7284 17.708 43.5773C21.9756 44.4261 26.3991 43.9905 30.419 42.3253C34.439 40.6602 37.875 37.8404 40.2923 34.2225C42.7097 30.6047 44 26.3512 44 22C44 16.1652 41.6822 10.5694 37.5564 6.44365C33.4306 2.31785 27.8348 0 22 0ZM10.1059 24.816C10.1059 25.2695 9.92577 25.7044 9.60512 26.025C9.28446 26.3457 8.84956 26.5258 8.39609 26.5258C7.94261 26.5258 7.50771 26.3457 7.18705 26.025C6.8664 25.7044 6.68625 25.2695 6.68625 24.816V19.184C6.68625 18.7305 6.8664 18.2956 7.18705 17.975C7.50771 17.6543 7.94261 17.4742 8.39609 17.4742C8.84956 17.4742 9.28446 17.6543 9.60512 17.975C9.92577 18.2956 10.1059 18.7305 10.1059 19.184V24.816ZM15.671 30.5747C15.671 31.0284 15.4908 31.4636 15.17 31.7844C14.8492 32.1052 14.414 32.2854 13.9603 32.2854C13.5066 32.2854 13.0715 32.1052 12.7507 31.7844C12.4298 31.4636 12.2496 31.0284 12.2496 30.5747V13.427C12.2496 12.9733 12.4298 12.5382 12.7507 12.2174C13.0715 11.8966 13.5066 11.7163 13.9603 11.7163C14.414 11.7163 14.8492 11.8966 15.17 12.2174C15.4908 12.5382 15.671 12.9733 15.671 13.427V30.5747ZM21.2344 35.5872C21.2344 36.0407 21.0542 36.4756 20.7336 36.7962C20.4129 37.1169 19.978 37.297 19.5246 37.297C19.0711 37.297 18.6362 37.1169 18.3155 36.7962C17.9949 36.4756 17.8147 36.0407 17.8147 35.5872V8.41456C17.8147 7.96108 17.9949 7.52618 18.3155 7.20552C18.6362 6.88486 19.0711 6.70472 19.5246 6.70472C19.978 6.70472 20.4129 6.88486 20.7336 7.20552C21.0542 7.52618 21.2344 7.96108 21.2344 8.41456V35.5872ZM26.7995 30.3688C26.7995 30.8223 26.6194 31.2572 26.2987 31.5778C25.9781 31.8985 25.5432 32.0786 25.0897 32.0786C24.6362 32.0786 24.2013 31.8985 23.8806 31.5778C23.56 31.2572 23.3798 30.8223 23.3798 30.3688V13.633C23.3798 13.1795 23.56 12.7446 23.8806 12.4239C24.2013 12.1033 24.6362 11.9231 25.0897 11.9231C25.5432 11.9231 25.9781 12.1033 26.2987 12.4239C26.6194 12.7446 26.7995 13.1795 26.7995 13.633V30.3688ZM32.3646 32.9666C32.3646 33.1912 32.3204 33.4137 32.2344 33.6212C32.1484 33.8288 32.0224 34.0174 31.8636 34.1762C31.7047 34.3351 31.5161 34.4611 31.3086 34.547C31.101 34.633 30.8786 34.6773 30.6539 34.6773C30.4293 34.6773 30.2068 34.633 29.9993 34.547C29.7917 34.4611 29.6031 34.3351 29.4443 34.1762C29.2854 34.0174 29.1594 33.8288 29.0734 33.6212C28.9874 33.4137 28.9432 33.1912 28.9432 32.9666V11.0352C28.9432 10.8105 28.9874 10.5881 29.0734 10.3805C29.1594 10.173 29.2854 9.98439 29.4443 9.82553C29.6031 9.66668 29.7917 9.54067 29.9993 9.4547C30.2068 9.36873 30.4293 9.32448 30.6539 9.32448C30.8786 9.32448 31.101 9.36873 31.3086 9.4547C31.5161 9.54067 31.7047 9.66668 31.8636 9.82553C32.0224 9.98439 32.1484 10.173 32.2344 10.3805C32.3204 10.5881 32.3646 10.8105 32.3646 11.0352V32.9666ZM37.928 24.5872C37.928 25.0407 37.7478 25.4756 37.4272 25.7962C37.1065 26.1169 36.6716 26.297 36.2182 26.297C35.7647 26.297 35.3298 26.1169 35.0091 25.7962C34.6885 25.4756 34.5083 25.0407 34.5083 24.5872V19.4146C34.5083 18.9611 34.6885 18.5262 35.0091 18.2055C35.3298 17.8849 35.7647 17.7047 36.2182 17.7047C36.6716 17.7047 37.1065 17.8849 37.4272 18.2055C37.7478 18.5262 37.928 18.9611 37.928 19.4146V24.5872Z" fill="url(#paint0_linear_2403_12722)"/>
<defs>
<linearGradient id="paint0_linear_2403_12722" x1="31" y1="44" x2="5.5" y2="2.5" gradientUnits="userSpaceOnUse">
<stop stop-color="#5C9AFF"/>
<stop offset="1" stop-color="#0061FF"/>
</linearGradient>
</defs>
</svg>
