<svg width="112" height="44" viewBox="0 0 112 44" fill="none" xmlns="http://www.w3.org/2000/svg">
<path d="M61.6833 31.95C60.2833 31.95 59.0083 31.7083 57.8583 31.225C56.7083 30.725 55.725 30.0583 54.9083 29.225C54.0917 28.375 53.4583 27.3833 53.0083 26.25C52.5583 25.1 52.3333 23.875 52.3333 22.575C52.3333 21.2417 52.5667 20.0083 53.0333 18.875C53.5 17.725 54.15 16.7333 54.9833 15.9C55.8167 15.05 56.8 14.3917 57.9333 13.925C59.0833 13.4417 60.3333 13.2 61.6833 13.2C62.5667 13.2 63.4083 13.3083 64.2083 13.525C65.0083 13.7417 65.7583 14.05 66.4583 14.45C67.1583 14.8333 67.7917 15.3083 68.3583 15.875C68.925 16.425 69.4083 17.0333 69.8083 17.7L65.9833 20.125C65.5667 19.3083 65 18.6667 64.2833 18.2C63.5667 17.7167 62.7083 17.475 61.7083 17.475C60.975 17.475 60.3083 17.6083 59.7083 17.875C59.1083 18.1417 58.5917 18.5083 58.1583 18.975C57.725 19.425 57.3833 19.9667 57.1333 20.6C56.9 21.2167 56.7833 21.875 56.7833 22.575C56.7833 23.275 56.9 23.9333 57.1333 24.55C57.3667 25.15 57.7 25.6833 58.1333 26.15C58.5667 26.6 59.075 26.9583 59.6583 27.225C60.2583 27.4917 60.925 27.625 61.6583 27.625C62.7583 27.625 63.675 27.35 64.4083 26.8C65.1417 26.2333 65.7 25.5167 66.0833 24.65L70.1083 26.8C69.725 27.55 69.25 28.2417 68.6833 28.875C68.1167 29.5083 67.475 30.0583 66.7583 30.525C66.0583 30.975 65.275 31.325 64.4083 31.575C63.5583 31.825 62.65 31.95 61.6833 31.95Z" fill="#000514"/>
<path d="M71.8205 12H75.9705V19.725C76.4038 19.1583 76.9205 18.7167 77.5205 18.4C78.1371 18.0833 78.8205 17.925 79.5705 17.925C80.3205 17.925 80.9955 18.05 81.5955 18.3C82.1955 18.5333 82.7121 18.875 83.1455 19.325C83.5788 19.775 83.9121 20.3333 84.1455 21C84.3788 21.65 84.4955 22.3917 84.4955 23.225V31.7H80.1455V24.075C80.1455 23.2917 79.9788 22.6917 79.6455 22.275C79.3121 21.8417 78.7955 21.625 78.0955 21.625C77.4788 21.625 76.9705 21.8417 76.5705 22.275C76.1705 22.7083 75.9705 23.375 75.9705 24.275V31.7H71.8205V12Z" fill="#000514"/>
<path d="M90.8398 31.975C90.1398 31.975 89.5065 31.8833 88.9398 31.7C88.3731 31.5167 87.8898 31.25 87.4898 30.9C87.0898 30.55 86.7815 30.125 86.5648 29.625C86.3481 29.125 86.2398 28.5583 86.2398 27.925C86.2398 27.225 86.3815 26.5917 86.6648 26.025C86.9481 25.4583 87.3565 24.9833 87.8898 24.6C88.4231 24.2 89.0648 23.8917 89.8148 23.675C90.5648 23.4583 91.4065 23.35 92.3398 23.35H95.4398V23.25C95.4398 22.6833 95.2398 22.2333 94.8398 21.9C94.4565 21.55 93.8898 21.375 93.1398 21.375C92.5065 21.375 91.9815 21.4917 91.5648 21.725C91.1481 21.9583 90.8231 22.3083 90.5898 22.775L86.6148 21C87.3315 20.0833 88.1981 19.3417 89.2148 18.775C90.2481 18.2083 91.5481 17.925 93.1148 17.925C95.1648 17.925 96.7398 18.4083 97.8398 19.375C98.9398 20.325 99.4898 21.6833 99.4898 23.45V31.7H95.4648V29.9C95.0148 30.5333 94.3898 31.0417 93.5898 31.425C92.7898 31.7917 91.8731 31.975 90.8398 31.975ZM92.2648 28.65C92.6148 28.65 92.9565 28.6 93.2898 28.5C93.6398 28.3833 93.9565 28.2333 94.2398 28.05C94.5398 27.85 94.7981 27.625 95.0148 27.375C95.2315 27.1083 95.3898 26.8333 95.4898 26.55V26.275H92.9148C92.1148 26.275 91.5398 26.4 91.1898 26.65C90.8398 26.8833 90.6648 27.1917 90.6648 27.575C90.6648 28.2917 91.1981 28.65 92.2648 28.65Z" fill="#000514"/>
<path d="M100.691 18.2H103.016V15.275L107.166 13V18.2H110.466V21.9H107.166V26.325C107.166 27.0083 107.266 27.4667 107.466 27.7C107.682 27.9333 107.974 28.05 108.341 28.05C108.741 28.05 109.107 27.8917 109.441 27.575L111.341 30.75C110.857 31.1333 110.307 31.4333 109.691 31.65C109.091 31.85 108.441 31.95 107.741 31.95C106.991 31.95 106.324 31.8583 105.741 31.675C105.157 31.4917 104.657 31.1917 104.241 30.775C103.841 30.3417 103.532 29.7833 103.316 29.1C103.116 28.4167 103.016 27.575 103.016 26.575V21.9H100.691V18.2Z" fill="#000514"/>
<path fill-rule="evenodd" clip-rule="evenodd" d="M0.333344 22C0.333344 34.1503 10.1831 44 22.3333 44C22.344 44 22.3547 44 22.3654 44H43.7833L37.6123 37.8289C41.7562 33.8281 44.3333 28.215 44.3333 22C44.3333 9.84974 34.4836 0 22.3333 0C10.1831 0 0.333344 9.84974 0.333344 22ZM28.6333 28.8499H30.5974C31.0509 28.8499 31.4858 28.6698 31.8064 28.3491C32.1271 28.0284 32.3072 27.5935 32.3072 27.1401C32.3072 26.6866 32.1271 26.2517 31.8064 25.931C31.4858 25.6104 31.0509 25.4302 30.5974 25.4302H13.8615C13.4081 25.4302 12.9732 25.6104 12.6525 25.931C12.3318 26.2517 12.1517 26.6866 12.1517 27.1401C12.1517 27.5935 12.3318 28.0284 12.6525 28.3491C12.9732 28.6698 13.4081 28.8499 13.8615 28.8499H28.2852L28.3833 28.6L28.6333 28.8499ZM13.6556 17.7214C13.2019 17.7214 12.7668 17.5412 12.446 17.2204C12.1251 16.8996 11.9449 16.4644 11.9449 16.0107C11.9449 15.557 12.1251 15.1219 12.446 14.8011C12.7668 14.4802 13.2019 14.3 13.6556 14.3L30.8033 14.3C31.257 14.3 31.6921 14.4802 32.013 14.8011C32.3338 15.1219 32.514 15.557 32.514 16.0107C32.514 16.4644 32.3338 16.8996 32.013 17.2204C31.6921 17.5412 31.257 17.7214 30.8033 17.7214H13.6556ZM8.64314 23.2848C8.18966 23.2848 7.75475 23.1046 7.4341 22.784C7.11344 22.4633 6.9333 22.0284 6.9333 21.5749C6.9333 21.1215 7.11344 20.6866 7.4341 20.3659C7.75475 20.0453 8.18966 19.8651 8.64314 19.8651H35.8158C36.2693 19.8651 36.7042 20.0453 37.0248 20.3659C37.3455 20.6866 37.5256 21.1215 37.5256 21.5749C37.5256 22.0284 37.3455 22.4633 37.0248 22.784C36.7042 23.1046 36.2693 23.2848 35.8158 23.2848H8.64314Z" fill="url(#paint0_linear_2403_12727)"/>
<defs>
<linearGradient id="paint0_linear_2403_12727" x1="-7.61303" y1="-12.402" x2="47.816" y2="47.0161" gradientUnits="userSpaceOnUse">
<stop stop-color="#5294FF"/>
<stop offset="1" stop-color="#854CFF"/>
</linearGradient>
</defs>
</svg>
