<svg width="144" height="44" viewBox="0 0 144 44" fill="none" xmlns="http://www.w3.org/2000/svg">
<path fill-rule="evenodd" clip-rule="evenodd" d="M7.79273 29.004C8.24644 29.004 8.68155 28.8238 9.00237 28.503L36.9195 0.585787C37.2946 0.210714 37.8033 0 38.3338 0H38.6667C41.9804 0 44.6667 2.68629 44.6667 6V38C44.6667 41.3137 41.9804 44 38.6667 44H17.0718C15.29 44 14.3976 41.8457 15.6576 40.5858L38.9221 17.3213C39.2428 17.0006 39.4229 16.5657 39.4229 16.1122C39.4229 15.6588 39.2428 15.2239 38.9221 14.9032C38.6014 14.5825 38.1665 14.4024 37.7131 14.4024C37.2596 14.4024 36.8247 14.5825 36.504 14.9032L7.93087 43.4764C7.59559 43.8116 7.14085 44 6.66669 44C3.35298 44 0.666687 41.3137 0.666687 38V6C0.666687 2.68629 3.35298 0 6.66669 0H27.8383C29.6201 0 30.5124 2.15428 29.2525 3.41421L6.58305 26.0836C6.26223 26.4045 6.082 26.8396 6.082 27.2933C6.082 27.747 6.26223 28.1821 6.58305 28.503C6.90387 28.8238 7.33901 29.004 7.79273 29.004ZM17.2539 28.4109C17.7074 28.4109 18.1423 28.2308 18.463 27.9101L30.6059 15.7672C30.9265 15.4466 31.1067 15.0117 31.1067 14.5582C31.1067 14.1047 30.9265 13.6698 30.6059 13.3492C30.2852 13.0285 29.8503 12.8484 29.3968 12.8484C28.9433 12.8484 28.5084 13.0285 28.1878 13.3492L16.0449 25.4921C15.7242 25.8127 15.5441 26.2476 15.5441 26.7011C15.5441 27.1546 15.7242 27.5895 16.0449 27.9101C16.3655 28.2308 16.8004 28.4109 17.2539 28.4109Z" fill="url(#paint0_linear_2403_12732)"/>
<path d="M52.6667 13H65.2667V17.05H57.0167V20.05H65.2667V24.1H57.0167V27.2H65.2667V31.25H52.6667V13Z" fill="#000514"/>
<path d="M67.6278 17.75H71.8528V19.325C72.2862 18.7417 72.8028 18.2917 73.4028 17.975C74.0195 17.6417 74.7112 17.475 75.4778 17.475C76.9778 17.475 78.1695 17.9417 79.0528 18.875C79.9362 19.8083 80.3778 21.1083 80.3778 22.775V31.25H76.0528V23.625C76.0528 22.8417 75.8862 22.2417 75.5528 21.825C75.2195 21.3917 74.7028 21.175 74.0028 21.175C73.3862 21.175 72.8778 21.3917 72.4778 21.825C72.0778 22.2583 71.8778 22.925 71.8778 23.825V31.25H67.6278V17.75Z" fill="#000514"/>
<path d="M88.4931 31.375C87.7097 31.375 86.9431 31.2167 86.1931 30.9C85.4431 30.5833 84.7764 30.1333 84.1931 29.55C83.6097 28.95 83.1431 28.225 82.7931 27.375C82.4431 26.5083 82.2681 25.5333 82.2681 24.45C82.2681 23.3833 82.4431 22.4167 82.7931 21.55C83.1431 20.6833 83.6014 19.95 84.1681 19.35C84.7514 18.75 85.4181 18.2917 86.1681 17.975C86.9347 17.6417 87.7264 17.475 88.5431 17.475C89.4097 17.475 90.1597 17.6417 90.7931 17.975C91.4264 18.2917 91.9431 18.7333 92.3431 19.3V17.75H96.5431V30.325C96.5431 31.275 96.3764 32.1667 96.0431 33C95.7097 33.8333 95.2264 34.55 94.5931 35.15C93.9764 35.7667 93.2181 36.25 92.3181 36.6C91.4347 36.95 90.4347 37.125 89.3181 37.125C87.8514 37.125 86.6014 36.9167 85.5681 36.5C84.5347 36.1 83.6181 35.4667 82.8181 34.6L86.3181 31.95C86.7014 32.4 87.1014 32.7583 87.5181 33.025C87.9514 33.3083 88.5097 33.45 89.1931 33.45C90.0931 33.45 90.8347 33.1667 91.4181 32.6C92.0181 32.05 92.3181 31.325 92.3181 30.425V29.5C91.8847 30.1 91.3431 30.5667 90.6931 30.9C90.0597 31.2167 89.3264 31.375 88.4931 31.375ZM89.4931 27.475C89.9097 27.475 90.3014 27.4 90.6681 27.25C91.0514 27.0833 91.3764 26.8667 91.6431 26.6C91.9264 26.3167 92.1431 25.9917 92.2931 25.625C92.4597 25.2583 92.5431 24.8583 92.5431 24.425C92.5431 23.9917 92.4597 23.5917 92.2931 23.225C92.1431 22.8583 91.9264 22.5417 91.6431 22.275C91.3764 21.9917 91.0514 21.775 90.6681 21.625C90.3014 21.4583 89.9097 21.375 89.4931 21.375C89.0764 21.375 88.6764 21.4583 88.2931 21.625C87.9264 21.775 87.6014 21.9917 87.3181 22.275C87.0514 22.5417 86.8347 22.8583 86.6681 23.225C86.5181 23.5917 86.4431 23.9917 86.4431 24.425C86.4431 24.8583 86.5181 25.2583 86.6681 25.625C86.8347 25.9917 87.0514 26.3167 87.3181 26.6C87.6014 26.8667 87.9264 27.0833 88.2931 27.25C88.6764 27.4 89.0764 27.475 89.4931 27.475Z" fill="#000514"/>
<path d="M102.931 31.525C102.231 31.525 101.598 31.4333 101.031 31.25C100.465 31.0667 99.9813 30.8 99.5813 30.45C99.1813 30.1 98.873 29.675 98.6563 29.175C98.4397 28.675 98.3313 28.1083 98.3313 27.475C98.3313 26.775 98.473 26.1417 98.7563 25.575C99.0397 25.0083 99.448 24.5333 99.9813 24.15C100.515 23.75 101.156 23.4417 101.906 23.225C102.656 23.0083 103.498 22.9 104.431 22.9H107.531V22.8C107.531 22.2333 107.331 21.7833 106.931 21.45C106.548 21.1 105.981 20.925 105.231 20.925C104.598 20.925 104.073 21.0417 103.656 21.275C103.24 21.5083 102.915 21.8583 102.681 22.325L98.7063 20.55C99.423 19.6333 100.29 18.8917 101.306 18.325C102.34 17.7583 103.64 17.475 105.206 17.475C107.256 17.475 108.831 17.9583 109.931 18.925C111.031 19.875 111.581 21.2333 111.581 23V31.25H107.556V29.45C107.106 30.0833 106.481 30.5917 105.681 30.975C104.881 31.3417 103.965 31.525 102.931 31.525ZM104.356 28.2C104.706 28.2 105.048 28.15 105.381 28.05C105.731 27.9333 106.048 27.7833 106.331 27.6C106.631 27.4 106.89 27.175 107.106 26.925C107.323 26.6583 107.481 26.3833 107.581 26.1V25.825H105.006C104.206 25.825 103.631 25.95 103.281 26.2C102.931 26.4333 102.756 26.7417 102.756 27.125C102.756 27.8417 103.29 28.2 104.356 28.2Z" fill="#000514"/>
<path d="M119.694 31.375C118.911 31.375 118.144 31.2167 117.394 30.9C116.644 30.5833 115.978 30.1333 115.394 29.55C114.811 28.95 114.344 28.225 113.994 27.375C113.644 26.5083 113.469 25.5333 113.469 24.45C113.469 23.3833 113.644 22.4167 113.994 21.55C114.344 20.6833 114.803 19.95 115.369 19.35C115.953 18.75 116.619 18.2917 117.369 17.975C118.136 17.6417 118.928 17.475 119.744 17.475C120.611 17.475 121.361 17.6417 121.994 17.975C122.628 18.2917 123.144 18.7333 123.544 19.3V17.75H127.744V30.325C127.744 31.275 127.578 32.1667 127.244 33C126.911 33.8333 126.428 34.55 125.794 35.15C125.178 35.7667 124.419 36.25 123.519 36.6C122.636 36.95 121.636 37.125 120.519 37.125C119.053 37.125 117.803 36.9167 116.769 36.5C115.736 36.1 114.819 35.4667 114.019 34.6L117.519 31.95C117.903 32.4 118.303 32.7583 118.719 33.025C119.153 33.3083 119.711 33.45 120.394 33.45C121.294 33.45 122.036 33.1667 122.619 32.6C123.219 32.05 123.519 31.325 123.519 30.425V29.5C123.086 30.1 122.544 30.5667 121.894 30.9C121.261 31.2167 120.528 31.375 119.694 31.375ZM120.694 27.475C121.111 27.475 121.503 27.4 121.869 27.25C122.253 27.0833 122.578 26.8667 122.844 26.6C123.128 26.3167 123.344 25.9917 123.494 25.625C123.661 25.2583 123.744 24.8583 123.744 24.425C123.744 23.9917 123.661 23.5917 123.494 23.225C123.344 22.8583 123.128 22.5417 122.844 22.275C122.578 21.9917 122.253 21.775 121.869 21.625C121.503 21.4583 121.111 21.375 120.694 21.375C120.278 21.375 119.878 21.4583 119.494 21.625C119.128 21.775 118.803 21.9917 118.519 22.275C118.253 22.5417 118.036 22.8583 117.869 23.225C117.719 23.5917 117.644 23.9917 117.644 24.425C117.644 24.8583 117.719 25.2583 117.869 25.625C118.036 25.9917 118.253 26.3167 118.519 26.6C118.803 26.8667 119.128 27.0833 119.494 27.25C119.878 27.4 120.278 27.475 120.694 27.475Z" fill="#000514"/>
<path d="M136.83 31.5C135.73 31.5 134.738 31.325 133.855 30.975C132.971 30.6083 132.221 30.1083 131.605 29.475C131.005 28.8417 130.538 28.1 130.205 27.25C129.871 26.4 129.705 25.4833 129.705 24.5C129.705 23.5333 129.88 22.625 130.23 21.775C130.596 20.925 131.096 20.1833 131.73 19.55C132.363 18.9 133.113 18.3917 133.98 18.025C134.846 17.6583 135.788 17.475 136.805 17.475C137.838 17.475 138.78 17.65 139.63 18C140.496 18.35 141.238 18.8417 141.855 19.475C142.488 20.0917 142.971 20.825 143.305 21.675C143.655 22.5083 143.83 23.425 143.83 24.425V25.9H133.78C134.013 26.5833 134.396 27.1083 134.93 27.475C135.463 27.825 136.121 28 136.905 28C137.555 28 138.105 27.875 138.555 27.625C139.021 27.375 139.396 27.025 139.68 26.575L143.08 28.55C142.38 29.4833 141.538 30.2083 140.555 30.725C139.588 31.2417 138.346 31.5 136.83 31.5ZM136.83 20.975C136.146 20.975 135.555 21.1417 135.055 21.475C134.555 21.7917 134.171 22.2333 133.905 22.8H139.68C139.446 22.2 139.088 21.75 138.605 21.45C138.121 21.1333 137.53 20.975 136.83 20.975Z" fill="#000514"/>
<defs>
<linearGradient id="paint0_linear_2403_12732" x1="0.666686" y1="1" x2="51.6298" y2="36.4201" gradientUnits="userSpaceOnUse">
<stop stop-color="#9B1578"/>
<stop offset="1" stop-color="#F7257D"/>
<stop offset="1" stop-color="#F23980"/>
</linearGradient>
</defs>
</svg>
