<?xml version="1.0" encoding="UTF-8"?>
<svg xmlns="http://www.w3.org/2000/svg" width="16" height="14" viewBox="0 0 16 14" fill="none">
  <path d="M1.86126 1.14103L3.0352 1.92365C3.30423 2.11931 3.3776 2.48617 3.2064 2.7552C3.01074 3.02423 2.64388 3.0976 2.37486 2.90194L1.20091 2.11931C0.931884 1.94811 0.858512 1.58125 1.05417 1.31223C1.22537 1.0432 1.59223 0.969826 1.86126 1.14103ZM14.7746 2.11931L13.6007 2.90194C13.3317 3.0976 12.9648 3.02423 12.7936 2.7552C12.5979 2.48617 12.6713 2.11931 12.9403 1.92365L14.1143 1.14103C14.3833 0.969826 14.7502 1.0432 14.9458 1.31223C15.117 1.58125 15.0437 1.94811 14.7746 2.11931ZM0.760684 4.95634H2.32594C2.64388 4.95634 2.91291 5.22537 2.91291 5.54331C2.91291 5.88571 2.64388 6.13028 2.32594 6.13028H0.760684C0.418284 6.13028 0.173712 5.88571 0.173712 5.54331C0.173712 5.22537 0.418284 4.95634 0.760684 4.95634ZM13.6741 4.95634H15.2393C15.5573 4.95634 15.8263 5.22537 15.8263 5.54331C15.8263 5.88571 15.5573 6.13028 15.2393 6.13028H13.6741C13.3317 6.13028 13.0871 5.88571 13.0871 5.54331C13.0871 5.22537 13.3317 4.95634 13.6741 4.95634ZM3.0352 9.16297L1.86126 9.9456C1.59223 10.1413 1.22537 10.0679 1.05417 9.79886C0.858512 9.52983 0.931884 9.16297 1.20091 8.96731L2.37486 8.18468C2.64388 8.01348 3.01074 8.08686 3.2064 8.35588C3.3776 8.62491 3.30423 8.99177 3.0352 9.16297ZM13.6007 8.20914L14.7746 8.99177C15.0437 9.16297 15.117 9.52983 14.9458 9.79886C14.7502 10.0679 14.3833 10.1413 14.1143 9.97006L12.9403 9.18743C12.6713 8.99177 12.5979 8.62491 12.7936 8.35588C12.9648 8.08686 13.3317 8.01348 13.6007 8.20914ZM11.155 8.33143C10.6658 8.99177 10.1767 9.67657 9.95657 10.4347H6.04343C5.79886 9.67657 5.30971 8.99177 4.82057 8.33143C4.69828 8.16023 4.576 7.98903 4.45371 7.81783C3.96457 7.10857 3.69554 6.27703 3.69554 5.34766C3.69554 2.97531 5.6032 1.0432 8 1.0432C10.3723 1.0432 12.3045 2.97531 12.3045 5.34766C12.3045 6.27703 12.011 7.10857 11.5218 7.81783C11.3995 7.98903 11.2773 8.16023 11.155 8.33143ZM9.95657 11.6087C9.95657 12.7093 9.07611 13.5653 8 13.5653C6.89943 13.5653 6.04343 12.7093 6.04343 11.6087V11.2174H9.95657V11.6087ZM8 3.39108C8.19566 3.39108 8.39131 3.21988 8.39131 2.99977C8.39131 2.80411 8.19566 2.60845 8 2.60845C6.48366 2.60845 5.2608 3.85577 5.2608 5.34766C5.2608 5.56777 5.432 5.73897 5.65211 5.73897C5.84777 5.73897 6.04343 5.56777 6.04343 5.34766C6.04343 4.27154 6.89943 3.39108 8 3.39108Z" fill="#B2100B">
    </path>
</svg>
