<?xml version="1.0" encoding="UTF-8"?>
<svg xmlns="http://www.w3.org/2000/svg" width="16" height="13" viewBox="0 0 16 13" fill="none">
  <path d="M0 0.700006C0 0.367506 0.2675 0.100006 0.6 0.100006H1.7375C2.2875 0.100006 2.775 0.420006 3.0025 0.900006H13.2775C13.935 0.900006 14.415 1.52501 14.2425 2.16001L13.47 5.03001C13.1275 4.94501 12.7675 4.90001 12.4 4.90001C10.69 4.90001 9.2075 5.87501 8.48 7.30001H4.2675L4.4025 8.01251C4.4575 8.29501 4.705 8.50001 4.9925 8.50001H8.0725C8.025 8.76001 8 9.02751 8 9.30001C8 9.43501 8.005 9.56751 8.0175 9.70001H4.9925C4.1275 9.70001 3.385 9.08501 3.225 8.23751L1.935 1.46251C1.9175 1.36751 1.835 1.30001 1.7375 1.30001H0.6C0.2675 1.30001 0 1.03251 0 0.700006ZM3.2 11.7C3.2 11.5424 3.23104 11.3864 3.29134 11.2408C3.35165 11.0952 3.44004 10.9629 3.55147 10.8515C3.6629 10.74 3.79519 10.6517 3.94078 10.5914C4.08637 10.531 4.24241 10.5 4.4 10.5C4.55759 10.5 4.71363 10.531 4.85922 10.5914C5.00481 10.6517 5.1371 10.74 5.24853 10.8515C5.35996 10.9629 5.44835 11.0952 5.50866 11.2408C5.56896 11.3864 5.6 11.5424 5.6 11.7C5.6 11.8576 5.56896 12.0136 5.50866 12.1592C5.44835 12.3048 5.35996 12.4371 5.24853 12.5485C5.1371 12.66 5.00481 12.7484 4.85922 12.8087C4.71363 12.869 4.55759 12.9 4.4 12.9C4.24241 12.9 4.08637 12.869 3.94078 12.8087C3.79519 12.7484 3.6629 12.66 3.55147 12.5485C3.44004 12.4371 3.35165 12.3048 3.29134 12.1592C3.23104 12.0136 3.2 11.8576 3.2 11.7ZM8.8 9.30001C8.8 8.34523 9.17929 7.42955 9.85442 6.75442C10.5295 6.07929 11.4452 5.70001 12.4 5.70001C13.3548 5.70001 14.2705 6.07929 14.9456 6.75442C15.6207 7.42955 16 8.34523 16 9.30001C16 10.2548 15.6207 11.1705 14.9456 11.8456C14.2705 12.5207 13.3548 12.9 12.4 12.9C11.4452 12.9 10.5295 12.5207 9.85442 11.8456C9.17929 11.1705 8.8 10.2548 8.8 9.30001ZM13.5175 8.21751L12 9.73501L11.2825 9.01751C11.1275 8.86251 10.8725 8.86251 10.7175 9.01751C10.5625 9.17251 10.5625 9.42751 10.7175 9.58251L11.7175 10.5825C11.8725 10.7375 12.1275 10.7375 12.2825 10.5825L14.0825 8.78251C14.2375 8.62751 14.2375 8.37251 14.0825 8.21751C13.9275 8.06251 13.6725 8.06251 13.5175 8.21751Z" fill="#B2100B">
    </path>
</svg>
