<?xml version="1.0" encoding="UTF-8"?>
<svg xmlns="http://www.w3.org/2000/svg" width="16" height="18" viewBox="0 0 16 16" fill="none">
  <path d="M9.21875 6.71875L13.4375 2.5H12C11.5625 2.5 11.25 2.1875 11.25 1.75C11.25 1.34375 11.5625 1 12 1H15.25C15.6562 1 16 1.34375 16 1.75V5C16 5.4375 15.6562 5.75 15.25 5.75C14.8125 5.75 14.5 5.4375 14.5 5V3.5625L10.2812 7.78125C9.96875 8.09375 9.5 8.09375 9.21875 7.78125C8.90625 7.5 8.90625 7.03125 9.21875 6.75V6.71875ZM3.65625 1.0625C4.25 0.90625 4.90625 1.1875 5.125 1.78125L6.375 4.78125C6.59375 5.28125 6.46875 5.875 6.03125 6.21875L4.5 7.5C5.53125 9.6875 7.3125 11.4688 9.5 12.5L10.7812 10.9688C11.125 10.5312 11.7188 10.4062 12.2188 10.625L15.2188 11.875C15.7812 12.0938 16.0938 12.75 15.9375 13.3438L15.1875 16.0938C15.0312 16.625 14.5625 17 14 17C6.25 17 0 10.75 0 3C0 2.4375 0.375 1.96875 0.90625 1.8125L3.65625 1.0625Z" fill="#B2100B">
    </path>
</svg>
