<?xml version="1.0" encoding="UTF-8"?>
<svg xmlns="http://www.w3.org/2000/svg" width="16" height="15" viewBox="0 0 15 15" fill="none">
  <path d="M4.5 2H1.5V5H4.5V2ZM1.5 0.5H4.5C5.3125 0.5 6 1.1875 6 2V5C6 5.84375 5.3125 6.5 4.5 6.5H1.5C0.65625 6.5 0 5.84375 0 5V2C0 1.1875 0.65625 0.5 1.5 0.5ZM4.5 10H1.5V13H4.5V10ZM1.5 8.5H4.5C5.3125 8.5 6 9.1875 6 10V13C6 13.8438 5.3125 14.5 4.5 14.5H1.5C0.65625 14.5 0 13.8438 0 13V10C0 9.1875 0.65625 8.5 1.5 8.5ZM9.5 2V5H12.5V2H9.5ZM8 2C8 1.1875 8.65625 0.5 9.5 0.5H12.5C13.3125 0.5 14 1.1875 14 2V5C14 5.84375 13.3125 6.5 12.5 6.5H9.5C8.65625 6.5 8 5.84375 8 5V2ZM11 8C11.4062 8 11.75 8.34375 11.75 8.75V10.75H13.75C14.1562 10.75 14.5 11.0938 14.5 11.5C14.5 11.9375 14.1562 12.25 13.75 12.25H11.75V14.25C11.75 14.6875 11.4062 15 11 15C10.5625 15 10.25 14.6875 10.25 14.25V12.25H8.25C7.8125 12.25 7.5 11.9375 7.5 11.5C7.5 11.0938 7.8125 10.75 8.25 10.75H10.25V8.75C10.25 8.34375 10.5625 8 11 8Z" fill="#B2100B">
    </path>
</svg>
