<?xml version="1.0" encoding="UTF-8"?>
<svg xmlns="http://www.w3.org/2000/svg" width="16" height="15" viewBox="0 0 17 15" fill="none">
  <path d="M6.22222 3.44444C6.22222 3.55556 6.27778 3.61111 6.38889 3.61111C6.41667 3.61111 6.44444 3.61111 6.47222 3.61111L7.77778 2.86111C7.88889 2.77778 8.08333 2.77778 8.19444 2.86111L9.5 3.61111C9.52778 3.61111 9.55556 3.61111 9.58333 3.61111C9.69444 3.61111 9.75 3.55556 9.75 3.44444V0.0555555H11.9722C12.7222 0.0555555 13.3056 0.666667 13.3056 1.38889V5.83333C13.3056 6.58333 12.7222 7.16667 11.9722 7.16667H4C3.25 7.16667 2.66667 6.58333 2.66667 5.83333V1.38889C2.66667 0.666667 3.25 0.0555555 4 0.0555555H6.22222V3.44444ZM15.7778 9.41667C16.1389 9.91667 16.0278 10.6111 15.5278 10.9722L12.0278 13.5556C11.3611 14.0278 10.5833 14.2778 9.77778 14.2778H5.33333H0.888889C0.388889 14.2778 0 13.8889 0 13.3889V11.6111C0 11.1389 0.388889 10.7222 0.888889 10.7222H1.88889L3.13889 9.72222C3.77778 9.22222 4.55556 8.94444 5.36111 8.94444H7.55556H8H9.77778C10.25 8.94444 10.6667 9.36111 10.6667 9.83333C10.6667 10.3333 10.25 10.7222 9.77778 10.7222H8H7.55556C7.30556 10.7222 7.11111 10.9444 7.11111 11.1667C7.11111 11.4167 7.30556 11.6111 7.55556 11.6111H10.8889L14.2222 9.16667C14.7222 8.80556 15.4167 8.91667 15.7778 9.41667ZM5.36111 10.7222H5.33333C5.36111 10.7222 5.36111 10.7222 5.36111 10.7222Z" fill="#B2100B">
    </path>
</svg>
