<?xml version="1.0" encoding="UTF-8"?>
<svg xmlns="http://www.w3.org/2000/svg" width="16" height="16" viewBox="0 0 16 16" fill="none">
  <path d="M0 3C0 1.90625 0.875 1 2 1H14C15.0938 1 16 1.90625 16 3V5V6.5V7V13C16 14.125 15.0938 15 14 15H2C0.875 15 0 14.125 0 13V7V6.5V5V3ZM14.5 7H1.5V13C1.5 13.2812 1.71875 13.5 2 13.5H14C14.25 13.5 14.5 13.2812 14.5 13V7ZM3 5C3.53125 5 4 4.5625 4 4C4 3.46875 3.53125 3 3 3C2.4375 3 2 3.46875 2 4C2 4.5625 2.4375 5 3 5ZM7 4C7 3.46875 6.53125 3 6 3C5.4375 3 5 3.46875 5 4C5 4.5625 5.4375 5 6 5C6.53125 5 7 4.5625 7 4ZM9 5C9.53125 5 10 4.5625 10 4C10 3.46875 9.53125 3 9 3C8.4375 3 8 3.46875 8 4C8 4.5625 8.4375 5 9 5Z" fill="#B2100B">
    </path>
</svg>
