<?xml version="1.0" encoding="UTF-8"?>
<svg xmlns="http://www.w3.org/2000/svg" width="16" height="14" viewBox="0 0 16 14" fill="none">
  <path d="M7.2 0.8H8C8.425 0.8 8.8 1.175 8.8 1.6C8.8 2.05 8.425 2.4 8 2.4V5.725C8 6.025 8.075 6.325 8.225 6.575L8.4 6.825C8.275 7 8.15 7.175 8.05 7.35C7.875 7.65 7.75 7.95 7.65 8.275C7.6 8.375 7.6 8.475 7.6 8.575L6.875 7.4C6.55 6.9 6.4 6.325 6.4 5.725V2.4H4.8V5.725C4.8 6.325 4.625 6.9 4.325 7.4L2.95 9.6H8.125L8.15 9.625C7.725 9.875 7.475 10.4 7.65 10.95C7.75 11.275 7.875 11.575 8.05 11.9C8.225 12.2 8.425 12.475 8.65 12.725C9.05 13.125 9.65 13.175 10.1 12.925V12.95C10.1 13.125 10.125 13.3 10.2 13.45C9.975 13.55 9.725 13.6 9.45 13.6H1.725C0.775 13.6 0 12.825 0 11.875C0 11.55 0.075 11.25 0.25 10.975L2.95 6.575C3.1 6.325 3.2 6.025 3.2 5.725V2.4C2.75 2.4 2.4 2.05 2.4 1.6C2.4 1.175 2.75 0.8 3.2 0.8H4H7.2ZM10.9 6.275H10.875C10.875 6.1 11 5.925 11.175 5.9C11.425 5.825 11.7 5.8 11.975 5.8C12.275 5.8 12.55 5.825 12.8 5.9C12.975 5.925 13.075 6.1 13.075 6.275V6.7C13.075 6.9 13.2 7.075 13.375 7.175C13.55 7.275 13.75 7.275 13.925 7.175L14.275 7C14.425 6.9 14.6 6.925 14.725 7.05C14.925 7.25 15.1 7.475 15.225 7.725C15.375 7.975 15.475 8.25 15.575 8.5C15.625 8.675 15.55 8.85 15.4 8.925L15.025 9.15C14.875 9.225 14.775 9.425 14.775 9.6C14.775 9.8 14.875 9.975 15.025 10.05L15.4 10.275C15.55 10.35 15.625 10.525 15.575 10.7C15.5 10.975 15.375 11.225 15.225 11.475C15.075 11.725 14.925 11.95 14.725 12.15C14.6 12.275 14.425 12.3 14.275 12.225L13.925 12.025C13.75 11.925 13.55 11.925 13.375 12.025C13.2 12.125 13.075 12.3 13.075 12.5V12.95C13.075 13.125 12.975 13.275 12.8 13.325C12.55 13.375 12.275 13.4 11.975 13.4C11.7 13.4 11.425 13.375 11.175 13.325C11 13.275 10.875 13.125 10.875 12.95V12.5C10.875 12.325 10.775 12.125 10.6 12.05C10.425 11.95 10.225 11.925 10.05 12.025L9.7 12.225C9.55 12.3 9.375 12.275 9.25 12.15C9.05 11.95 8.875 11.725 8.75 11.475C8.6 11.225 8.475 10.975 8.4 10.7C8.35 10.525 8.425 10.35 8.575 10.275L8.925 10.075C9.1 9.975 9.175 9.8 9.175 9.6C9.175 9.425 9.1 9.225 8.925 9.15L8.575 8.95C8.425 8.85 8.35 8.675 8.4 8.5C8.475 8.25 8.6 7.975 8.75 7.725C8.875 7.475 9.05 7.25 9.25 7.05C9.375 6.925 9.55 6.9 9.7 7L10.05 7.2C10.225 7.275 10.425 7.275 10.6 7.175C10.775 7.075 10.9 6.9 10.9 6.7V6.275ZM10.775 9.6C10.775 10.05 11 10.475 11.375 10.7C11.75 10.925 12.225 10.925 12.6 10.7C12.975 10.475 13.2 10.05 13.2 9.6C13.2 9.175 12.975 8.75 12.6 8.525C12.225 8.3 11.75 8.3 11.375 8.525C11 8.75 10.775 9.175 10.775 9.6Z" fill="#B2100B">
    </path>
</svg>
