<?xml version="1.0" encoding="UTF-8"?>
<svg xmlns="http://www.w3.org/2000/svg" width="16" height="17" viewBox="0 0 17 17" fill="none">
  <path d="M14 4.5C13.2812 4.5 12.625 4.125 12.25 3.5C11.9062 2.90625 11.9062 2.125 12.25 1.5C12.625 0.90625 13.2812 0.5 14 0.5C14.6875 0.5 15.3438 0.90625 15.7188 1.5C16.0625 2.125 16.0625 2.90625 15.7188 3.5C15.3438 4.125 14.6875 4.5 14 4.5ZM4 1.5H8V1.0625C8 0.75 8.25 0.5 8.53125 0.5C8.65625 0.5 8.78125 0.5625 8.875 0.625L10.7812 2.125C10.9062 2.21875 11 2.34375 11 2.5C11 2.65625 10.9062 2.8125 10.7812 2.90625L8.875 4.40625C8.78125 4.46875 8.65625 4.5 8.53125 4.5C8.25 4.5 8 4.25 8 3.96875V3.5H4C2.875 3.5 2 4.40625 2 5.5C2 6.625 2.875 7.5 4 7.5H12C14.1875 7.5 16 9.3125 16 11.5C16 13.4688 14.5938 15.0938 12.75 15.4375C12.4375 16.0625 11.75 16.5 11 16.5C9.875 16.5 9 15.625 9 14.5C9 13.4062 9.875 12.5 11 12.5C11.6875 12.5 12.2812 12.875 12.6562 13.4062C13.4375 13.125 14 12.375 14 11.5C14 10.4062 13.0938 9.5 12 9.5H4C1.78125 9.5 0 7.71875 0 5.5C0 3.3125 1.78125 1.5 4 1.5ZM3.71875 13.5H5V13.0625C5 12.75 5.25 12.5 5.53125 12.5C5.65625 12.5 5.78125 12.5625 5.875 12.625L7.78125 14.125C7.90625 14.2188 8 14.3438 8 14.5C8 14.6562 7.90625 14.8125 7.78125 14.9062L5.875 16.4062C5.78125 16.4688 5.65625 16.5 5.53125 16.5C5.25 16.5 5 16.25 5 15.9688V15.5H3.71875C3.375 16.125 2.71875 16.5 2 16.5C0.875 16.5 0 15.625 0 14.5C0 13.4062 0.875 12.5 2 12.5C2.71875 12.5 3.375 12.9062 3.71875 13.5Z" fill="#B2100B">
    </path>
</svg>
