<?xml version="1.0" encoding="UTF-8"?>
<svg xmlns="http://www.w3.org/2000/svg" width="16" height="16" viewBox="0 0 16 16" fill="none">
  <path d="M2.68945 3.73315C2.68945 3.08984 3.36432 2.66969 3.94158 2.95361L9.80537 5.83761C10.1025 5.98374 10.2907 6.28605 10.2907 6.61715V14.2076C10.2907 14.8794 9.56074 15.297 8.98162 14.9564L3.11784 11.5084C2.85243 11.3523 2.68945 11.0675 2.68945 10.7596V3.73315Z" fill="#790401">
    </path>
  <path d="M8.39594 0.155598C8.15639 0.0253249 7.86957 0.0150922 7.62134 0.127963L2.08531 2.64527C1.41709 2.94912 1.40357 3.89345 2.06282 4.2163L7.52888 6.89319C7.82672 7.03904 8.01553 7.34175 8.01553 7.67339V15.18C8.01553 15.8529 8.74755 16.2703 9.32664 15.9276L13.8833 13.2312C14.1475 13.0749 14.3096 12.7906 14.3096 12.4836V3.88804C14.3096 3.56973 14.1355 3.27692 13.8559 3.12485L8.39594 0.155598Z" fill="#EA1B15">
    </path>
</svg>
