<?xml version="1.0" encoding="UTF-8"?>
<svg xmlns="http://www.w3.org/2000/svg" width="16" height="16" viewBox="0 0 16 16" fill="none">
  <path d="M14.148 0.664834C14.8248 0.668519 15.1501 1.49641 14.6567 1.95953L9.23025 7.05283C8.86131 7.39912 8.26212 7.28764 8.04252 6.83186L5.56786 1.69554C5.334 1.21016 5.12075 0.736692 5.88621 0.582232C5.92947 0.573504 5.97397 0.570447 6.01809 0.570956L14.148 0.664834Z" fill="#790401"></path>
  <path d="M1.35184 14.275C0.773051 14.8242 1.34026 15.7768 2.09922 15.5302L12.0778 12.2876C12.5365 12.1385 12.7368 11.6014 12.4877 11.1887L10.0984 7.22942C9.85119 6.81975 9.28829 6.74373 8.94117 7.07313L1.35184 14.275Z" fill="#790401"></path>
  <path d="M11.4827 12.2086C12.1475 12.6172 12.9162 11.8642 12.521 11.1915L6.49862 0.939866C6.23315 0.487965 5.59734 0.441402 5.26882 0.849804L1.74231 5.23375C1.45963 5.58516 1.5495 6.10476 1.9338 6.34091L11.4827 12.2086Z" fill="#EA1B15"></path>
</svg>
