<?xml version="1.0" encoding="UTF-8"?>
<svg xmlns="http://www.w3.org/2000/svg" width="16" height="16" viewBox="0 0 17 16" fill="none">
  <path d="M5.75 1.21875C6.0625 1.5 6.0625 1.96875 5.78125 2.28125L3.53125 4.78125C3.40625 4.90625 3.21875 5 3 5C2.8125 5.03125 2.59375 4.9375 2.46875 4.78125L1.21875 3.53125C0.90625 3.25 0.90625 2.78125 1.21875 2.46875C1.5 2.1875 1.96875 2.1875 2.25 2.46875L2.96875 3.1875L4.6875 1.25C4.96875 0.9375 5.4375 0.9375 5.75 1.21875ZM5.75 6.21875C6.0625 6.5 6.0625 6.96875 5.78125 7.28125L3.53125 9.78125C3.40625 9.90625 3.21875 10 3 10C2.8125 10.0312 2.59375 9.9375 2.46875 9.78125L1.21875 8.53125C0.90625 8.25 0.90625 7.78125 1.21875 7.5C1.5 7.1875 1.96875 7.1875 2.25 7.5L2.96875 8.1875L4.6875 6.25C4.96875 5.96875 5.4375 5.9375 5.75 6.21875ZM8 3C8 2.46875 8.4375 2 9 2H16C16.5312 2 17 2.46875 17 3C17 3.5625 16.5312 4 16 4H9C8.4375 4 8 3.5625 8 3ZM8 8C8 7.46875 8.4375 7 9 7H16C16.5312 7 17 7.46875 17 8C17 8.5625 16.5312 9 16 9H9C8.4375 9 8 8.5625 8 8ZM6 13C6 12.4688 6.4375 12 7 12H16C16.5312 12 17 12.4688 17 13C17 13.5625 16.5312 14 16 14H7C6.4375 14 6 13.5625 6 13ZM2.5 11.5C3.03125 11.5 3.5 11.8125 3.78125 12.25C4.0625 12.7188 4.0625 13.3125 3.78125 13.75C3.5 14.2188 3.03125 14.5 2.5 14.5C1.9375 14.5 1.46875 14.2188 1.1875 13.75C0.90625 13.3125 0.90625 12.7188 1.1875 12.25C1.46875 11.8125 1.9375 11.5 2.5 11.5Z" fill="#B2100B">
    </path>
</svg>
