<?xml version="1.0" encoding="UTF-8"?>
<svg xmlns="http://www.w3.org/2000/svg" width="16" height="16" viewBox="0 0 16 16" fill="none">
  <path d="M5.03982 13.9154C4.50022 13.9154 4.05864 13.4772 4.10264 12.9394C4.20388 11.702 4.49721 10.4858 4.97385 9.33515C5.57533 7.88305 6.45694 6.56363 7.56834 5.45223C8.67974 4.34084 9.99917 3.45923 11.4513 2.85775C12.602 2.38112 13.8181 2.08779 15.0556 1.98655C15.5934 1.94255 16.0315 2.38412 16.0315 2.92373V12.9383C16.0315 13.4779 15.5941 13.9154 15.0545 13.9154H5.03982Z" fill="#790401"></path>
  <path d="M11.023 13.9154C11.5626 13.9154 12.0041 13.4772 11.9601 12.9394C11.8589 11.702 11.5656 10.4858 11.0889 9.33515C10.4874 7.88305 9.60583 6.56363 8.49443 5.45223C7.38303 4.34084 6.0636 3.45923 4.61149 2.85775C3.46079 2.38112 2.24463 2.08779 1.00722 1.98655C0.46941 1.94255 0.03125 2.38412 0.03125 2.92373L0.0312504 12.9383C0.0312505 13.4779 0.468686 13.9154 1.00829 13.9154H11.023Z" fill="#EA1B15"></path>
</svg>
