<?xml version="1.0" encoding="UTF-8"?>
<svg xmlns="http://www.w3.org/2000/svg" width="16" height="16" viewBox="0 0 16 16" fill="none">
  <path d="M15.3761 15.4089C15.7936 15.4089 16.1358 15.0697 16.0965 14.654C15.9216 12.8007 15.1068 11.0565 13.7794 9.72912C12.273 8.22274 10.23 7.37647 8.09961 7.37646C5.96927 7.37646 3.92618 8.22274 2.4198 9.72912C1.09241 11.0565 0.277575 12.8007 0.102678 14.654C0.0634515 15.0697 0.405618 15.4089 0.823143 15.4089L15.3761 15.4089Z" fill="#790401">
    </path>
  <path d="M4.05939 8.53815C2.65468 6.71784 2.65468 4.17907 4.05939 2.35877C6.08393 -0.264771 10.0425 -0.264771 12.067 2.35877C13.4717 4.17907 13.4717 6.71785 12.067 8.53815L8.55801 13.0853C8.3078 13.4096 7.81859 13.4096 7.56838 13.0853L4.05939 8.53815Z" fill="#EA1B15">
    </path>
</svg>
