<?xml version="1.0" encoding="UTF-8"?>
<svg xmlns="http://www.w3.org/2000/svg" width="16" height="16" viewBox="0 0 16 16" fill="none">
  <path d="M2.4 4.5C2.4 3.375 3 2.325 4 1.75C4.975 1.175 6.2 1.175 7.2 1.75C8.175 2.325 8.8 3.375 8.8 4.5C8.8 5.65 8.175 6.7 7.2 7.275C6.2 7.85 4.975 7.85 4 7.275C3 6.7 2.4 5.65 2.4 4.5ZM0 13.375C0 10.9 1.975 8.9 4.45 8.9H6.725C9.2 8.9 11.2 10.9 11.2 13.375C11.2 13.775 10.85 14.1 10.45 14.1H0.725C0.325 14.1 0 13.775 0 13.375ZM15.625 5.725L12.425 8.925C12.175 9.175 11.8 9.175 11.575 8.925L9.975 7.325C9.725 7.1 9.725 6.725 9.975 6.5C10.2 6.25 10.575 6.25 10.825 6.5L12 7.675L14.775 4.875C15 4.65 15.375 4.65 15.6 4.875C15.85 5.125 15.85 5.5 15.6 5.725H15.625Z" fill="#B2100B">
    </path>
</svg>
