<?xml version="1.0" encoding="UTF-8"?>
<svg xmlns="http://www.w3.org/2000/svg" width="16" height="13" viewBox="0 0 16 13" fill="none">
  <path d="M9.60078 11.5339C9.55327 11.8618 9.27225 12.105 8.94098 12.105H5.75592C5.34966 12.105 5.03786 11.7447 5.09612 11.3427L6.52158 1.50702C6.5691 1.17918 6.85012 0.935953 7.18138 0.935953H10.3664C10.7727 0.935953 11.0845 1.29621 11.0262 1.69826L9.60078 11.5339Z" fill="#790401">
    </path>
  <path d="M15.207 7.29655C16.1268 8.65326 15.1549 10.4863 13.5158 10.4863C12.8383 10.4863 12.2048 10.1505 11.8246 9.58968L6.643 1.94682C6.35152 1.51688 6.6595 0.935999 7.17893 0.935999H10.6434C10.8006 0.935999 10.9476 1.01391 11.0358 1.14401L15.207 7.29655Z" fill="#EA1B15">
    </path>
  <path d="M0.918076 5.74443C-0.00172997 4.38772 0.970146 2.55465 2.60926 2.55465C3.28679 2.55465 3.92025 2.89051 4.30045 3.4513L9.48207 11.0942C9.77355 11.5241 9.46557 12.105 8.94614 12.105H5.48163C5.32446 12.105 5.1775 12.0271 5.0893 11.897L0.918076 5.74443Z" fill="#EA1B15">
    </path>
</svg>
