<?xml version="1.0" encoding="UTF-8"?>
<svg xmlns="http://www.w3.org/2000/svg" width="16" height="17" viewBox="0 0 16 17" fill="none">
  <path d="M0 2C0 0.90625 0.875 0 2 0H14C15.0938 0 16 0.90625 16 2V11C16 12.125 15.0938 13 14 13H9.65625L5.78125 15.9062C5.625 16.0312 5.4375 16.0312 5.25 15.9688C5.09375 15.875 5 15.7188 5 15.5V13H2C0.875 13 0 12.125 0 11V2ZM4 7.5C4.53125 7.5 5 7.0625 5 6.5C5 5.96875 4.53125 5.5 4 5.5C3.4375 5.5 3 5.96875 3 6.5C3 7.0625 3.4375 7.5 4 7.5ZM8 7.5C8.53125 7.5 9 7.0625 9 6.5C9 5.96875 8.53125 5.5 8 5.5C7.4375 5.5 7 5.96875 7 6.5C7 7.0625 7.4375 7.5 8 7.5ZM13 6.5C13 5.96875 12.5312 5.5 12 5.5C11.4375 5.5 11 5.96875 11 6.5C11 7.0625 11.4375 7.5 12 7.5C12.5312 7.5 13 7.0625 13 6.5Z" fill="#B2100B">
    </path>
</svg>
