<?xml version="1.0" encoding="UTF-8"?>
<svg xmlns="http://www.w3.org/2000/svg" width="16" height="16" viewBox="0 0 16 16" fill="none">
  <path d="M7.5 1.75V4H6.40625C6.1875 3.4375 5.625 3 5 3C4.15625 3 3.5 3.6875 3.5 4.5C3.5 5.34375 4.15625 6 5 6C5.625 6 6.1875 5.59375 6.40625 5H7.5V7.5H6C5.15625 7.5 4.5 8.1875 4.5 9V10.0938C3.90625 10.3125 3.5 10.875 3.5 11.5C3.5 12.3438 4.15625 13 5 13C5.8125 13 6.5 12.3438 6.5 11.5C6.5 10.875 6.0625 10.3125 5.5 10.0938V9C5.5 8.75 5.71875 8.5 6 8.5H7.5V14.25C7.5 15.2188 6.6875 16 5.75 16C4.84375 16 4.09375 15.3438 4 14.4375C3.84375 14.5 3.65625 14.5 3.5 14.5C2.375 14.5 1.5 13.625 1.5 12.5C1.5 12.2812 1.53125 12.0625 1.59375 11.8438C0.65625 11.5 0 10.5938 0 9.5C0 8.53125 0.5625 7.65625 1.40625 7.25C1.15625 6.90625 1 6.46875 1 6C1 5.0625 1.65625 4.25 2.5625 4.0625C2.5 3.875 2.5 3.6875 2.5 3.5C2.5 2.59375 3.125 1.78125 4 1.5625C4.09375 0.6875 4.84375 0 5.75 0C6.6875 0 7.5 0.8125 7.5 1.75ZM8.5 5H10C10.25 5 10.5 5.25 10.5 5.5V5.59375C9.90625 5.8125 9.5 6.375 9.5 7C9.5 7.84375 10.1562 8.5 11 8.5C11.8125 8.5 12.5 7.84375 12.5 7C12.5 6.375 12.0625 5.8125 11.5 5.59375V5.5C11.5 4.6875 10.8125 4 10 4H8.5V1.75C8.5 0.8125 9.28125 0 10.25 0C11.125 0 11.875 0.6875 11.9688 1.5625C12.8438 1.78125 13.5 2.59375 13.5 3.5C13.5 3.6875 13.4688 3.875 13.4062 4.0625C14.3125 4.25 15 5.0625 15 6C15 6.46875 14.8125 6.90625 14.5625 7.25C15.4062 7.65625 16 8.53125 16 9.5C16 10.5938 15.3125 11.5 14.375 11.8438C14.4375 12.0625 14.5 12.2812 14.5 12.5C14.5 13.625 13.5938 14.5 12.5 14.5C12.3125 14.5 12.125 14.5 11.9688 14.4375C11.875 15.3438 11.125 16 10.25 16C9.28125 16 8.5 15.2188 8.5 14.25V12H9.5625C9.78125 12.5938 10.3438 13 11 13C11.8125 13 12.5 12.3438 12.5 11.5C12.5 10.6875 11.8125 10 11 10C10.3438 10 9.78125 10.4375 9.5625 11H8.5V5ZM4.5 4.5C4.5 4.25 4.71875 4 5 4C5.25 4 5.5 4.25 5.5 4.5C5.5 4.78125 5.25 5 5 5C4.71875 5 4.5 4.78125 4.5 4.5ZM11 6.5C11.25 6.5 11.5 6.75 11.5 7C11.5 7.28125 11.25 7.5 11 7.5C10.7188 7.5 10.5 7.28125 10.5 7C10.5 6.75 10.7188 6.5 11 6.5ZM4.5 11.5C4.5 11.25 4.71875 11 5 11C5.25 11 5.5 11.25 5.5 11.5C5.5 11.7812 5.25 12 5 12C4.71875 12 4.5 11.7812 4.5 11.5ZM10.5 11.5C10.5 11.25 10.7188 11 11 11C11.25 11 11.5 11.25 11.5 11.5C11.5 11.7812 11.25 12 11 12C10.7188 12 10.5 11.7812 10.5 11.5Z" fill="#B2100B">
    </path>
</svg>
