<?xml version="1.0" encoding="UTF-8"?>
<svg xmlns="http://www.w3.org/2000/svg" width="16" height="13" viewBox="0 0 16 13" fill="none">
  <path d="M1.20073 0C0.53661 0 0 0.544813 0 1.21909V11.7782C0 12.4498 0.53661 12.9973 1.20073 12.9973H3.60219V10.9664C3.60219 10.2948 4.1388 9.7473 4.80292 9.7473C5.46704 9.7473 6.00365 10.2921 6.00365 10.9664V12.9973H8.40511C9.04533 12.9973 9.56865 12.4876 9.60319 11.8456C8.1926 11.2172 7.20438 9.78776 7.20438 8.12365C7.20438 7.84585 7.23095 7.57344 7.28408 7.31183H6.8006C6.58011 7.31183 6.39947 7.13112 6.39947 6.90456V6.09274C6.39947 5.86888 6.57745 5.68548 6.8006 5.68548H7.6002C7.71974 5.68548 7.82866 5.73942 7.90038 5.82573C8.32276 5.2027 8.90985 4.70643 9.60053 4.39896V1.21909C9.60053 0.544813 9.06392 0 8.3998 0H1.20073ZM1.60186 6.09274C1.60186 5.86888 1.77984 5.68548 2.00299 5.68548H2.80259C3.02308 5.68548 3.20372 5.86618 3.20372 6.09274V6.90456C3.20372 7.12842 3.02573 7.31183 2.80259 7.31183H2.00033C1.77984 7.31183 1.5992 7.13112 1.5992 6.90456V6.09274H1.60186ZM4.40179 5.68548H5.20139C5.42188 5.68548 5.60252 5.86618 5.60252 6.09274V6.90456C5.60252 7.12842 5.42454 7.31183 5.20139 7.31183H4.40179C4.1813 7.31183 4.00066 7.13112 4.00066 6.90456V6.09274C4.00066 5.86888 4.17865 5.68548 4.40179 5.68548ZM2.00033 2.43817H2.79993C3.02042 2.43817 3.20106 2.61888 3.20106 2.84544V3.65726C3.20106 3.88112 3.02308 4.06452 2.79993 4.06452H2.00033C1.77984 4.06452 1.5992 3.88382 1.5992 3.65726V2.84274C1.5992 2.61888 1.77719 2.43548 2.00033 2.43548V2.43817ZM4.00066 2.84544C4.00066 2.62158 4.17865 2.43817 4.40179 2.43817H5.20139C5.42188 2.43817 5.60252 2.61888 5.60252 2.84544V3.65726C5.60252 3.88112 5.42454 4.06452 5.20139 4.06452H4.40179C4.1813 4.06452 4.00066 3.88382 4.00066 3.65726V2.84274V2.84544ZM6.8006 2.43817H7.6002C7.82069 2.43817 8.00133 2.61888 8.00133 2.84544V3.65726C8.00133 3.88112 7.82334 4.06452 7.6002 4.06452H6.8006C6.58011 4.06452 6.39947 3.88382 6.39947 3.65726V2.84274C6.39947 2.61888 6.57745 2.43548 6.8006 2.43548V2.43817ZM11.2024 6.09544C11.7329 6.09544 12.2417 6.30941 12.6168 6.69028C12.992 7.07115 13.2027 7.58772 13.2027 8.12635C13.2027 8.66498 12.992 9.18155 12.6168 9.56242C12.2417 9.94329 11.7329 10.1573 11.2024 10.1573C10.6719 10.1573 10.1631 9.94329 9.78794 9.56242C9.41281 9.18155 9.20206 8.66498 9.20206 8.12635C9.20206 7.58772 9.41281 7.07115 9.78794 6.69028C10.1631 6.30941 10.6719 6.09544 11.2024 6.09544ZM11.2024 11.3763C11.8692 11.3763 12.4881 11.1687 13.0008 10.8154L14.9773 12.822C15.211 13.0593 15.5909 13.0593 15.8247 12.822C16.0584 12.5846 16.0584 12.199 15.8247 11.9616L13.8482 9.95228C14.1962 9.43174 14.4008 8.80332 14.4008 8.12635C14.4008 6.33278 12.969 4.87635 11.1997 4.87635C9.43052 4.87635 7.99867 6.33008 7.99867 8.12635C7.99867 9.92261 9.43052 11.3763 11.1997 11.3763H11.2024Z" fill="#B2100B">
    </path>
</svg>
