<?xml version="1.0" encoding="UTF-8"?>
<svg xmlns="http://www.w3.org/2000/svg" width="16" height="16" viewBox="0 0 16 16" fill="none">
  <path d="M0 2.33333C0 1.36111 0.777778 0.555555 1.77778 0.555555H14.2222C15.1944 0.555555 16 1.36111 16 2.33333V10.3333C16 11.3333 15.1944 12.1111 14.2222 12.1111H9.33333L9.61111 13H11.5556C12.0278 13 12.4444 13.4167 12.4444 13.8889C12.4444 14.3889 12.0278 14.7778 11.5556 14.7778H4.44444C3.94444 14.7778 3.55556 14.3889 3.55556 13.8889C3.55556 13.4167 3.94444 13 4.44444 13H6.36111L6.66667 12.1111H1.77778C0.777778 12.1111 0 11.3333 0 10.3333V2.33333ZM1.77778 2.33333V10.3333H14.2222V2.33333H1.77778ZM10.4444 3.22222H12.6667C13.0278 3.22222 13.3333 3.52778 13.3333 3.88889V6.11111C13.3333 6.5 13.0278 6.77778 12.6667 6.77778C12.2778 6.77778 12 6.5 12 6.11111V5.5L8.91667 8.58333C8.77778 8.72222 8.61111 8.77778 8.44444 8.77778C8.25 8.77778 8.08333 8.72222 7.97222 8.58333L6.22222 6.83333L3.80556 9.25C3.52778 9.52778 3.11111 9.52778 2.86111 9.25C2.58333 9 2.58333 8.58333 2.86111 8.33333L5.75 5.41667C6 5.16667 6.41667 5.16667 6.66667 5.41667L8.41667 7.16667L11.0556 4.55556H10.4444C10.0556 4.55556 9.77778 4.27778 9.77778 3.88889C9.77778 3.52778 10.0556 3.22222 10.4444 3.22222Z" fill="#B2100B">
    </path>
</svg>
