<?xml version="1.0" encoding="UTF-8"?>
<svg xmlns="http://www.w3.org/2000/svg" width="16" height="17" viewBox="0 0 16 17" fill="none">
  <path d="M7.33333 1.22222C7.75 1.02778 8.22222 1.02778 8.63889 1.22222L14.7222 4.02778C14.9444 4.13889 15.1111 4.36111 15.1111 4.61111C15.1111 4.88889 14.9444 5.11111 14.7222 5.22222L8.63889 8.02778C8.22222 8.22222 7.75 8.22222 7.33333 8.02778L1.25 5.22222C1.02778 5.11111 0.888889 4.88889 0.888889 4.61111C0.888889 4.36111 1.02778 4.13889 1.25 4.02778L7.33333 1.22222ZM13.2222 6.88889L14.7222 7.58333C14.9444 7.69444 15.1111 7.91667 15.1111 8.16667C15.1111 8.44444 14.9444 8.66667 14.7222 8.77778L8.63889 11.5833C8.22222 11.7778 7.75 11.7778 7.33333 11.5833L1.25 8.77778C1.02778 8.66667 0.888889 8.44444 0.888889 8.16667C0.888889 7.91667 1.02778 7.69444 1.25 7.58333L2.75 6.88889L6.97222 8.83333C7.61111 9.13889 8.36111 9.13889 9 8.83333L13.2222 6.88889ZM9 12.3889L13.2222 10.4444L14.7222 11.1389C14.9444 11.25 15.1111 11.4722 15.1111 11.7222C15.1111 12 14.9444 12.2222 14.7222 12.3333L8.63889 15.1389C8.22222 15.3333 7.75 15.3333 7.33333 15.1389L1.25 12.3333C1.02778 12.2222 0.888889 12 0.888889 11.7222C0.888889 11.4722 1.02778 11.25 1.25 11.1389L2.75 10.4444L6.97222 12.3889C7.61111 12.6944 8.36111 12.6944 9 12.3889Z" fill="#B2100B">
    </path>
</svg>
