<?xml version="1.0" encoding="UTF-8"?>
<svg xmlns="http://www.w3.org/2000/svg" width="16" height="17" viewBox="0 0 17 17" fill="none">
  <path d="M13 6.5C13 7.9375 12.5312 9.28125 11.75 10.3438L15.6875 14.3125C16.0938 14.6875 16.0938 15.3438 15.6875 15.7188C15.3125 16.125 14.6562 16.125 14.2812 15.7188L10.3125 11.75C9.25 12.5625 7.90625 13 6.5 13C2.90625 13 0 10.0938 0 6.5C0 2.9375 2.90625 0 6.5 0C10.0625 0 13 2.9375 13 6.5ZM3.25 6.75V8.75C3.25 9.1875 3.5625 9.5 4 9.5C4.40625 9.5 4.75 9.1875 4.75 8.75V6.75C4.75 6.34375 4.40625 6 4 6C3.5625 6 3.25 6.34375 3.25 6.75ZM5.75 3.75V8.75C5.75 9.1875 6.0625 9.5 6.5 9.5C6.90625 9.5 7.25 9.1875 7.25 8.75V3.75C7.25 3.34375 6.90625 3 6.5 3C6.0625 3 5.75 3.34375 5.75 3.75ZM8.25 5.75V8.75C8.25 9.1875 8.5625 9.5 9 9.5C9.40625 9.5 9.75 9.1875 9.75 8.75V5.75C9.75 5.34375 9.40625 5 9 5C8.5625 5 8.25 5.34375 8.25 5.75Z" fill="#B2100B">
    </path>
</svg>
