<?xml version="1.0" encoding="utf-8"?>
<!-- Generator: Adobe Illustrator 26.0.2, SVG Export Plug-In . SVG Version: 6.00 Build 0)  -->
<svg version="1.1" id="Layer_1" xmlns="http://www.w3.org/2000/svg" xmlns:xlink="http://www.w3.org/1999/xlink" x="0px" y="0px"
	 width="131px" height="32px" viewBox="0 0 131 32" style="enable-background:new 0 0 131 32;" xml:space="preserve">
<style type="text/css">
	.st0{fill:#FFFFFF;}
</style>
<g>
	<path class="st0" d="M49,7.2h-7.3c-0.5,0-0.9,0.4-1,0.8l-2.9,18.6c-0.1,0.3,0.2,0.6,0.5,0.7c0,0,0.1,0,0.1,0h3.5
		c0.5,0,0.9-0.4,1-0.9l0.8-5c0.1-0.5,0.5-0.8,1-0.9H47c4.8,0,7.5-2.3,8.3-6.9c0.3-2,0-3.6-0.9-4.7C53.3,7.8,51.4,7.2,49,7.2z
		 M49.8,13.9c-0.4,2.6-2.4,2.6-4.3,2.6h-1.1l0.8-4.9c0-0.3,0.3-0.5,0.6-0.5h0.5c1.3,0,2.5,0,3.2,0.7C49.9,12.5,50,13.3,49.8,13.9
		L49.8,13.9z"/>
	<path class="st0" d="M70.7,13.9h-3.5c-0.3,0-0.6,0.2-0.6,0.5l-0.2,1L66.2,15c-0.8-1.1-2.4-1.5-4.1-1.5c-4,0.1-7.3,3.1-7.8,7
		c-0.4,1.9,0.1,3.8,1.3,5.3c1.1,1.2,2.7,1.9,4.4,1.8c1.8,0,3.5-0.7,4.8-2l-0.2,1c-0.1,0.3,0.2,0.6,0.5,0.7c0,0,0.1,0,0.1,0h3.1
		c0.5,0,0.9-0.4,1-0.9l1.9-11.9C71.3,14.2,71.1,13.9,70.7,13.9C70.7,13.9,70.7,13.9,70.7,13.9z M65.8,20.6c-0.3,1.9-2,3.4-3.9,3.3
		c-1.5,0.2-2.8-0.9-3-2.4c0-0.3,0-0.7,0.1-1c0.3-1.9,1.9-3.4,3.9-3.3c0.9,0,1.7,0.3,2.3,0.9C65.8,18.9,66,19.8,65.8,20.6z"/>
	<path class="st0" d="M89.2,13.9h-3.5c-0.3,0-0.6,0.2-0.8,0.4L80,21.4l-2-6.8c-0.1-0.4-0.5-0.7-1-0.7h-3.4c-0.3,0-0.6,0.3-0.6,0.6
		c0,0.1,0,0.1,0,0.2l3.8,11.3L73.3,31c-0.2,0.3-0.1,0.7,0.1,0.8c0.1,0.1,0.2,0.1,0.3,0.1h3.5c0.3,0,0.6-0.2,0.8-0.4l11.6-16.8
		c0.2-0.3,0.1-0.7-0.2-0.8C89.4,13.9,89.3,13.9,89.2,13.9z"/>
	<path class="st0" d="M100.7,7.2h-7.3c-0.5,0-0.9,0.4-1,0.9l-2.9,18.6c-0.1,0.3,0.2,0.6,0.5,0.7c0,0,0.1,0,0.1,0h3.7
		c0.3,0,0.6-0.3,0.7-0.6l0.8-5.3c0.1-0.5,0.5-0.9,1-0.9h2.3c4.8,0,7.5-2.3,8.3-6.9c0.3-2,0-3.6-0.9-4.7C105,7.8,103.2,7.2,100.7,7.2
		z M101.6,13.9c-0.4,2.6-2.4,2.6-4.3,2.6h-1.1l0.8-4.9c0-0.3,0.3-0.5,0.6-0.5H98c1.3,0,2.5,0,3.2,0.7
		C101.6,12.5,101.8,13.3,101.6,13.9L101.6,13.9z"/>
	<path class="st0" d="M122.4,13.9h-3.5c-0.3,0-0.6,0.2-0.6,0.5l-0.2,1l-0.2-0.4c-0.8-1.1-2.4-1.5-4.1-1.5c-4,0.1-7.3,3.1-7.8,7
		c-0.4,1.9,0.1,3.8,1.3,5.3c1.1,1.2,2.7,1.9,4.4,1.8c1.8,0,3.5-0.7,4.8-2l-0.2,1c-0.1,0.3,0.2,0.6,0.5,0.7c0,0,0.1,0,0.1,0h3.1
		c0.5,0,0.9-0.4,1-0.9l1.9-11.9C123.1,14.2,122.8,13.9,122.4,13.9C122.5,13.9,122.4,13.9,122.4,13.9z M117.6,20.6
		c-0.3,1.9-2,3.4-3.9,3.3c-1.5,0.2-2.8-0.9-3-2.4c0-0.3,0-0.7,0.1-1c0.3-1.9,1.9-3.4,3.9-3.3c0.9,0,1.7,0.3,2.3,0.9
		C117.5,18.9,117.7,19.8,117.6,20.6z"/>
	<path class="st0" d="M126.5,7.7l-3,18.9c-0.1,0.3,0.2,0.6,0.5,0.7c0,0,0.1,0,0.1,0h3c0.5,0,0.9-0.4,1-0.9L131,7.9
		c0.1-0.3-0.2-0.6-0.5-0.7c0,0-0.1,0-0.1,0h-3.4C126.8,7.2,126.5,7.4,126.5,7.7z"/>
	<path class="st0" d="M24.4,8.1L24.4,8.1c0,0.2-0.1,0.4-0.1,0.6c-1.3,6.7-5.8,9.1-11.5,9.1H9.9c-0.7,0-1.3,0.5-1.4,1.2l0,0L7,28.4
		l-0.4,2.7c-0.1,0.4,0.2,0.8,0.6,0.9c0,0,0.1,0,0.1,0h5.2c0.6,0,1.1-0.4,1.2-1.1l0.1-0.3l1-6.2l0.1-0.3c0.1-0.6,0.6-1.1,1.2-1.1h0.8
		c5,0,8.9-2,10.1-7.9c0.5-2.5,0.2-4.5-1-6C25.5,8.8,25,8.4,24.4,8.1z"/>
	<path class="st0" d="M10.2,8.2c0.1-0.6,0.6-1.1,1.2-1.1h7.8c0.9,0,1.7,0.1,2.6,0.2c0.2,0,0.4,0.1,0.7,0.1c0.2,0,0.4,0.1,0.6,0.2
		c0.1,0,0.2,0.1,0.3,0.1c0.4,0.1,0.7,0.3,1.1,0.5c0.4-2.5,0-4.2-1.3-5.7C21.6,0.7,18.9,0,15.5,0H5.6C4.9,0,4.3,0.5,4.2,1.2L0,27.5
		c-0.1,0.5,0.2,0.9,0.7,1c0,0,0.1,0,0.1,0H7l1.5-9.8L10.2,8.2z"/>
</g>
</svg>
