<?xml version="1.0" encoding="UTF-8"?>
<svg xmlns="http://www.w3.org/2000/svg" width="177" height="64" viewBox="0 0 177 64" fill="none">
  <path d="M52.7817 6.28328C55.0956 6.29587 56.2077 9.12621 54.5209 10.7095L35.9693 28.122C34.708 29.3059 32.6595 28.9248 31.9088 27.3666L23.4486 9.80697C22.6491 8.14758 21.9201 6.52894 24.537 6.00088C24.6849 5.97104 24.837 5.96059 24.9878 5.96233L52.7817 6.28328Z" fill="#790401"></path>
  <path d="M9.03674 52.8125C7.05803 54.6902 8.99714 57.9469 11.5918 57.1038L45.7058 46.0182C47.2738 45.5086 47.9586 43.6725 47.107 42.2613L38.9388 28.7257C38.0936 27.3252 36.1692 27.0653 34.9825 28.1914L9.03674 52.8125Z" fill="#790401"></path>
  <path d="M43.6729 45.7483C45.9457 47.1449 48.5735 44.5708 47.2226 42.2711L26.6337 7.22353C25.7262 5.67861 23.5525 5.51943 22.4294 6.91564L10.3732 21.9031C9.40685 23.1045 9.71408 24.8808 11.0279 25.6882L43.6729 45.7483Z" fill="#EA1B15"></path>
  <path d="M92.44 46.48C91.0267 46.48 89.7067 46.3067 88.48 45.96C87.2533 45.6133 86.16 45.1333 85.2 44.52C84.24 43.88 83.44 43.1733 82.8 42.4C82.1867 41.6267 81.7867 40.8133 81.6 39.96L86.96 38.36C87.3067 39.2667 87.92 40.0533 88.8 40.72C89.68 41.36 90.7867 41.6933 92.12 41.72C93.5333 41.7467 94.68 41.44 95.56 40.8C96.4667 40.16 96.92 39.3333 96.92 38.32C96.92 37.44 96.56 36.7067 95.84 36.12C95.1467 35.5067 94.1867 35.04 92.96 34.72L89.32 33.76C87.96 33.4133 86.76 32.8933 85.72 32.2C84.68 31.48 83.8667 30.6 83.28 29.56C82.6933 28.52 82.4 27.3067 82.4 25.92C82.4 23.28 83.2667 21.2267 85 19.76C86.76 18.2667 89.24 17.52 92.44 17.52C94.2267 17.52 95.7867 17.7867 97.12 18.32C98.48 18.8267 99.6133 19.56 100.52 20.52C101.427 21.48 102.12 22.6133 102.6 23.92L97.28 25.56C96.96 24.6533 96.3733 23.88 95.52 23.24C94.6667 22.6 93.5867 22.28 92.28 22.28C90.9467 22.28 89.8933 22.5867 89.12 23.2C88.3733 23.8133 88 24.68 88 25.8C88 26.68 88.2933 27.3733 88.88 27.88C89.4933 28.3867 90.32 28.7733 91.36 29.04L95.04 29.96C97.44 30.5467 99.3067 31.6 100.64 33.12C101.973 34.64 102.64 36.3333 102.64 38.2C102.64 39.8533 102.24 41.3067 101.44 42.56C100.64 43.7867 99.48 44.7467 97.96 45.44C96.44 46.1333 94.6 46.48 92.44 46.48ZM118.577 46L118.377 41.96V35.88C118.377 34.68 118.244 33.6667 117.977 32.84C117.71 31.9867 117.297 31.3467 116.737 30.92C116.204 30.4667 115.484 30.24 114.577 30.24C113.777 30.24 113.057 30.4133 112.417 30.76C111.777 31.1067 111.23 31.6667 110.777 32.44L105.977 30.8C106.35 29.9467 106.897 29.12 107.617 28.32C108.337 27.4933 109.27 26.8267 110.417 26.32C111.59 25.7867 113.017 25.52 114.697 25.52C116.697 25.52 118.364 25.88 119.697 26.6C121.057 27.32 122.07 28.3867 122.737 29.8C123.404 31.1867 123.724 32.8933 123.697 34.92L123.577 46H118.577ZM113.057 46.48C110.657 46.48 108.79 45.9467 107.457 44.88C106.15 43.8133 105.497 42.3067 105.497 40.36C105.497 38.2267 106.204 36.6267 107.617 35.56C109.057 34.4667 111.07 33.92 113.657 33.92H118.737V37.84H115.497C113.764 37.84 112.564 38.0533 111.897 38.48C111.23 38.88 110.897 39.4533 110.897 40.2C110.897 40.7867 111.164 41.2533 111.697 41.6C112.23 41.92 112.977 42.08 113.937 42.08C114.79 42.08 115.55 41.88 116.217 41.48C116.884 41.0533 117.404 40.52 117.777 39.88C118.177 39.2133 118.377 38.5333 118.377 37.84H119.777C119.777 40.56 119.244 42.68 118.177 44.2C117.137 45.72 115.43 46.48 113.057 46.48ZM127.905 46V18H133.185V46H127.905ZM146.789 46.48C144.815 46.48 143.069 46.04 141.549 45.16C140.029 44.2533 138.829 43.0133 137.949 41.44C137.095 39.8667 136.669 38.0533 136.669 36C136.669 33.9467 137.109 32.1333 137.989 30.56C138.895 28.9867 140.122 27.76 141.669 26.88C143.242 25.9733 145.042 25.52 147.069 25.52C148.802 25.52 150.402 25.9867 151.869 26.92C153.362 27.8267 154.562 29.1733 155.469 30.96C156.375 32.72 156.829 34.8667 156.829 37.4H151.469C151.495 35.64 151.309 34.24 150.909 33.2C150.535 32.1333 150.002 31.3733 149.309 30.92C148.615 30.44 147.802 30.2 146.869 30.2C145.829 30.2 144.949 30.4133 144.229 30.84C143.509 31.2667 142.962 31.92 142.589 32.8C142.242 33.6533 142.069 34.7733 142.069 36.16C142.069 37.36 142.309 38.36 142.789 39.16C143.269 39.96 143.909 40.5733 144.709 41C145.509 41.4 146.389 41.6 147.349 41.6C148.389 41.6 149.229 41.3733 149.869 40.92C150.535 40.4667 151.042 39.88 151.389 39.16L156.349 41.08C155.789 42.2 155.055 43.1733 154.149 44C153.269 44.8 152.215 45.4133 150.989 45.84C149.762 46.2667 148.362 46.48 146.789 46.48ZM140.109 37.4L140.149 33.28H154.229V37.4H140.109ZM167.377 46.48C166.097 46.48 164.897 46.2933 163.777 45.92C162.657 45.52 161.671 44.96 160.817 44.24C159.964 43.4933 159.297 42.5867 158.817 41.52L163.337 39.44C163.737 40.08 164.284 40.64 164.977 41.12C165.671 41.5733 166.471 41.8 167.377 41.8C168.257 41.8 168.937 41.68 169.417 41.44C169.897 41.1733 170.137 40.8 170.137 40.32C170.137 39.84 169.937 39.4933 169.537 39.28C169.164 39.04 168.644 38.84 167.977 38.68L166.137 38.2C164.217 37.6933 162.697 36.8933 161.577 35.8C160.484 34.68 159.937 33.4 159.937 31.96C159.937 29.9067 160.591 28.32 161.897 27.2C163.231 26.08 165.111 25.52 167.537 25.52C168.791 25.52 169.951 25.7067 171.017 26.08C172.111 26.4533 173.044 26.9733 173.817 27.64C174.591 28.3067 175.124 29.08 175.417 29.96L171.057 31.96C170.871 31.4267 170.417 31 169.697 30.68C168.977 30.3333 168.257 30.16 167.537 30.16C166.817 30.16 166.257 30.32 165.857 30.64C165.484 30.9333 165.297 31.3467 165.297 31.88C165.297 32.2267 165.484 32.52 165.857 32.76C166.231 32.9733 166.764 33.16 167.457 33.32L170.057 33.96C171.364 34.28 172.404 34.8 173.177 35.52C173.977 36.2133 174.551 37 174.897 37.88C175.271 38.7333 175.457 39.5733 175.457 40.4C175.457 41.6 175.097 42.6667 174.377 43.6C173.684 44.5067 172.724 45.2133 171.497 45.72C170.297 46.2267 168.924 46.48 167.377 46.48Z" fill="#000514"></path>
</svg>
