<?xml version="1.0" encoding="UTF-8"?>
<svg xmlns="http://www.w3.org/2000/svg" width="267" height="64" viewBox="0 0 267 64" fill="none">
  <path d="M23.0258 49.7577C21.4069 49.7577 20.082 48.4431 20.214 46.8296C20.5178 43.1172 21.3978 39.4685 22.8278 36.0161C24.6324 31.6595 27.2774 27.701 30.6119 24.3666C33.9463 21.0322 37.9048 18.3872 42.2615 16.5826C45.7138 15.1527 49.3625 14.2726 53.075 13.9689C54.6885 13.8368 56.0031 15.1617 56.0031 16.7806V46.8264C56.0031 48.4453 54.6907 49.7577 53.0718 49.7577H23.0258Z" fill="#790401"></path>
  <path d="M40.9772 49.7577C42.5961 49.7577 43.921 48.4431 43.7889 46.8296C43.4852 43.1172 42.6051 39.4685 41.1751 36.0161C39.3706 31.6595 36.7256 27.701 33.3911 24.3666C30.0567 21.0322 26.0982 18.3872 21.7415 16.5826C18.2892 15.1527 14.6405 14.2726 10.928 13.9689C9.31445 13.8368 7.99988 15.1617 7.99988 16.7806L7.99988 46.8264C7.99988 48.4453 9.31227 49.7577 10.9312 49.7577H40.9772Z" fill="#EA1B15"></path>
  <path d="M97.1602 39.28L83.2802 19.08L85.8402 18.32L89.0002 18L99.9202 34.2L97.1602 39.28ZM83.0402 46V18H88.5202V46H83.0402ZM97.1602 39.28L94.4002 34.2L105.32 18L108.48 18.32L110.96 19L97.1602 39.28ZM105.8 46V18H111.24V46H105.8ZM128.577 46L128.377 41.96V35.88C128.377 34.68 128.244 33.6667 127.977 32.84C127.71 31.9867 127.297 31.3467 126.737 30.92C126.204 30.4667 125.484 30.24 124.577 30.24C123.777 30.24 123.057 30.4133 122.417 30.76C121.777 31.1067 121.23 31.6667 120.777 32.44L115.977 30.8C116.35 29.9467 116.897 29.12 117.617 28.32C118.337 27.4933 119.27 26.8267 120.417 26.32C121.59 25.7867 123.017 25.52 124.697 25.52C126.697 25.52 128.364 25.88 129.697 26.6C131.057 27.32 132.07 28.3867 132.737 29.8C133.404 31.1867 133.724 32.8933 133.697 34.92L133.577 46H128.577ZM123.057 46.48C120.657 46.48 118.79 45.9467 117.457 44.88C116.15 43.8133 115.497 42.3067 115.497 40.36C115.497 38.2267 116.204 36.6267 117.617 35.56C119.057 34.4667 121.07 33.92 123.657 33.92H128.737V37.84H125.497C123.764 37.84 122.564 38.0533 121.897 38.48C121.23 38.88 120.897 39.4533 120.897 40.2C120.897 40.7867 121.164 41.2533 121.697 41.6C122.23 41.92 122.977 42.08 123.937 42.08C124.79 42.08 125.55 41.88 126.217 41.48C126.884 41.0533 127.404 40.52 127.777 39.88C128.177 39.2133 128.377 38.5333 128.377 37.84H129.777C129.777 40.56 129.244 42.68 128.177 44.2C127.137 45.72 125.43 46.48 123.057 46.48ZM141.625 35.48C141.625 33.32 142.039 31.5333 142.865 30.12C143.719 28.7067 144.799 27.6533 146.105 26.96C147.439 26.2667 148.825 25.92 150.265 25.92V31.04C149.039 31.04 147.879 31.1867 146.785 31.48C145.719 31.7733 144.852 32.2533 144.185 32.92C143.519 33.5867 143.185 34.44 143.185 35.48H141.625ZM137.905 46V26H143.185V46H137.905ZM158.101 40.92L154.941 37.28L165.181 26H171.461L158.101 40.92ZM153.061 46V18H158.341V46H153.061ZM165.861 46L159.221 36.32L162.661 32.68L172.061 46H165.861ZM182.57 46.48C180.597 46.48 178.85 46.04 177.33 45.16C175.81 44.2533 174.61 43.0133 173.73 41.44C172.877 39.8667 172.45 38.0533 172.45 36C172.45 33.9467 172.89 32.1333 173.77 30.56C174.677 28.9867 175.904 27.76 177.45 26.88C179.024 25.9733 180.824 25.52 182.85 25.52C184.584 25.52 186.184 25.9867 187.65 26.92C189.144 27.8267 190.344 29.1733 191.25 30.96C192.157 32.72 192.61 34.8667 192.61 37.4H187.25C187.277 35.64 187.09 34.24 186.69 33.2C186.317 32.1333 185.784 31.3733 185.09 30.92C184.397 30.44 183.584 30.2 182.65 30.2C181.61 30.2 180.73 30.4133 180.01 30.84C179.29 31.2667 178.744 31.92 178.37 32.8C178.024 33.6533 177.85 34.7733 177.85 36.16C177.85 37.36 178.09 38.36 178.57 39.16C179.05 39.96 179.69 40.5733 180.49 41C181.29 41.4 182.17 41.6 183.13 41.6C184.17 41.6 185.01 41.3733 185.65 40.92C186.317 40.4667 186.824 39.88 187.17 39.16L192.13 41.08C191.57 42.2 190.837 43.1733 189.93 44C189.05 44.8 187.997 45.4133 186.77 45.84C185.544 46.2667 184.144 46.48 182.57 46.48ZM175.89 37.4L175.93 33.28H190.01V37.4H175.89ZM203.919 46.48C201.705 46.48 200.025 45.9333 198.879 44.84C197.759 43.7467 197.199 42.1867 197.199 40.16V19.76H202.479V39C202.479 39.8533 202.665 40.5067 203.039 40.96C203.412 41.3867 203.959 41.6 204.679 41.6C204.945 41.6 205.239 41.5467 205.559 41.44C205.879 41.3067 206.212 41.12 206.559 40.88L208.399 44.84C207.759 45.32 207.039 45.7067 206.239 46C205.465 46.32 204.692 46.48 203.919 46.48ZM193.959 30.48V26H207.479V30.48H193.959ZM212.092 46V26H217.372V46H212.092ZM214.732 22.76C213.932 22.76 213.226 22.4667 212.612 21.88C211.999 21.2667 211.692 20.5467 211.692 19.72C211.692 18.8933 211.999 18.1867 212.612 17.6C213.226 16.9867 213.932 16.68 214.732 16.68C215.559 16.68 216.266 16.9867 216.852 17.6C217.466 18.1867 217.772 18.8933 217.772 19.72C217.772 20.5467 217.466 21.2667 216.852 21.88C216.266 22.4667 215.559 22.76 214.732 22.76ZM222.241 46V26H227.201L227.521 29.68V46H222.241ZM235.481 46V35.76L240.761 34.56V46H235.481ZM235.481 35.76C235.481 34.4 235.321 33.3467 235.001 32.6C234.708 31.8533 234.281 31.32 233.721 31C233.161 30.6533 232.508 30.48 231.761 30.48C230.401 30.4533 229.348 30.8667 228.601 31.72C227.881 32.5733 227.521 33.84 227.521 35.52H225.761C225.761 33.3867 226.068 31.5867 226.681 30.12C227.321 28.6267 228.201 27.4933 229.321 26.72C230.441 25.92 231.761 25.52 233.281 25.52C235.708 25.52 237.561 26.2667 238.841 27.76C240.148 29.2267 240.788 31.4933 240.761 34.56L235.481 35.76ZM253.976 54.52C252.456 54.52 251.109 54.4133 249.936 54.2C248.762 53.9867 247.776 53.7067 246.976 53.36C246.176 53.0133 245.522 52.6667 245.016 52.32L247.096 48.08C247.469 48.2933 247.962 48.5333 248.576 48.8C249.189 49.0933 249.922 49.3333 250.776 49.52C251.629 49.7333 252.616 49.84 253.736 49.84C254.802 49.84 255.736 49.6267 256.536 49.2C257.362 48.8 258.002 48.16 258.456 47.28C258.936 46.4267 259.176 45.3333 259.176 44V26H264.456V43.84C264.456 46.08 264.029 48 263.176 49.6C262.322 51.2267 261.109 52.4533 259.536 53.28C257.989 54.1067 256.136 54.52 253.976 54.52ZM252.936 45.44C251.096 45.44 249.496 45.04 248.136 44.24C246.802 43.44 245.762 42.32 245.016 40.88C244.269 39.44 243.896 37.7333 243.896 35.76C243.896 33.68 244.269 31.88 245.016 30.36C245.762 28.8133 246.802 27.6267 248.136 26.8C249.496 25.9467 251.096 25.52 252.936 25.52C254.536 25.52 255.922 25.9467 257.096 26.8C258.269 27.6267 259.176 28.8133 259.816 30.36C260.456 31.9067 260.776 33.7467 260.776 35.88C260.776 37.8 260.456 39.48 259.816 40.92C259.176 42.36 258.269 43.48 257.096 44.28C255.922 45.0533 254.536 45.44 252.936 45.44ZM254.456 41C255.362 41 256.149 40.7733 256.816 40.32C257.509 39.84 258.042 39.2 258.416 38.4C258.789 37.5733 258.976 36.64 258.976 35.6C258.976 34.5333 258.776 33.6 258.376 32.8C258.002 32 257.469 31.3733 256.776 30.92C256.109 30.4667 255.322 30.24 254.416 30.24C253.482 30.24 252.656 30.4667 251.936 30.92C251.216 31.3733 250.656 32 250.256 32.8C249.856 33.6 249.642 34.5333 249.616 35.6C249.642 36.64 249.856 37.5733 250.256 38.4C250.656 39.2 251.216 39.84 251.936 40.32C252.682 40.7733 253.522 41 254.456 41Z" fill="#000514"></path>
</svg>
