<?xml version="1.0" encoding="UTF-8"?>
<svg xmlns="http://www.w3.org/2000/svg" width="286" height="64" viewBox="0 0 286 64" fill="none">
  <path d="M26.263 49.9632C26.4324 51.1325 27.4347 52 28.6162 52H39.9763C41.4253 52 42.5374 50.7151 42.3295 49.2811L37.2454 14.2006C37.076 13.0314 36.0737 12.1639 34.8921 12.1639H23.5321C22.0831 12.1639 20.971 13.4488 21.1788 14.8828L26.263 49.9632Z" fill="#790401"></path>
  <path d="M6.26822 34.8502C2.98758 39.6891 6.45393 46.2271 12.3001 46.2271C14.7166 46.2271 16.976 45.0292 18.332 43.029L36.8131 15.7695C37.8527 14.2361 36.7542 12.1643 34.9016 12.1643H22.5449C21.9843 12.1643 21.4602 12.4421 21.1456 12.9062L6.26822 34.8502Z" fill="#EA1B15"></path>
  <path d="M57.2322 29.3141C60.5128 24.4751 57.0465 17.9372 51.2003 17.9372C48.7838 17.9372 46.5245 19.1351 45.1684 21.1352L26.6873 48.3948C25.6477 49.9282 26.7462 52 28.5988 52H40.9555C41.5161 52 42.0403 51.7221 42.3549 51.2581L57.2322 29.3141Z" fill="#EA1B15"></path>
  <path d="M95.8402 46.48C93.0136 46.48 90.5069 45.8667 88.3202 44.64C86.1602 43.3867 84.4669 41.68 83.2402 39.52C82.0136 37.3333 81.4002 34.84 81.4002 32.04C81.4002 29.1867 82.0136 26.68 83.2402 24.52C84.4669 22.3333 86.1469 20.6267 88.2802 19.4C90.4402 18.1733 92.9202 17.56 95.7202 17.56C98.5469 17.56 101.027 18.1867 103.16 19.44C105.32 20.6667 107.014 22.3733 108.24 24.56C109.467 26.72 110.08 29.2133 110.08 32.04C110.08 34.84 109.467 37.3333 108.24 39.52C107.04 41.68 105.36 43.3867 103.2 44.64C101.067 45.8667 98.6136 46.48 95.8402 46.48ZM95.8402 41.48C97.5469 41.48 99.0402 41.08 100.32 40.28C101.627 39.4533 102.64 38.3333 103.36 36.92C104.107 35.5067 104.48 33.88 104.48 32.04C104.48 30.1733 104.107 28.5333 103.36 27.12C102.614 25.7067 101.587 24.6 100.28 23.8C98.9736 22.9733 97.4536 22.56 95.7202 22.56C94.0402 22.56 92.5336 22.9733 91.2002 23.8C89.8936 24.6 88.8669 25.7067 88.1202 27.12C87.3736 28.5333 87.0002 30.1733 87.0002 32.04C87.0002 33.88 87.3736 35.5067 88.1202 36.92C88.8669 38.3333 89.9069 39.4533 91.2402 40.28C92.5736 41.08 94.1069 41.48 95.8402 41.48ZM113.965 54V26H118.925L119.245 29.68V54H113.965ZM125.285 46.48C123.605 46.48 122.178 46.0533 121.005 45.2C119.858 44.3467 118.978 43.1333 118.365 41.56C117.751 39.9867 117.445 38.1333 117.445 36C117.445 33.84 117.751 31.9867 118.365 30.44C118.978 28.8667 119.858 27.6533 121.005 26.8C122.178 25.9467 123.605 25.52 125.285 25.52C127.125 25.52 128.711 25.9467 130.045 26.8C131.405 27.6533 132.458 28.8667 133.205 30.44C133.951 31.9867 134.325 33.84 134.325 36C134.325 38.1333 133.951 39.9867 133.205 41.56C132.458 43.1333 131.405 44.3467 130.045 45.2C128.711 46.0533 127.125 46.48 125.285 46.48ZM123.925 41.64C124.885 41.64 125.725 41.4 126.445 40.92C127.191 40.44 127.778 39.7733 128.205 38.92C128.631 38.0667 128.845 37.0933 128.845 36C128.845 34.9067 128.631 33.9333 128.205 33.08C127.805 32.2267 127.231 31.5733 126.485 31.12C125.765 30.64 124.925 30.4 123.965 30.4C123.058 30.4 122.245 30.64 121.525 31.12C120.805 31.6 120.245 32.2667 119.845 33.12C119.445 33.9467 119.245 34.9067 119.245 36C119.245 37.0933 119.445 38.0667 119.845 38.92C120.245 39.7733 120.791 40.44 121.485 40.92C122.205 41.4 123.018 41.64 123.925 41.64ZM146.828 46.48C144.855 46.48 143.108 46.04 141.588 45.16C140.068 44.2533 138.868 43.0133 137.988 41.44C137.135 39.8667 136.708 38.0533 136.708 36C136.708 33.9467 137.148 32.1333 138.028 30.56C138.935 28.9867 140.161 27.76 141.708 26.88C143.281 25.9733 145.081 25.52 147.108 25.52C148.841 25.52 150.441 25.9867 151.908 26.92C153.401 27.8267 154.601 29.1733 155.508 30.96C156.415 32.72 156.868 34.8667 156.868 37.4H151.508C151.535 35.64 151.348 34.24 150.948 33.2C150.575 32.1333 150.041 31.3733 149.348 30.92C148.655 30.44 147.841 30.2 146.908 30.2C145.868 30.2 144.988 30.4133 144.268 30.84C143.548 31.2667 143.001 31.92 142.628 32.8C142.281 33.6533 142.108 34.7733 142.108 36.16C142.108 37.36 142.348 38.36 142.828 39.16C143.308 39.96 143.948 40.5733 144.748 41C145.548 41.4 146.428 41.6 147.388 41.6C148.428 41.6 149.268 41.3733 149.908 40.92C150.575 40.4667 151.081 39.88 151.428 39.16L156.388 41.08C155.828 42.2 155.095 43.1733 154.188 44C153.308 44.8 152.255 45.4133 151.028 45.84C149.801 46.2667 148.401 46.48 146.828 46.48ZM140.148 37.4L140.188 33.28H154.268V37.4H140.148ZM163.657 35.48C163.657 33.32 164.07 31.5333 164.897 30.12C165.75 28.7067 166.83 27.6533 168.137 26.96C169.47 26.2667 170.857 25.92 172.297 25.92V31.04C171.07 31.04 169.91 31.1867 168.817 31.48C167.75 31.7733 166.883 32.2533 166.217 32.92C165.55 33.5867 165.217 34.44 165.217 35.48H163.657ZM159.937 46V26H165.217V46H159.937ZM187.093 46L186.893 41.96V35.88C186.893 34.68 186.759 33.6667 186.493 32.84C186.226 31.9867 185.813 31.3467 185.253 30.92C184.719 30.4667 183.999 30.24 183.093 30.24C182.293 30.24 181.573 30.4133 180.933 30.76C180.293 31.1067 179.746 31.6667 179.293 32.44L174.493 30.8C174.866 29.9467 175.413 29.12 176.133 28.32C176.853 27.4933 177.786 26.8267 178.933 26.32C180.106 25.7867 181.533 25.52 183.213 25.52C185.213 25.52 186.879 25.88 188.213 26.6C189.573 27.32 190.586 28.3867 191.253 29.8C191.919 31.1867 192.239 32.8933 192.213 34.92L192.093 46H187.093ZM181.573 46.48C179.173 46.48 177.306 45.9467 175.973 44.88C174.666 43.8133 174.013 42.3067 174.013 40.36C174.013 38.2267 174.719 36.6267 176.133 35.56C177.573 34.4667 179.586 33.92 182.173 33.92H187.253V37.84H184.013C182.279 37.84 181.079 38.0533 180.413 38.48C179.746 38.88 179.413 39.4533 179.413 40.2C179.413 40.7867 179.679 41.2533 180.213 41.6C180.746 41.92 181.493 42.08 182.453 42.08C183.306 42.08 184.066 41.88 184.733 41.48C185.399 41.0533 185.919 40.52 186.293 39.88C186.693 39.2133 186.893 38.5333 186.893 37.84H188.293C188.293 40.56 187.759 42.68 186.693 44.2C185.653 45.72 183.946 46.48 181.573 46.48ZM204.661 46.48C202.448 46.48 200.768 45.9333 199.621 44.84C198.501 43.7467 197.941 42.1867 197.941 40.16V19.76H203.221V39C203.221 39.8533 203.408 40.5067 203.781 40.96C204.154 41.3867 204.701 41.6 205.421 41.6C205.688 41.6 205.981 41.5467 206.301 41.44C206.621 41.3067 206.954 41.12 207.301 40.88L209.141 44.84C208.501 45.32 207.781 45.7067 206.981 46C206.208 46.32 205.434 46.48 204.661 46.48ZM194.701 30.48V26H208.221V30.48H194.701ZM212.835 46V26H218.115V46H212.835ZM215.475 22.76C214.675 22.76 213.968 22.4667 213.355 21.88C212.741 21.2667 212.435 20.5467 212.435 19.72C212.435 18.8933 212.741 18.1867 213.355 17.6C213.968 16.9867 214.675 16.68 215.475 16.68C216.301 16.68 217.008 16.9867 217.595 17.6C218.208 18.1867 218.515 18.8933 218.515 19.72C218.515 20.5467 218.208 21.2667 217.595 21.88C217.008 22.4667 216.301 22.76 215.475 22.76ZM232.383 46.48C230.357 46.48 228.543 46.04 226.943 45.16C225.37 44.2533 224.13 43.0133 223.223 41.44C222.343 39.8667 221.903 38.0533 221.903 36C221.903 33.9467 222.343 32.1333 223.223 30.56C224.103 28.9867 225.33 27.76 226.903 26.88C228.477 25.9733 230.277 25.52 232.303 25.52C234.357 25.52 236.17 25.9733 237.743 26.88C239.317 27.76 240.543 28.9867 241.423 30.56C242.303 32.1333 242.743 33.9467 242.743 36C242.743 38.0533 242.303 39.8667 241.423 41.44C240.543 43.0133 239.317 44.2533 237.743 45.16C236.197 46.04 234.41 46.48 232.383 46.48ZM232.383 41.6C233.37 41.6 234.237 41.36 234.983 40.88C235.73 40.4 236.303 39.7467 236.703 38.92C237.13 38.0667 237.343 37.0933 237.343 36C237.343 34.9067 237.13 33.9467 236.703 33.12C236.277 32.2667 235.677 31.6 234.903 31.12C234.157 30.64 233.29 30.4 232.303 30.4C231.343 30.4 230.477 30.64 229.703 31.12C228.957 31.6 228.37 32.2667 227.943 33.12C227.517 33.9467 227.303 34.9067 227.303 36C227.303 37.0933 227.517 38.0667 227.943 38.92C228.37 39.7467 228.97 40.4 229.743 40.88C230.517 41.36 231.397 41.6 232.383 41.6ZM246.226 46V26H251.186L251.506 29.68V46H246.226ZM259.466 46V35.76L264.746 34.56V46H259.466ZM259.466 35.76C259.466 34.4 259.306 33.3467 258.986 32.6C258.692 31.8533 258.266 31.32 257.706 31C257.146 30.6533 256.492 30.48 255.746 30.48C254.386 30.4533 253.332 30.8667 252.586 31.72C251.866 32.5733 251.506 33.84 251.506 35.52H249.746C249.746 33.3867 250.052 31.5867 250.666 30.12C251.306 28.6267 252.186 27.4933 253.306 26.72C254.426 25.92 255.746 25.52 257.266 25.52C259.692 25.52 261.546 26.2667 262.826 27.76C264.132 29.2267 264.772 31.4933 264.746 34.56L259.466 35.76ZM276.44 46.48C275.16 46.48 273.96 46.2933 272.84 45.92C271.72 45.52 270.733 44.96 269.88 44.24C269.027 43.4933 268.36 42.5867 267.88 41.52L272.4 39.44C272.8 40.08 273.347 40.64 274.04 41.12C274.733 41.5733 275.533 41.8 276.44 41.8C277.32 41.8 278 41.68 278.48 41.44C278.96 41.1733 279.2 40.8 279.2 40.32C279.2 39.84 279 39.4933 278.6 39.28C278.227 39.04 277.707 38.84 277.04 38.68L275.2 38.2C273.28 37.6933 271.76 36.8933 270.64 35.8C269.547 34.68 269 33.4 269 31.96C269 29.9067 269.653 28.32 270.96 27.2C272.293 26.08 274.173 25.52 276.6 25.52C277.853 25.52 279.013 25.7067 280.08 26.08C281.173 26.4533 282.107 26.9733 282.88 27.64C283.653 28.3067 284.187 29.08 284.48 29.96L280.12 31.96C279.933 31.4267 279.48 31 278.76 30.68C278.04 30.3333 277.32 30.16 276.6 30.16C275.88 30.16 275.32 30.32 274.92 30.64C274.547 30.9333 274.36 31.3467 274.36 31.88C274.36 32.2267 274.547 32.52 274.92 32.76C275.293 32.9733 275.827 33.16 276.52 33.32L279.12 33.96C280.427 34.28 281.467 34.8 282.24 35.52C283.04 36.2133 283.613 37 283.96 37.88C284.333 38.7333 284.52 39.5733 284.52 40.4C284.52 41.6 284.16 42.6667 283.44 43.6C282.747 44.5067 281.787 45.2133 280.56 45.72C279.36 46.2267 277.987 46.48 276.44 46.48Z" fill="#000514"></path>
</svg>
