<?xml version="1.0" encoding="UTF-8"?>
<svg xmlns="http://www.w3.org/2000/svg" width="193" height="64" viewBox="0 0 193 64" fill="none">
  <path d="M57.082 58.0913C58.5055 58.0913 59.6721 56.9346 59.5383 55.5175C58.9421 49.1988 56.164 43.2525 51.6385 38.727C46.5028 33.5913 39.5373 30.7061 32.2743 30.7061C25.0113 30.7061 18.0458 33.5913 12.9101 38.727C8.38458 43.2525 5.60656 49.1988 5.01028 55.5174C4.87654 56.9346 6.0431 58.0912 7.46657 58.0912L57.082 58.0913Z" fill="#790401"></path>
  <path d="M18.496 34.6664C13.707 28.4604 13.707 19.8049 18.496 13.599C25.3983 4.65451 38.8942 4.65451 45.7965 13.599C50.5856 19.8049 50.5856 28.4604 45.7965 34.6664L33.8332 50.1691C32.9802 51.2745 31.3123 51.2745 30.4593 50.1691L18.496 34.6664Z" fill="#EA1B15"></path>
  <path d="M88.9599 46V20.32H94.4399V46H88.9599ZM80.5599 23V18H102.8V23H80.5599ZM114.983 46L114.783 41.96V35.88C114.783 34.68 114.65 33.6667 114.383 32.84C114.116 31.9867 113.703 31.3467 113.143 30.92C112.61 30.4667 111.89 30.24 110.983 30.24C110.183 30.24 109.463 30.4133 108.823 30.76C108.183 31.1067 107.636 31.6667 107.183 32.44L102.383 30.8C102.756 29.9467 103.303 29.12 104.023 28.32C104.743 27.4933 105.676 26.8267 106.823 26.32C107.996 25.7867 109.423 25.52 111.103 25.52C113.103 25.52 114.77 25.88 116.103 26.6C117.463 27.32 118.476 28.3867 119.143 29.8C119.81 31.1867 120.13 32.8933 120.103 34.92L119.983 46H114.983ZM109.463 46.48C107.063 46.48 105.196 45.9467 103.863 44.88C102.556 43.8133 101.903 42.3067 101.903 40.36C101.903 38.2267 102.61 36.6267 104.023 35.56C105.463 34.4667 107.476 33.92 110.063 33.92H115.143V37.84H111.903C110.17 37.84 108.97 38.0533 108.303 38.48C107.636 38.88 107.303 39.4533 107.303 40.2C107.303 40.7867 107.57 41.2533 108.103 41.6C108.636 41.92 109.383 42.08 110.343 42.08C111.196 42.08 111.956 41.88 112.623 41.48C113.29 41.0533 113.81 40.52 114.183 39.88C114.583 39.2133 114.783 38.5333 114.783 37.84H116.183C116.183 40.56 115.65 42.68 114.583 44.2C113.543 45.72 111.836 46.48 109.463 46.48ZM124.311 46V18H129.591V46H124.311ZM143.195 46.48C141.222 46.48 139.475 46.04 137.955 45.16C136.435 44.2533 135.235 43.0133 134.355 41.44C133.502 39.8667 133.075 38.0533 133.075 36C133.075 33.9467 133.515 32.1333 134.395 30.56C135.302 28.9867 136.528 27.76 138.075 26.88C139.648 25.9733 141.448 25.52 143.475 25.52C145.208 25.52 146.808 25.9867 148.275 26.92C149.768 27.8267 150.968 29.1733 151.875 30.96C152.782 32.72 153.235 34.8667 153.235 37.4H147.875C147.902 35.64 147.715 34.24 147.315 33.2C146.942 32.1333 146.408 31.3733 145.715 30.92C145.022 30.44 144.208 30.2 143.275 30.2C142.235 30.2 141.355 30.4133 140.635 30.84C139.915 31.2667 139.368 31.92 138.995 32.8C138.648 33.6533 138.475 34.7733 138.475 36.16C138.475 37.36 138.715 38.36 139.195 39.16C139.675 39.96 140.315 40.5733 141.115 41C141.915 41.4 142.795 41.6 143.755 41.6C144.795 41.6 145.635 41.3733 146.275 40.92C146.942 40.4667 147.448 39.88 147.795 39.16L152.755 41.08C152.195 42.2 151.462 43.1733 150.555 44C149.675 44.8 148.622 45.4133 147.395 45.84C146.168 46.2667 144.768 46.48 143.195 46.48ZM136.515 37.4L136.555 33.28H150.635V37.4H136.515ZM156.303 46V26H161.263L161.583 29.68V46H156.303ZM169.543 46V35.76L174.823 34.56V46H169.543ZM169.543 35.76C169.543 34.4 169.383 33.3467 169.063 32.6C168.77 31.8533 168.343 31.32 167.783 31C167.223 30.6533 166.57 30.48 165.823 30.48C164.463 30.4533 163.41 30.8667 162.663 31.72C161.943 32.5733 161.583 33.84 161.583 35.52H159.823C159.823 33.3867 160.13 31.5867 160.743 30.12C161.383 28.6267 162.263 27.4933 163.383 26.72C164.503 25.92 165.823 25.52 167.343 25.52C169.77 25.52 171.623 26.2667 172.903 27.76C174.21 29.2267 174.85 31.4933 174.823 34.56L169.543 35.76ZM187.278 46.48C185.064 46.48 183.384 45.9333 182.238 44.84C181.118 43.7467 180.558 42.1867 180.558 40.16V19.76H185.838V39C185.838 39.8533 186.024 40.5067 186.398 40.96C186.771 41.3867 187.318 41.6 188.038 41.6C188.304 41.6 188.598 41.5467 188.918 41.44C189.238 41.3067 189.571 41.12 189.918 40.88L191.758 44.84C191.118 45.32 190.398 45.7067 189.598 46C188.824 46.32 188.051 46.48 187.278 46.48ZM177.318 30.48V26H190.838V30.48H177.318Z" fill="#000514"></path>
</svg>
