<?xml version="1.0" encoding="UTF-8"?>
<svg xmlns="http://www.w3.org/2000/svg" width="175" height="64" viewBox="0 0 175 64" fill="none">
  <path d="M14.2411 17.184C14.2411 14.9967 16.5357 13.5682 18.4984 14.5335L38.4353 24.3392C39.4454 24.836 40.0854 25.8638 40.0854 26.9896V52.797C40.0854 55.0812 37.6035 56.5009 35.6345 55.3431L15.6977 43.6199C14.7953 43.0893 14.2411 42.1206 14.2411 41.0738V17.184Z" fill="#790401"></path>
  <path d="M33.6405 5.02018C32.826 4.57725 31.8508 4.54246 31.0068 4.92622L12.1843 13.4851C9.91236 14.5181 9.8664 17.7289 12.1079 18.8266L30.6925 27.928C31.7051 28.4239 32.3471 29.4531 32.3471 30.5807V56.1031C32.3471 58.391 34.8359 59.8102 36.8048 58.6451L52.2974 49.4773C53.1959 48.9457 53.7469 47.9792 53.7469 46.9353V17.7105C53.7469 16.6282 53.1551 15.6327 52.2043 15.1156L33.6405 5.02018Z" fill="#EA1B15"></path>
  <path d="M92.0001 46V40.88C93.2801 40.88 94.4668 40.6533 95.5601 40.2C96.6535 39.7467 97.6001 39.12 98.4001 38.32C99.2268 37.52 99.8668 36.5867 100.32 35.52C100.773 34.4267 101 33.2533 101 32C101 30.7467 100.773 29.5867 100.32 28.52C99.8668 27.4267 99.2268 26.48 98.4001 25.68C97.6001 24.88 96.6535 24.2533 95.5601 23.8C94.4668 23.3467 93.2801 23.12 92.0001 23.12V18C94.8535 18 97.3735 18.6 99.5601 19.8C101.773 21 103.493 22.6533 104.72 24.76C105.973 26.84 106.6 29.2533 106.6 32C106.6 34.72 105.973 37.1333 104.72 39.24C103.467 41.3467 101.747 43 99.5601 44.2C97.3735 45.4 94.8535 46 92.0001 46ZM86.2001 46V40.88H92.0001V46H86.2001ZM83.0401 46V18H88.5201V46H83.0401ZM86.2001 23.12V18H92.0001V23.12H86.2001ZM122.288 46L122.088 41.96V35.88C122.088 34.68 121.955 33.6667 121.688 32.84C121.421 31.9867 121.008 31.3467 120.448 30.92C119.915 30.4667 119.195 30.24 118.288 30.24C117.488 30.24 116.768 30.4133 116.128 30.76C115.488 31.1067 114.941 31.6667 114.488 32.44L109.688 30.8C110.061 29.9467 110.608 29.12 111.328 28.32C112.048 27.4933 112.981 26.8267 114.128 26.32C115.301 25.7867 116.728 25.52 118.408 25.52C120.408 25.52 122.075 25.88 123.408 26.6C124.768 27.32 125.781 28.3867 126.448 29.8C127.115 31.1867 127.435 32.8933 127.408 34.92L127.288 46H122.288ZM116.768 46.48C114.368 46.48 112.501 45.9467 111.168 44.88C109.861 43.8133 109.208 42.3067 109.208 40.36C109.208 38.2267 109.915 36.6267 111.328 35.56C112.768 34.4667 114.781 33.92 117.368 33.92H122.448V37.84H119.208C117.475 37.84 116.275 38.0533 115.608 38.48C114.941 38.88 114.608 39.4533 114.608 40.2C114.608 40.7867 114.875 41.2533 115.408 41.6C115.941 41.92 116.688 42.08 117.648 42.08C118.501 42.08 119.261 41.88 119.928 41.48C120.595 41.0533 121.115 40.52 121.488 39.88C121.888 39.2133 122.088 38.5333 122.088 37.84H123.488C123.488 40.56 122.955 42.68 121.888 44.2C120.848 45.72 119.141 46.48 116.768 46.48ZM143.616 46L143.416 41.96V35.88C143.416 34.68 143.283 33.6667 143.016 32.84C142.749 31.9867 142.336 31.3467 141.776 30.92C141.243 30.4667 140.523 30.24 139.616 30.24C138.816 30.24 138.096 30.4133 137.456 30.76C136.816 31.1067 136.269 31.6667 135.816 32.44L131.016 30.8C131.389 29.9467 131.936 29.12 132.656 28.32C133.376 27.4933 134.309 26.8267 135.456 26.32C136.629 25.7867 138.056 25.52 139.736 25.52C141.736 25.52 143.403 25.88 144.736 26.6C146.096 27.32 147.109 28.3867 147.776 29.8C148.443 31.1867 148.763 32.8933 148.736 34.92L148.616 46H143.616ZM138.096 46.48C135.696 46.48 133.829 45.9467 132.496 44.88C131.189 43.8133 130.536 42.3067 130.536 40.36C130.536 38.2267 131.243 36.6267 132.656 35.56C134.096 34.4667 136.109 33.92 138.696 33.92H143.776V37.84H140.536C138.803 37.84 137.603 38.0533 136.936 38.48C136.269 38.88 135.936 39.4533 135.936 40.2C135.936 40.7867 136.203 41.2533 136.736 41.6C137.269 41.92 138.016 42.08 138.976 42.08C139.829 42.08 140.589 41.88 141.256 41.48C141.923 41.0533 142.443 40.52 142.816 39.88C143.216 39.2133 143.416 38.5333 143.416 37.84H144.816C144.816 40.56 144.283 42.68 143.216 44.2C142.176 45.72 140.469 46.48 138.096 46.48ZM163.104 46.48C161.691 46.48 160.371 46.3067 159.144 45.96C157.918 45.6133 156.824 45.1333 155.864 44.52C154.904 43.88 154.104 43.1733 153.464 42.4C152.851 41.6267 152.451 40.8133 152.264 39.96L157.624 38.36C157.971 39.2667 158.584 40.0533 159.464 40.72C160.344 41.36 161.451 41.6933 162.784 41.72C164.198 41.7467 165.344 41.44 166.224 40.8C167.131 40.16 167.584 39.3333 167.584 38.32C167.584 37.44 167.224 36.7067 166.504 36.12C165.811 35.5067 164.851 35.04 163.624 34.72L159.984 33.76C158.624 33.4133 157.424 32.8933 156.384 32.2C155.344 31.48 154.531 30.6 153.944 29.56C153.358 28.52 153.064 27.3067 153.064 25.92C153.064 23.28 153.931 21.2267 155.664 19.76C157.424 18.2667 159.904 17.52 163.104 17.52C164.891 17.52 166.451 17.7867 167.784 18.32C169.144 18.8267 170.278 19.56 171.184 20.52C172.091 21.48 172.784 22.6133 173.264 23.92L167.944 25.56C167.624 24.6533 167.038 23.88 166.184 23.24C165.331 22.6 164.251 22.28 162.944 22.28C161.611 22.28 160.558 22.5867 159.784 23.2C159.038 23.8133 158.664 24.68 158.664 25.8C158.664 26.68 158.958 27.3733 159.544 27.88C160.158 28.3867 160.984 28.7733 162.024 29.04L165.704 29.96C168.104 30.5467 169.971 31.6 171.304 33.12C172.638 34.64 173.304 36.3333 173.304 38.2C173.304 39.8533 172.904 41.3067 172.104 42.56C171.304 43.7867 170.144 44.7467 168.624 45.44C167.104 46.1333 165.264 46.48 163.104 46.48Z" fill="#000514"></path>
</svg>
