<?xml version="1.0" encoding="utf-8"?>
<!-- Generator: Adobe Illustrator 26.1.0, SVG Export Plug-In . SVG Version: 6.00 Build 0)  -->
<svg version="1.1" id="Layer_1" xmlns="http://www.w3.org/2000/svg" xmlns:xlink="http://www.w3.org/1999/xlink" x="0px" y="0px"
	 viewBox="0 0 184 44" style="enable-background:new 0 0 184 44;" xml:space="preserve">
<style type="text/css">
	.st0{fill:#FFFFFF;}
</style>
<desc>Created with Sketch.</desc>
<g id="Page-1">
	<g id="Group" transform="translate(-0.002027, 0.531250)">
		<path id="Path" class="st0" d="M37.3,33.1l-9.2-5.3c-1.3-0.7-2.9-0.3-3.7,1c-0.3,0.5-0.4,1.1-0.3,1.6v10.4c0,1.5,1.2,2.7,2.7,2.7
			c1.5,0,2.7-1.2,2.7-2.7v-6l5.1,3c1.3,0.7,2.9,0.3,3.7-1C39,35.5,38.6,33.9,37.3,33.1"/>
		<path id="Path2" class="st0" d="M14.4,21.8c0-1-0.5-1.8-1.3-2.3L4,14.1c-0.4-0.2-0.9-0.4-1.3-0.4c-0.9,0-1.8,0.5-2.3,1.3
			c-0.7,1.3-0.3,2.9,1,3.6l5.3,3.1l-5.3,3.1c-0.6,0.4-1,0.9-1.2,1.6c-0.2,0.7-0.1,1.4,0.3,2c0.5,0.8,1.3,1.3,2.3,1.3
			c0.5,0,0.9-0.1,1.3-0.4l9.2-5.3C13.9,23.6,14.5,22.7,14.4,21.8"/>
		<path id="Path3" class="st0" d="M6,10.4l9.2,5.3c1.1,0.6,2.4,0.4,3.2-0.4c0.5-0.5,0.9-1.2,0.9-2V2.7c0-1.5-1.2-2.7-2.7-2.7
			c-1.5,0-2.7,1.2-2.7,2.7v6l-5.2-3C7.4,5,5.8,5.4,5,6.7C4.3,8,4.7,9.6,6,10.4"/>
		<path id="Combined-Shape" class="st0" d="M26.7,22.2c0,0.2-0.1,0.5-0.3,0.6l-3.6,3.6c-0.1,0.1-0.4,0.3-0.6,0.3h-0.9
			c-0.2,0-0.5-0.1-0.6-0.3l-3.6-3.6c-0.1-0.1-0.3-0.4-0.3-0.6v-0.9c0-0.2,0.1-0.5,0.3-0.6l3.6-3.6c0.1-0.1,0.4-0.3,0.6-0.3h0.9
			c0.2,0,0.5,0.1,0.6,0.3l3.6,3.6c0.1,0.1,0.3,0.4,0.3,0.6V22.2z M23.4,21.8L23.4,21.8c0-0.2-0.1-0.4-0.2-0.5l-1.1-1.1
			C22,20.1,21.8,20,21.7,20h0c-0.1,0-0.4,0.1-0.5,0.2l-1.1,1.1c-0.1,0.1-0.2,0.3-0.2,0.5v0c0,0.2,0.1,0.4,0.2,0.5l1.1,1.1
			c0.1,0.1,0.3,0.2,0.5,0.2h0c0.2,0,0.4-0.1,0.5-0.2l1.1-1.1C23.3,22.1,23.4,21.9,23.4,21.8z"/>
		<path id="Path4" class="st0" d="M28.1,15.7l9.2-5.3c1.3-0.7,1.7-2.4,1-3.7c-0.7-1.3-2.4-1.7-3.7-1l-5.1,3v-6
			c0-1.5-1.2-2.7-2.7-2.7c-1.5,0-2.7,1.2-2.7,2.7v10.4c-0.1,0.5,0.1,1.1,0.3,1.6C25.2,16,26.8,16.4,28.1,15.7"/>
		<path id="Path5" class="st0" d="M17,27.5c-0.6-0.1-1.3,0-1.8,0.3L6,33.1c-1.3,0.7-1.7,2.4-1,3.7c0.7,1.3,2.4,1.7,3.7,1l5.2-3v6
			c0,1.5,1.2,2.7,2.7,2.7c1.5,0,2.7-1.2,2.7-2.7V30.2C19.3,28.8,18.3,27.7,17,27.5"/>
		<path id="Path6" class="st0" d="M43,15.1c-0.7-1.3-2.4-1.7-3.7-1l-9.2,5.3c-0.9,0.5-1.4,1.4-1.3,2.4c0,0.9,0.5,1.9,1.3,2.4
			l9.2,5.3c1.3,0.7,2.9,0.3,3.7-1c0.7-1.3,0.3-2.9-1-3.7l-5.2-3l5.2-3C43.3,18,43.7,16.4,43,15.1"/>
		<path id="Combined-Shape2" class="st0" d="M184,21.1L184,21.1v0.1c0,0.5-0.4,0.9-0.9,0.9h-12.9c0,0.3,0.1,0.6,0.1,0.9
			c0.6,2.8,3,4.9,5.8,4.9c0,0,0.2,0,0.4,0c0,0,0.1,0,0.1,0h0.3c0.1,0,0.1,0,0.2,0c0.1,0,0.1,0,0.2,0c0,0,0,0,0,0
			c0.9-0.1,1.9-0.5,2.7-1.1c0,0,0,0,0,0c0,0,0.1-0.1,0.1-0.1c0,0,0,0,0,0c0,0,0.1-0.1,0.1-0.1c0,0,0,0,0,0c0,0,0.1-0.1,0.1-0.1
			c0,0,0,0,0.1-0.1c0,0,0,0,0.1-0.1c0,0,0.1,0,0.1-0.1c0,0,0,0,0.1-0.1c0,0,0.1-0.1,0.1-0.1c0,0,0,0,0-0.1c0,0,0.1-0.1,0.1-0.1
			c0,0,0,0,0,0c0,0,0.1-0.1,0.1-0.1c0,0,0,0,0,0c0,0,0.1-0.1,0.1-0.1c0,0,0,0,0,0c0,0,0.1-0.1,0.1-0.1c0,0,0,0,0-0.1
			c0,0,0.1-0.1,0.1-0.1s0-0.1,0.1-0.1s0-0.1,0.1-0.1c0,0,0.1-0.1,0.1-0.1c0,0,0,0,0,0c0.1-0.1,0.2-0.2,0.2-0.4c0,0,0,0,0,0
			c0,0,0-0.1,0.1-0.1c0,0,0,0,0,0c0,0,0,0,0,0c0,0,0,0,0,0c0,0,0,0,0,0c0,0,0,0,0,0c0,0,0,0,0.1,0c0,0,0,0,0.1,0c0,0,0,0,0.1,0
			s0,0,0,0c0,0,0,0,0.1,0c0,0,0,0,0,0c0.1,0,0.2,0,0.2,0c0.1,0,0.2,0,0.2,0c0,0,0,0,0,0c0,0,0.1,0,0.1,0c0,0,0,0,0,0
			c0,0,0.1,0,0.1,0.1l0,0c0.4,0.3,0.6,0.9,0.3,1.3l0,0c0,0.1-0.1,0.1-0.1,0.1c0,0,0,0,0,0c-0.9,1.4-2.2,2.5-3.5,3.2c0,0-0.1,0-0.1,0
			c0,0,0,0,0,0c-0.6,0.3-1.3,0.5-2.1,0.6c0,0,0,0,0,0c-0.1,0-0.1,0-0.2,0c0,0-0.1,0-0.1,0c0,0-0.1,0-0.1,0c-0.1,0-0.2,0-0.3,0
			c0,0-0.3,0-0.6,0c-0.1,0-0.2,0-0.2,0c-4.3,0-7.8-3.6-7.8-8.1c0-4.5,3.5-8.1,7.9-8.1c0.1,0,0.3,0,0.4,0c1.5,0.1,2.9,0.6,4.1,1.4
			c0,0,0,0,0,0c0.1,0,0.1,0.1,0.2,0.1c0,0,0.1,0.1,0.1,0.1c0,0,0.1,0.1,0.1,0.1C182.7,16.7,183.8,18.7,184,21.1L184,21.1z
			 M170.3,20.3H182c-0.6-2.8-3-4.8-5.8-4.8C173.3,15.4,170.9,17.4,170.3,20.3z"/>
		<path id="Combined-Shape3" class="st0" d="M151,13.8c0.1,0.1,0.2,0.3,0.3,0.6c0,0,0,0.1,0,0.1v14.3c0,0.5-0.4,0.9-0.9,0.9
			s-0.9-0.4-0.9-0.9v-1.9c-0.4,0.4-0.7,0.8-1.2,1.2c0,0,0,0,0,0c0,0-0.1,0.1-0.1,0.1c-1.3,1-2.9,1.6-4.5,1.6c-2.6,0-5-1.4-6.3-3.5
			c0,0,0,0,0-0.1c0-0.1-0.1-0.1-0.1-0.2c0,0-0.1-0.1-0.1-0.1s-0.1-0.1-0.1-0.1c0-0.1-0.1-0.1-0.1-0.2c0,0,0,0,0-0.1
			c-0.5-1-0.8-2.2-0.9-3.4c0-0.1,0-0.3,0-0.4s0-0.3,0-0.4c0.1-1.2,0.4-2.4,0.9-3.4c0,0,0,0,0-0.1c0-0.1,0.1-0.1,0.1-0.2
			c0,0,0-0.1,0.1-0.1c0,0,0.1-0.1,0.1-0.1c0-0.1,0.1-0.1,0.1-0.2c0,0,0,0,0-0.1c1.4-2.1,3.7-3.5,6.3-3.5c1.8,0,3.5,0.7,4.8,1.8
			c0.4,0.3,0.7,0.6,1,1v-1.9c0,0,0-0.1,0-0.1c0-0.2,0.1-0.4,0.3-0.6c0,0,0,0,0,0c0,0,0,0,0.1,0c0,0,0,0,0,0c0,0,0,0,0,0s0,0,0,0
			c0,0,0,0,0,0c0,0,0,0,0.1,0c0,0,0,0,0,0c0,0,0,0,0.1,0c0,0,0,0,0,0c0.1,0,0.1,0,0.2-0.1c0,0,0,0,0,0c0,0,0.1,0,0.1,0
			c0,0,0.1,0,0.1,0c0,0,0.1,0,0.1,0c0,0,0.1,0,0.1,0c0,0,0,0,0,0c0.1,0,0.1,0,0.2,0.1h0c0,0,0,0,0.1,0c0,0,0,0,0,0c0,0,0,0,0.1,0
			c0,0,0,0,0,0c0,0,0,0,0,0S151,13.8,151,13.8C151,13.8,151,13.8,151,13.8C151,13.8,151,13.8,151,13.8C151,13.8,151,13.8,151,13.8z
			 M143.6,27.9c3.2,0,5.8-2.8,5.8-6.2c0-3.5-2.6-6.3-5.8-6.3c-3.2,0-5.8,2.8-5.8,6.3c0,0.1,0,0.2,0,0.3c0,0,0,0.1,0,0.1
			c0,0.1,0,0.1,0,0.2c0,0.1,0,0.1,0,0.1c0,0.1,0,0.1,0,0.2c0,0,0,0.1,0,0.1c0,0.1,0,0.1,0,0.2c0,0,0,0.1,0,0.1c0,0.1,0,0.1,0,0.2
			c0,0,0,0,0,0C138.7,25.9,140.9,27.9,143.6,27.9z"/>
		<path id="Path7" class="st0" d="M127.6,6.8h-0.3c0,0-0.1,0-0.1,0c0,0-0.1,0-0.1,0c-0.1,0-0.2,0-0.3,0c0,0,0,0-0.1,0
			c-0.1,0-0.1,0-0.2,0c0,0,0,0,0,0c-0.1,0-0.1,0-0.2,0c0,0,0,0,0,0c-0.1,0-0.2,0-0.2,0c0,0,0,0,0,0c-0.5,0.1-0.9,0.2-1.3,0.4
			c0,0,0,0,0,0c-0.1,0-0.1,0.1-0.2,0.1c0,0,0,0,0,0c0,0-0.1,0.1-0.1,0.1c0,0,0,0-0.1,0c0,0-0.1,0.1-0.1,0.1c0,0-0.1,0-0.1,0.1
			c0,0,0,0-0.1,0.1c0,0-0.1,0.1-0.1,0.1c0,0,0,0,0,0c0,0.1-0.1,0.1-0.1,0.1c0,0,0,0,0,0c0,0-0.1,0.1-0.1,0.1c0,0,0,0,0,0.1
			c0,0-0.1,0.1-0.1,0.1c0,0,0,0,0,0c0,0-0.1,0.1-0.1,0.1c0,0,0,0,0,0c-0.3,0.4-0.4,0.9-0.5,1.5c0,0,0,0,0,0c0,0.1,0,0.2,0,0.2
			c0,0,0,0,0,0.1c0,0.1,0,0.1,0,0.2c0,0,0,0.1,0,0.1c0,0.1,0,0.1,0,0.2c0,0.1,0,0.1,0,0.2c0,0,0,0.1,0,0.1c0,0.1,0,0.2,0,0.3
			c0,0,0,0,0,0.1c0,0.1,0,0.2,0,0.3v1.5h-1.9c-0.1,0-0.2,0-0.4,0.1c-0.4,0.1-0.6,0.5-0.6,0.8c0,0.4,0.2,0.7,0.5,0.9
			c0.1,0.1,0.3,0.1,0.5,0.2h0v0h1.9v13.6c0,0,0,0,0,0.1c0,0,0,0,0,0c0,0.2,0.1,0.4,0.2,0.6l0,0c0,0,0,0,0.1,0.1c0,0,0,0,0,0
			c0,0,0,0,0.1,0c0,0,0,0,0,0c0,0,0,0,0,0c0.2,0.1,0.3,0.2,0.5,0.2c0,0,0.1,0,0.1,0c0.2,0,0.4-0.1,0.5-0.2l0,0c0,0,0,0,0.1-0.1
			c0,0,0,0,0,0c0,0,0,0,0,0c0.1-0.2,0.2-0.4,0.2-0.6V15.2h2.1v0h0c0.6,0,1-0.5,0.9-1c0,0,0,0,0,0c0,0,0,0,0-0.1c0,0,0,0,0,0
			c0-0.2-0.1-0.4-0.2-0.5c0,0,0,0,0,0c0,0,0,0,0,0c0,0,0,0-0.1-0.1c0,0,0,0,0,0c0,0,0,0,0,0c0,0,0,0,0,0c0,0,0,0,0,0c0,0,0,0-0.1,0
			c0,0,0,0,0,0c0,0,0,0-0.1,0c0,0,0,0,0,0c0,0,0,0-0.1,0c0,0,0,0,0,0c0,0,0,0-0.1,0c0,0,0,0,0,0c0,0,0,0-0.1,0c0,0,0,0,0,0s0,0,0,0
			s0,0,0,0h-2.1v-1.5c0,0,0,0,0,0c0-0.1,0-0.2,0-0.2c0,0,0,0,0-0.1c0-0.1,0-0.1,0-0.2c0,0,0,0,0,0c0-0.1,0-0.1,0-0.2
			c0.1-0.8,0.2-1.2,0.4-1.5c0,0,0,0,0,0c0,0,0,0,0-0.1c0,0,0,0,0,0c0,0,0,0,0,0c0,0,0-0.1,0.1-0.1c0.2-0.3,0.6-0.4,1.2-0.5
			c0,0,0,0,0,0c0,0,0.1,0,0.1,0c0,0,0,0,0.1,0c0,0,0.1,0,0.1,0c0,0,0,0,0.1,0c0,0,0.1,0,0.1,0s0.1,0,0.1,0s0.1,0,0.1,0
			c0,0,0.1,0,0.1,0h0c0,0,0.1,0,0.1,0c0,0,0.1,0,0.1,0h0.3c0.5,0,1-0.4,1-1C128.5,7.2,128.1,6.8,127.6,6.8"/>
		<path id="Path8" class="st0" d="M132.6,6.8C132.6,6.8,132.6,6.8,132.6,6.8C132.6,6.8,132.6,6.8,132.6,6.8
			C132.5,6.8,132.5,6.8,132.6,6.8c-0.1,0-0.1,0-0.1,0s0,0,0,0c0,0,0,0-0.1,0c0,0,0,0,0,0c0,0-0.1,0-0.1,0c-0.5,0-0.9,0.4-0.9,0.9
			v21.2c0,0.5,0.4,0.9,0.9,0.9c0,0,0.1,0,0.1,0c0,0,0,0,0,0c0,0,0.1,0,0.1,0c0,0,0,0,0,0c0,0,0,0,0.1,0c0,0,0,0,0,0
			c0.4-0.1,0.6-0.4,0.7-0.8c0,0,0-0.1,0-0.1V7.7c0,0,0-0.1,0-0.1C133.1,7.2,132.9,6.9,132.6,6.8"/>
		<path id="Path9" class="st0" d="M60.9,24.8c0-0.1,0-0.1,0-0.2c0,0,0-0.1,0-0.1c0,0,0-0.1,0-0.1c0,0,0-0.1,0-0.1c0,0,0-0.1,0-0.1
			c0,0,0-0.1,0-0.1c0,0,0-0.1,0-0.1c0-0.1,0-0.1,0-0.1c0,0,0,0,0-0.1c0-0.1,0-0.1-0.1-0.2c0,0,0,0,0,0c0-0.1-0.1-0.1-0.1-0.2
			c0,0,0,0,0,0c-0.2-0.4-0.5-0.8-0.9-1.1c0,0,0,0,0,0c-0.1,0-0.1-0.1-0.2-0.1c0,0,0,0,0,0c0,0,0,0,0,0c0,0-0.1-0.1-0.1-0.1
			c-0.5-0.3-1-0.6-1.8-0.9c0,0,0,0,0,0c0,0,0,0,0,0c-0.4-0.2-0.9-0.3-1.4-0.5c0,0,0,0,0,0c0,0,0,0,0,0c0,0,0,0,0,0
			c0,0-0.1,0-0.2-0.1c0,0-0.1,0-0.1,0c-0.2-0.1-0.3-0.1-0.5-0.2c-0.1,0-0.2-0.1-0.4-0.1c0,0-0.1,0-0.2-0.1c0,0,0,0,0,0
			c0,0-0.1,0-0.1,0c-0.4-0.1-0.7-0.2-1-0.3c-0.4-0.2-0.9-0.3-1.2-0.6c0,0,0,0,0,0c-0.5-0.3-0.8-0.6-0.8-1.1l0,0c0,0,0-0.1,0-0.1
			c0,0,0,0,0,0c0,0,0-0.1,0-0.1c0-0.1,0-0.1,0-0.2c0,0,0,0,0,0c0,0,0-0.1,0-0.1c0,0,0,0,0,0c0,0,0-0.1,0-0.1c0,0,0,0,0,0
			c0,0,0-0.1,0-0.1c0,0,0,0,0,0c0.2-0.6,0.7-1.1,1.2-1.4c0,0,0.1,0,0.1-0.1c0,0,0.1,0,0.1-0.1c0.1,0,0.1-0.1,0.2-0.1
			c0,0,0.1,0,0.1,0c0.1,0,0.1,0,0.2-0.1c0,0,0.1,0,0.1,0c0.1,0,0.1,0,0.2-0.1c0,0,0.1,0,0.1,0c0.1,0,0.1,0,0.2,0c0,0,0.1,0,0.1,0
			c0.1,0,0.1,0,0.2,0c0,0,0.1,0,0.1,0c0.1,0,0.1,0,0.2,0c0,0,0,0,0.1,0c0.1,0,0.2,0,0.3,0c0.1,0,0.2,0,0.3,0c0,0,0,0,0,0
			c0.7,0,1.2,0.2,1.7,0.4c0,0,0.1,0,0.1,0.1c0,0,0,0,0.1,0c0,0,0.1,0,0.1,0.1c0,0,0,0,0,0c0,0,0.1,0.1,0.1,0.1c0,0,0,0,0,0
			c0.1,0,0.1,0.1,0.2,0.1c0,0,0,0,0,0c0.1,0,0.1,0.1,0.1,0.1c0,0,0,0,0.1,0c0.1,0.1,0.3,0.2,0.4,0.3c0,0,0,0,0,0
			c0.1,0.1,0.2,0.2,0.3,0.3c0,0,0,0,0,0c0,0,0,0,0,0c0,0,0,0,0,0c0,0,0.1,0,0.1,0.1c0,0,0,0,0,0c0,0,0.1,0,0.1,0c0,0,0,0,0,0
			c0,0,0.1,0,0.1,0c0,0,0,0,0,0c0,0,0.1,0,0.1,0c0,0,0,0,0,0c0.1,0,0.2,0,0.2,0c0,0,0,0,0,0c0,0,0,0,0.1,0c0,0,0,0,0,0c0,0,0,0,0,0
			c0,0,0.1,0,0.1-0.1c0,0,0,0,0,0c0,0,0.1,0,0.1-0.1c0,0,0,0,0,0c0,0,0.1-0.1,0.1-0.1c0,0,0,0,0-0.1c0,0,0,0,0,0
			c0.2-0.3,0.1-0.6-0.2-1c0,0,0,0,0,0c0,0,0,0,0,0c-0.7-0.9-2.2-1.8-3.6-2.1c0,0,0,0,0,0c-0.1,0-0.1,0-0.2,0c0,0,0,0-0.1,0
			c-0.1,0-0.1,0-0.2,0c0,0,0,0-0.1,0c0,0-0.1,0-0.1,0c0,0,0,0-0.1,0c-0.1,0-0.1,0-0.2,0c-0.1,0-0.2,0-0.3,0c-0.1,0-0.1,0-0.2,0
			c0,0-0.1,0-0.1,0c-0.1,0-0.2,0-0.2,0c0,0,0,0-0.1,0c-0.1,0-0.2,0-0.3,0c0,0,0,0,0,0c-0.1,0-0.2,0-0.3,0c0,0,0,0,0,0
			c-0.1,0-0.2,0-0.3,0c0,0,0,0,0,0c-0.2,0-0.3,0.1-0.5,0.1c0,0,0,0,0,0c-0.1,0-0.2,0-0.2,0.1c-0.1,0-0.2,0.1-0.2,0.1c0,0,0,0,0,0
			c-0.1,0-0.1,0.1-0.2,0.1c0,0,0,0,0,0c-0.1,0-0.1,0.1-0.2,0.1c0,0,0,0,0,0c-0.1,0-0.1,0.1-0.2,0.1c0,0,0,0,0,0
			c-0.1,0-0.1,0.1-0.2,0.1c0,0,0,0,0,0c-0.1,0-0.1,0.1-0.2,0.1c0,0,0,0,0,0c-0.1,0-0.1,0.1-0.2,0.1c-0.1,0.1-0.1,0.1-0.2,0.2
			c0,0,0,0,0,0c-0.3,0.2-0.6,0.5-0.9,0.8c0,0,0,0,0,0c0,0-0.1,0.1-0.1,0.1c0,0,0,0.1-0.1,0.1c0,0,0,0,0,0.1c0,0.1-0.1,0.1-0.1,0.2
			c0,0,0,0,0,0c-0.2,0.4-0.3,0.9-0.4,1.5c0,0,0,0,0,0c0,0.1,0,0.2,0,0.3c0,0.1,0,0.2,0,0.2c0,0,0,0,0,0c0,1.1,0.6,2,1.5,2.6
			c0,0,0,0,0,0c0,0,0.1,0.1,0.1,0.1c0,0,0.1,0,0.1,0.1c0,0,0,0,0,0c0.9,0.6,2,0.9,2.9,1.2c0.5,0.1,0.9,0.2,1,0.3c0,0,0.1,0,0.1,0
			c0.6,0.2,1,0.3,1.3,0.5c0,0,0.1,0,0.1,0c0,0,0,0,0,0c0.2,0.1,0.4,0.2,0.6,0.3c0.2,0.1,0.3,0.2,0.4,0.2c0.4,0.2,0.7,0.5,0.8,0.8
			c0,0,0,0,0,0c0,0,0,0,0,0.1c0,0,0,0,0,0c0,0,0,0,0,0.1c0,0,0,0,0,0.1c0,0,0,0,0,0c0,0,0,0,0,0.1c0,0,0,0,0,0c0,0,0,0.1,0,0.1
			c0,0,0,0,0,0c0,0,0,0.1,0,0.1c0,0,0,0,0,0c0,0,0,0.1,0,0.1c0,0,0,0,0,0c0,0,0,0.1,0,0.1c0,0.1,0,0.1,0,0.2c0,0,0,0,0,0.1
			c0,0.1,0,0.1,0,0.2c0,0,0,0,0,0c0,0.1-0.1,0.3-0.1,0.4c0,0,0,0,0,0c0,0.1-0.1,0.1-0.1,0.2c0,0,0,0,0,0c-0.1,0.1-0.1,0.2-0.2,0.4
			c0,0.1-0.1,0.1-0.1,0.2c0,0,0,0,0,0c-0.1,0.1-0.2,0.2-0.3,0.3c0,0,0,0,0,0c-0.1,0-0.1,0.1-0.2,0.1c0,0,0,0,0,0
			c-0.1,0.1-0.2,0.1-0.3,0.2c0,0-0.1,0-0.1,0.1c0,0-0.1,0-0.1,0.1c0,0-0.1,0-0.1,0c-0.1,0-0.2,0.1-0.3,0.1c0,0,0,0,0,0
			c-0.1,0-0.1,0-0.2,0.1c0,0,0,0-0.1,0c-0.2,0.1-0.4,0.1-0.6,0.1c0,0,0,0,0,0c-0.1,0-0.2,0-0.3,0c0,0-0.1,0-0.1,0c0,0-0.1,0-0.1,0
			c-0.1,0-0.2,0-0.2,0c-0.1,0-0.3,0-0.4,0c-0.1,0-0.1,0-0.2,0c-0.1,0-0.2,0-0.2,0c-0.1,0-0.1,0-0.2,0c-0.1,0-0.1,0-0.2,0
			c-0.1,0-0.2,0-0.3-0.1c-0.1,0-0.1,0-0.2,0c-0.1,0-0.1,0-0.2,0c-0.1,0-0.1,0-0.2-0.1c0,0-0.1,0-0.1,0c-0.1,0-0.2-0.1-0.3-0.1
			c0,0,0,0-0.1,0c-0.2-0.1-0.4-0.2-0.7-0.3c0,0,0,0,0,0c-0.1-0.1-0.4-0.2-0.6-0.3c0,0,0,0-0.1,0c-0.2-0.1-0.3-0.2-0.4-0.2
			c0,0,0,0,0,0c0,0,0,0,0,0c0,0-0.1,0-0.1,0c0,0,0,0,0,0c-0.1,0-0.2-0.1-0.2-0.1c0,0,0,0-0.1,0c0,0,0,0,0,0c-0.1,0-0.3,0.1-0.4,0.2
			c0,0-0.1,0-0.1,0.1c0,0,0,0,0,0c0,0,0,0,0,0.1c0,0,0,0,0,0c0,0,0,0,0,0c0,0,0,0,0,0c0,0,0,0,0,0c0,0,0,0,0,0c0,0,0,0,0,0.1
			c0,0,0,0,0,0c0,0,0,0,0,0.1c0,0,0,0,0,0c0,0,0,0.1,0,0.1c0,0,0,0,0,0c0,0,0,0.1,0,0.1c0,0,0,0,0,0c0,0,0,0.1,0,0.1c0,0,0,0,0,0
			c0,0,0,0,0,0.1c0,0,0,0,0,0c0.1,0.1,0.1,0.2,0.2,0.4c0.1,0.1,0.3,0.2,0.4,0.4c0,0,0,0,0,0c0,0,0.1,0.1,0.1,0.1c0,0,0,0,0,0
			c0.1,0.1,0.3,0.2,0.4,0.3c0,0,0.1,0,0.1,0.1c0,0,0.1,0,0.1,0.1c0,0,0.1,0.1,0.2,0.1c0,0,0.1,0,0.1,0.1c0.1,0,0.2,0.1,0.2,0.1
			c0,0,0,0,0,0c0.1,0,0.2,0.1,0.3,0.1c0,0,0.1,0,0.1,0c0,0,0,0,0,0c0.8,0.3,1.9,0.5,2.8,0.6c0.1,0,0.1,0,0.2,0h0c0,0,0.1,0,0.1,0
			c0.1,0,0.1,0,0.2,0c0,0,0,0,0,0c1.5,0,2.7-0.4,3.7-1.2c0,0,0,0,0,0c1.1-0.9,1.8-2.1,1.8-3.4C60.9,25,60.9,25,60.9,24.8
			C60.9,24.8,60.9,24.8,60.9,24.8"/>
		<path id="Path10" class="st0" d="M70.4,13.6C70.4,13.6,70.4,13.6,70.4,13.6c-1.8,0-3.6,0.7-4.8,2.1v-1.1c0-0.5-0.4-0.9-0.9-0.9
			c0,0-0.1,0-0.1,0c-0.2,0-0.4,0.1-0.6,0.3c0,0,0,0,0,0c0,0,0,0,0,0c0,0,0,0,0,0c0,0,0,0,0,0c0,0,0,0,0,0c0,0,0,0,0,0c0,0,0,0,0,0.1
			c0,0,0,0,0,0c0,0,0,0,0,0.1c0,0.1,0,0.1-0.1,0.2c0,0,0,0,0,0c0,0,0,0.1,0,0.1c0,0,0,0.1,0,0.1V29l0,0.1l0,0c0,0,0,0,0,0.1
			c0,0,0,0,0,0c0,0,0,0,0,0.1c0.1,0.2,0.3,0.4,0.6,0.5l0,0h0.2c0,0,0.1,0,0.1,0c0,0,0,0,0.1,0c0,0,0,0,0,0c0,0,0.1,0,0.1,0
			c0,0,0,0,0,0c0.2-0.1,0.3-0.2,0.4-0.3c0,0,0,0,0,0c0.1-0.1,0.1-0.1,0.1-0.2c0,0,0,0,0,0c0,0,0,0,0,0c0,0,0-0.1,0-0.1l0,0v-8.8
			c0.1-2.6,2.2-4.7,4.8-4.8c0,0,0,0,0,0c2.6,0,4.7,2.1,4.7,4.7v8.6c0,0,0,0.1,0,0.1c0,0.2,0.1,0.4,0.3,0.6c0,0,0,0,0,0c0,0,0,0,0,0
			c0,0,0,0,0,0c0,0,0,0,0,0c0,0,0,0,0,0c0,0,0,0,0,0c0,0,0,0,0.1,0c0,0,0,0,0,0c0,0,0,0,0.1,0h0c0.1,0,0.1,0,0.2,0.1c0,0,0,0,0,0
			c0,0,0.1,0,0.1,0c0,0,0.1,0,0.1,0c0,0,0.1,0,0.1,0c0,0,0.1,0,0.1,0c0,0,0,0,0,0c0.1,0,0.1,0,0.2-0.1c0,0,0,0,0.1,0c0,0,0,0,0,0
			c0,0,0,0,0.1,0c0,0,0,0,0,0c0,0,0,0,0,0c0,0,0,0,0,0c0,0,0,0,0,0c0,0,0,0,0.1,0c0,0,0,0,0,0c0.1-0.1,0.2-0.3,0.3-0.6
			c0,0,0-0.1,0-0.1v-8.6C77,16.6,74.1,13.6,70.4,13.6"/>
		<path id="Combined-Shape4" class="st0" d="M87.3,13.6c4.2,0,7.7,3.6,7.7,8.1s-3.4,8.1-7.7,8.1c-0.1,0-0.3,0-0.4,0c0,0,0,0-0.1,0
			c-0.1,0-0.2,0-0.3,0c0,0,0,0,0,0c-1.7-0.2-3.2-0.9-4.5-2.2c-0.1-0.1-0.1-0.1-0.2-0.2c0,0,0,0,0,0c0,0-0.1-0.1-0.1-0.1
			c-0.1-0.1-0.1-0.1-0.2-0.2c0-0.1-0.1-0.1-0.1-0.2c0,0-0.1-0.1-0.1-0.1c-0.1-0.1-0.1-0.2-0.2-0.3c0,0,0,0,0,0
			c-0.8-1.1-1.3-2.3-1.4-3.6c0-0.1,0-0.2,0-0.4c0,0,0,0,0,0c0-0.1,0-0.2,0-0.3c0,0,0,0,0-0.1c0-0.1,0-0.3,0-0.4s0-0.3,0-0.4
			c0,0,0-0.1,0-0.1c0-0.1,0-0.2,0-0.3c0,0,0,0,0,0c0-0.1,0-0.2,0-0.4c0.2-1.3,0.7-2.5,1.4-3.6c0,0,0,0,0,0c0.1-0.1,0.1-0.2,0.2-0.3
			c0,0,0.1-0.1,0.1-0.1c0-0.1,0.1-0.1,0.1-0.2c0.1-0.1,0.1-0.1,0.2-0.2c0,0,0.1-0.1,0.1-0.1c0,0,0,0,0,0c0-0.1,0.1-0.1,0.1-0.1
			c1.2-1.3,2.8-2,4.5-2.2c0,0,0,0,0,0c0.1,0,0.2,0,0.3,0c0,0,0,0,0.1,0C87,13.6,87.1,13.6,87.3,13.6z M93.1,21
			C93.1,21,93.1,21,93.1,21c-0.1-1.4-0.7-2.7-1.6-3.7c0,0-0.1-0.1-0.1-0.1c0,0,0,0-0.1-0.1c0,0-0.1-0.1-0.1-0.1c0,0-0.1-0.1-0.1-0.1
			c0,0-0.1-0.1-0.1-0.1c-0.1-0.1-0.1-0.1-0.2-0.2c0,0,0,0,0,0c-0.8-0.7-1.8-1.1-2.9-1.2c0,0,0,0,0,0c-0.1,0-0.2,0-0.2,0
			c0,0,0,0-0.1,0c-0.1,0-0.2,0-0.3,0s-0.2,0-0.3,0c0,0,0,0-0.1,0c-0.1,0-0.2,0-0.2,0c0,0,0,0,0,0c-1.1,0.1-2,0.6-2.9,1.2
			c0,0,0,0,0,0c-0.1,0.1-0.1,0.1-0.2,0.2c0,0-0.1,0-0.1,0.1c0,0-0.1,0.1-0.1,0.1s-0.1,0.1-0.1,0.1c0,0,0,0-0.1,0.1
			c0,0-0.1,0.1-0.1,0.1c-0.9,1-1.4,2.3-1.6,3.7c0,0,0,0,0,0c0,0.1,0,0.2,0,0.3c0,0,0,0,0,0c0,0.1,0,0.2,0,0.3c0,3.4,2.6,6.2,5.8,6.2
			s5.8-2.8,5.8-6.2c0-0.1,0-0.2,0-0.3c0,0,0,0,0,0C93.1,21.2,93.1,21.1,93.1,21z"/>
		<path id="Path11" class="st0" d="M117.6,14C117.6,13.9,117.6,13.9,117.6,14c-0.1-0.1-0.2-0.2-0.4-0.3c0,0,0,0,0,0c0,0,0,0-0.1,0
			c0,0,0,0,0,0c-0.1,0-0.3-0.1-0.4,0h0c-0.3,0-0.5,0.2-0.7,0.4c0,0,0,0,0,0c0,0,0,0.1-0.1,0.1l0,0v0l-4.5,12.3l-3.5-8.4
			c0-0.1-0.1-0.1-0.1-0.2c-0.2-0.2-0.5-0.4-0.8-0.4c0,0-0.1,0-0.1,0c0,0,0,0,0,0c-0.3,0.1-0.6,0.3-0.7,0.6c0,0,0,0,0,0l-3.5,8.4
			l-1.7-4.6l-2.8-7.6c0,0,0-0.1-0.1-0.1c0,0,0,0,0,0c-0.1-0.2-0.2-0.3-0.4-0.4c0,0,0,0,0,0c-0.1,0-0.2-0.1-0.3-0.1c0,0,0,0,0,0
			c0,0-0.1,0-0.1,0h0c0,0,0,0,0,0c0,0,0,0-0.1,0c0,0,0,0,0,0c0,0,0,0-0.1,0c0,0,0,0,0,0c0,0,0,0-0.1,0c0,0,0,0,0,0c0,0,0,0-0.1,0
			c0,0,0,0,0,0c-0.2,0.1-0.3,0.2-0.4,0.3c0,0,0,0,0,0s0,0,0,0c-0.1,0.1-0.1,0.3-0.1,0.4c0,0.1,0,0.3,0.1,0.4l3.2,8.7l2.1,5.6
			c0,0,0,0,0,0c0.1,0.2,0.2,0.4,0.4,0.4c0,0,0,0,0,0s0,0,0,0c0,0,0,0,0,0c0,0,0,0,0,0c0,0,0,0,0,0c0,0,0.1,0,0.1,0c0,0,0,0,0,0
			c0,0,0,0,0,0c0,0,0,0,0,0c0.1,0,0.2,0,0.2,0c0,0,0.1,0,0.1,0c0,0,0.1,0,0.1,0c0,0,0,0,0,0c0,0,0.1,0,0.1,0c0,0,0,0,0,0
			c0,0,0,0,0.1,0c0,0,0,0,0.1,0c0,0,0,0,0,0c0,0,0.1,0,0.1-0.1c0,0,0,0,0,0c0,0,0.1-0.1,0.1-0.1c0,0,0,0,0,0c0,0,0-0.1,0.1-0.1
			c0,0,0-0.1,0.1-0.1l0,0l0,0l0,0l3.5-8.4l3.6,8.5c0,0.1,0.1,0.2,0.1,0.2c0,0,0,0,0,0c0,0,0,0,0.1,0.1c0,0,0,0,0,0c0,0,0,0,0.1,0.1
			c0,0,0,0,0,0c0,0,0.1,0,0.1,0.1c0,0,0,0,0,0c0,0,0.1,0,0.1,0c0,0,0,0,0,0c0,0,0.1,0,0.1,0c0,0,0.1,0,0.1,0h0.1c0,0,0.1,0,0.1,0
			c0,0,0,0,0,0c0,0,0.1,0,0.1,0c0,0,0,0,0,0c0,0,0.1,0,0.1-0.1c0,0,0,0,0,0c0,0,0.1-0.1,0.1-0.1c0.2-0.1,0.3-0.3,0.3-0.5v0l2.2-5.9
			l3.1-8.3C117.8,14.6,117.8,14.2,117.6,14C117.6,14,117.6,14,117.6,14"/>
		<path id="Path12" class="st0" d="M167.3,14.2C167.3,14.2,167.2,14.2,167.3,14.2C167.2,14.2,167.2,14.1,167.3,14.2
			c0-0.1,0-0.1,0-0.1c0,0,0,0,0,0c0,0,0,0,0-0.1c0,0,0,0,0,0c0,0,0-0.1,0-0.1c0,0,0,0,0,0c0-0.1-0.1-0.2-0.2-0.2c0,0,0,0,0,0
			c0,0,0,0,0,0c-0.3-0.3-0.8-0.4-1.2-0.1c0,0,0,0,0,0c0,0,0,0,0,0c0,0,0,0-0.1,0.1c0,0,0,0,0,0l-9.2,8.9V7.7c0,0,0-0.1,0-0.1
			c0-0.3-0.3-0.6-0.6-0.8c0,0,0,0,0,0c0,0,0,0-0.1,0c0,0,0,0,0,0c0,0,0,0-0.1,0c0,0,0,0,0,0c0,0,0,0-0.1,0c0,0,0,0,0,0
			c0,0-0.1,0-0.1,0c-0.5,0-0.9,0.4-0.9,0.9v21.2c0,0.5,0.4,0.9,0.9,0.9c0,0,0.1,0,0.1,0c0,0,0,0,0,0c0,0,0.1,0,0.1,0c0,0,0,0,0,0
			c0,0,0,0,0.1,0c0,0,0,0,0,0c0.4-0.1,0.6-0.4,0.7-0.8c0,0,0-0.1,0-0.1v-3.6l3.1-3.1l6,7.2c0,0.1,0.1,0.1,0.1,0.2c0,0,0,0,0,0
			c0,0,0,0,0,0c0,0,0,0,0.1,0c0,0,0,0,0,0c0,0,0.1,0,0.1,0c0,0,0,0,0,0c0,0,0.1,0,0.1,0c0,0,0,0,0,0c0,0,0.1,0,0.1,0c0,0,0,0,0,0
			c0,0,0.1,0,0.1,0c0.1,0,0.1,0,0.2,0c0,0,0,0,0,0c0.1,0,0.2-0.1,0.3-0.1c0,0,0,0,0,0c0,0,0.1-0.1,0.1-0.1l0,0
			c0.4-0.4,0.4-0.8,0.2-1.2c0,0,0-0.1-0.1-0.1l-6.1-7.4l6-5.8c0.2-0.2,0.3-0.4,0.3-0.6c0,0,0,0,0,0c0,0,0,0,0-0.1
			C167.3,14.3,167.3,14.3,167.3,14.2C167.3,14.3,167.3,14.3,167.3,14.2C167.3,14.3,167.3,14.3,167.3,14.2
			C167.3,14.2,167.3,14.2,167.3,14.2"/>
	</g>
</g>
</svg>
