<?xml version="1.0" encoding="UTF-8"?>
<svg xmlns="http://www.w3.org/2000/svg" fill="none" height="16" viewBox="0 0 22 16" width="22">
  <path d="m21.4533 3.86899s-.2057-1.47127-.8464-2.11989c-.8068-.854281-1.7244-.85428-2.1357-.90174-2.99-.213571-7.4671-.213571-7.4671-.213571h-.0079s-4.47707 0-7.46705.213571c-.41924.04746-1.32889.055369-2.13571.90174-.640713.64862-.846373 2.11989-.846373 2.11989s-.213571 1.72438-.213571 3.45668v1.62155c0 1.72438.213571 3.45668.213571 3.45668s.20566 1.4713.846373 2.1199c.81473.8543 1.87468.8226 2.34928.9096 1.70856.1662 7.25348.2136 7.25348.2136s4.485-.0079 7.475-.2215c.4192-.0474 1.3289-.0553 2.1357-.9017.6407-.6486.8464-2.1199.8464-2.1199s.2135-1.7244.2135-3.45668v-1.62155c0-1.7323-.2135-3.45668-.2135-3.45668zm-12.66399 7.03201v-5.9958l5.76639 3.00581z" fill="#f8f9ff"></path>
</svg>
