<?xml version="1.0" encoding="UTF-8"?>
<svg xmlns="http://www.w3.org/2000/svg" xmlns:xlink="http://www.w3.org/1999/xlink" width="114.7059" height="26.0587" viewBox="0 0 114.7059 26.0587">
  <defs>
    <clipPath id="a">
      <rect y="0.0001" width="114.7059" height="26" fill="none"></rect>
    </clipPath>
  </defs>
  <g clip-path="url(#a)">
    <path d="M24.0537,25.6H3.6582A3.6706,3.6706,0,0,1,.4009,23.7a3.4719,3.4719,0,0,1,.6515-4.1L15.234,5.45H5.0614A5.0737,5.0737,0,0,1,0,.4H18.7919a3.6708,3.6708,0,0,1,3.2573,1.9,3.472,3.472,0,0,1-.6514,4.1L7.2161,20.55H18.9924A5.0738,5.0738,0,0,1,24.0537,25.6ZM104.8339,0a9.7879,9.7879,0,0,0-7.3663,3.3A9.8726,9.8726,0,0,0,80.2291,10V25.6A5.0414,5.0414,0,0,0,85.29,20.5783c0-.0094,0-.0188,0-.0282V9.95a4.8113,4.8113,0,1,1,9.6208-.1835c.0006.0278.0008.0557.0009.0835v10.7a5.0414,5.0414,0,0,0,5.033,5.05h.0281V9.95a4.8113,4.8113,0,0,1,9.6208-.1835c.0006.0279.0009.0557.0009.0836v10.7a5.0414,5.0414,0,0,0,5.033,5.05h.0282V10A9.9671,9.9671,0,0,0,104.8339,0ZM49.6107,13A13.0291,13.0291,0,1,1,36.5525,0l.0291,0A13.0528,13.0528,0,0,1,49.6107,13Zm-5.0613,0a7.9678,7.9678,0,1,0-7.9855,7.95l.0177,0a7.9471,7.9471,0,0,0,7.9678-7.9262Zm33.1743,0A13.0293,13.0293,0,1,1,64.6652,0l.0292,0A13.0531,13.0531,0,0,1,77.7237,13ZM72.662,13a7.9676,7.9676,0,1,0-7.9852,7.95l.0176,0a7.9469,7.9469,0,0,0,7.9676-7.9259Z" fill="#fff"></path>
  </g>
</svg>
