<svg fill="none" height="64" viewBox="0 0 64 64" width="64" xmlns="http://www.w3.org/2000/svg" xmlns:xlink="http://www.w3.org/1999/xlink"><clipPath id="a"><path d="m0 0h64v64h-64z"/></clipPath><g clip-path="url(#a)"><path d="m0 8c0-4.41828 3.58172-8 8-8h48c4.4183 0 8 3.58172 8 8v48c0 4.4183-3.5817 8-8 8h-48c-4.41828 0-8-3.5817-8-8z" fill="#ea1b15"/><path d="m44.0001 15.9999h3.437c.3117 0 .563.2514.563.5632v8.8636c0 .3118-.2413.5632-.5529.5732h-2.8841c-.3117 0-.563-.2514-.563-.5631v-2.5931l-22.2345 21.1563h5.6714c.3117 0 .563.2514.563.5632v2.8736c0 .3118-.2513.5632-.563.5632h-10.874c-.3117 0-.563-.2514-.563-.5632v-3.4368l25.2032-24.0001h-2.6401c-.3117 0-.563-.2514-.563-.5632v-2.8636c0-.3117.2513-.5631.563-.5631zm-20.0001 4 9.4371-.01c.3116 0 .563-.2515.563-.5632v-2.8636c0-.3118-.2514-.5632-.553-.5632h-16.864c-.3117 0-.563.2514-.563.5632v8.8737c0 .3117.2513.5631.563.5631h2.864c.3116 0 .5529-.2514.5529-.5631v-5.4369zm20.0001 24.0001h-11.4371c-.3116 0-.563.2514-.563.5632v2.8736c0 .3118.2514.5632.563.5632h14.8741c.3117 0 .563-.2514.563-.5632v-8.9205c0-.3118-.2513-.5632-.563-.5632h-2.874c-.3117 0-.563.2514-.563.5632z" fill="#fff"/></g></svg>